<svg width="817" height="142" viewBox="0 0 817 142" fill="none" xmlns="http://www.w3.org/2000/svg">
<path d="M538.273 3.27732V24.0524H550.314L546.064 34.2036H538.273V55.2147C538.273 61.3528 539.375 64.4219 541.578 64.4219C545.198 64.4219 547.009 61.3528 547.009 55.2147C547.009 53.4835 546.851 51.5948 546.536 49.5488C550.156 50.6505 551.967 54.1917 551.967 60.1724C551.967 71.032 546.773 76.4619 536.384 76.4619C532.135 76.4619 528.514 74.9667 525.524 71.9763C522.533 68.986 521.038 65.4448 521.038 61.3527V34.2036H511.595V29.7184C516.474 28.1445 521.353 24.7606 526.232 19.5668C531.112 14.3731 534.653 8.94322 536.856 3.27732H538.273ZM500.026 24.0524V61.3527L511.831 74.1011H482.791V63.4775C479.013 71.9764 473.426 76.2259 466.028 76.2259C461.464 76.2259 457.608 74.7306 454.46 71.7403C451.154 68.5926 449.502 64.8941 449.502 60.6447V37.9811L437.933 25.2328L466.737 24.0524V51.9096C466.737 56.159 467.209 59.1495 468.153 60.8807C469.255 62.612 470.986 63.4775 473.347 63.4775C476.18 63.4775 478.463 62.1399 480.194 59.4643C481.925 56.6313 482.791 53.1688 482.791 49.0767V37.9811L468.861 25.2328L500.026 24.0524ZM432.975 3.27732V35.8564C426.522 21.849 416.842 14.8453 403.936 14.8453C391.029 14.8453 384.576 23.0294 384.576 39.3976C384.576 47.5816 386.307 53.4836 389.77 57.1035C393.39 60.7234 399.056 62.5331 406.769 62.5331C414.166 62.5331 420.305 60.4872 425.184 56.3951C430.063 52.4605 432.346 47.5816 432.031 41.7583C432.031 41.4436 432.031 41.1287 432.031 40.814C434.077 42.86 435.1 45.6929 435.1 49.3128C435.1 57.6542 432.109 64.4218 426.128 69.6155C419.99 74.8093 411.884 77.4063 401.811 77.4063C390.321 77.4063 380.484 73.8651 372.299 66.7827C363.957 59.5429 359.786 50.9653 359.786 41.05C359.786 30.9773 363.957 21.9276 372.299 13.9009C380.641 6.03158 390.085 2.09692 400.63 2.09692C409.759 2.09692 417.865 5.00874 424.948 10.832L432.975 3.27732Z" fill="#231F20"/>
<path fill-rule="evenodd" clip-rule="evenodd" d="M812.377 24.0524L804.587 31.1348L787.824 47.6604L805.531 65.8383L815.919 74.1011H775.783L782.866 67.0187L775.075 59.4643L768.228 65.8383L775.075 74.1011H740.133L751.229 65.8383L767.52 50.9655L749.577 32.0792L739.897 24.0524H780.033L773.894 33.2596L780.033 40.342L786.643 33.2596L780.505 24.0524H812.377ZM735.647 52.3819H702.83C702.83 61.353 707.709 65.8383 717.468 65.8383C726.597 65.8383 732.578 62.8482 735.411 56.8675C735.726 58.284 735.883 59.4644 735.883 60.4087C735.883 65.2877 733.837 69.2223 729.745 72.2127C725.495 75.203 719.986 76.6979 713.218 76.6979C704.561 76.6979 697.557 74.2585 692.206 69.3795C687.012 64.5006 684.415 58.0479 684.415 50.0212C684.415 42.3092 687.012 35.7776 692.206 30.4265C697.243 25.0753 703.538 22.3997 711.093 22.3997C717.704 22.3997 723.213 25.0753 727.62 30.4265C732.027 35.6202 734.703 42.9388 735.647 52.3819ZM720.773 43.6468C720.773 35.9349 717.861 32.0792 712.038 32.0792C709.519 32.0792 707.395 33.1807 705.663 35.3841C703.932 37.5875 703.066 40.3417 703.066 43.6468H720.773ZM669.777 0.916565V61.3528L681.345 74.1011H640.737L652.542 61.3528V14.8453L640.737 2.09696L669.777 0.916565ZM557.16 4.45775H638.14V37.9812L622.086 16.734H593.755V31.1348H609.101L621.142 22.636V56.6312L609.101 46.2439H593.755V57.8116L608.865 74.1011H557.16L572.27 57.8116V20.2752L557.16 4.45775Z" fill="#EC1C24"/>
<path d="M369.229 8.70728L373.715 16.4977L375.84 12.2485L369.229 8.70728Z" fill="#231F20"/>
<path d="M366.396 11.5401L370.882 19.0948L373.007 15.0813L366.396 11.5401Z" fill="#231F20"/>
<path d="M363.8 13.9009L368.286 21.6916L370.411 17.4421L363.8 13.9009Z" fill="#231F20"/>
<path d="M361.438 17.4421L365.924 24.9968L368.049 20.9833L361.438 17.4421Z" fill="#231F20"/>
<path d="M359.078 21.2193L363.564 28.774L365.689 24.7605L359.078 21.2193Z" fill="#231F20"/>
<path d="M357.189 25.7048L361.911 33.4956L363.8 29.246L357.189 25.7048Z" fill="#231F20"/>
<path d="M356.245 30.6625L360.967 38.2172L362.856 34.2037L356.245 30.6625Z" fill="#231F20"/>
<path d="M354.828 36.8008L361.675 42.4665L362.383 37.7449L354.828 36.8008Z" fill="#231F20"/>
<path d="M354.828 41.05L361.675 46.7159L362.383 41.9944L354.828 41.05Z" fill="#231F20"/>
<path d="M354.828 45.2996L361.675 50.7292L362.383 46.0076L354.828 45.2996Z" fill="#231F20"/>
<path d="M354.828 51.4375L363.091 54.7427L362.383 50.2571L354.828 51.4375Z" fill="#231F20"/>
<path d="M357.189 55.6871L365.453 58.5199L364.272 53.7983L357.189 55.6871Z" fill="#231F20"/>
<path d="M359.078 59.7003L367.578 62.2971L366.397 57.8116L359.078 59.7003Z" fill="#231F20"/>
<path d="M361.438 64.894L370.174 64.6579L367.577 60.6447L361.438 64.894Z" fill="#231F20"/>
<path d="M364.98 68.1991L373.716 67.7271L371.119 63.9499L364.98 68.1991Z" fill="#231F20"/>
<path d="M368.758 71.7403L377.493 70.3239L374.424 66.7827L368.758 71.7403Z" fill="#231F20"/>
<path d="M373.243 74.8095L381.979 72.9207L378.673 69.3795L373.243 74.8095Z" fill="#231F20"/>
<path d="M378.438 77.8783L386.465 74.3371L382.687 71.7403L378.438 77.8783Z" fill="#231F20"/>
<path d="M781.922 80.0031L778.616 71.7403L783.102 72.4486L781.922 80.0031Z" fill="#EC1C24"/>
<path d="M786.172 80.0031L782.866 71.7403L787.352 72.4486L786.172 80.0031Z" fill="#EC1C24"/>
<path d="M790.186 80.0031L787.116 71.7403L791.602 72.4486L790.186 80.0031Z" fill="#EC1C24"/>
<path d="M794.434 80.0031L791.365 71.7403L795.851 72.4486L794.434 80.0031Z" fill="#EC1C24"/>
<path d="M798.684 80.0031L795.379 71.7403L799.865 72.4486L798.684 80.0031Z" fill="#EC1C24"/>
<path d="M802.934 80.0031L799.629 71.7403L804.114 72.4486L802.934 80.0031Z" fill="#EC1C24"/>
<path d="M807.183 80.0031L803.878 71.7403L808.364 72.4486L807.183 80.0031Z" fill="#EC1C24"/>
<path d="M811.433 80.0031L808.128 71.7403L812.614 72.4486L811.433 80.0031Z" fill="#EC1C24"/>
<path d="M815.447 80.0031L812.378 71.7403L816.864 72.4486L815.447 80.0031Z" fill="#EC1C24"/>
<path fill-rule="evenodd" clip-rule="evenodd" d="M667.18 134.301L672.139 133.829C672.296 135.088 672.689 136.033 673.319 136.662C674.106 137.292 674.972 137.606 675.916 137.606C676.86 137.606 677.726 137.213 678.513 136.426C679.143 135.639 679.457 134.537 679.457 133.121C679.457 131.862 679.143 130.839 678.513 130.052C677.883 129.422 677.018 129.108 675.916 129.108C675.286 129.108 674.578 129.186 673.791 129.344L674.263 125.094C675.68 125.252 676.703 125.016 677.333 124.386C678.12 123.757 678.513 122.891 678.513 121.789C678.513 120.845 678.198 120.137 677.569 119.664C677.096 119.035 676.467 118.72 675.68 118.72C674.736 118.72 673.949 119.035 673.319 119.664C672.689 120.294 672.375 121.16 672.375 122.261L667.653 121.553C667.968 119.979 668.44 118.72 669.069 117.776C669.699 116.674 670.643 115.887 671.902 115.415C673.004 114.785 674.263 114.471 675.68 114.471C678.198 114.471 680.166 115.336 681.582 117.068C682.841 118.327 683.471 119.822 683.471 121.553C683.471 123.756 682.212 125.566 679.693 126.983C681.267 127.298 682.448 128.085 683.235 129.344C684.179 130.445 684.651 131.783 684.651 133.357C684.651 135.718 683.786 137.764 682.054 139.495C680.48 141.069 678.434 141.856 675.916 141.856C673.555 141.856 671.588 141.148 670.014 139.731C668.44 138.472 667.495 136.662 667.18 134.301ZM649.237 126.983C647.978 126.511 647.034 125.724 646.404 124.622C645.932 123.678 645.696 122.655 645.696 121.553C645.696 119.507 646.326 117.854 647.585 116.595C649.001 115.179 650.969 114.471 653.487 114.471C656.005 114.471 657.973 115.179 659.389 116.595C660.649 117.854 661.278 119.507 661.278 121.553C661.278 122.812 660.963 123.914 660.334 124.858C659.704 125.802 658.838 126.511 657.737 126.983C659.153 127.612 660.255 128.478 661.042 129.58C661.829 130.681 662.222 132.019 662.222 133.593C662.222 136.111 661.435 138.157 659.862 139.731C658.288 141.148 656.241 141.856 653.723 141.856C651.362 141.856 649.395 141.226 647.821 139.967C645.932 138.551 644.988 136.505 644.988 133.829C644.988 132.413 645.302 131.075 645.932 129.816C646.719 128.557 647.821 127.612 649.237 126.983ZM650.418 121.789C650.418 122.891 650.654 123.678 651.126 124.15C651.756 124.78 652.543 125.094 653.487 125.094C654.431 125.094 655.218 124.78 655.848 124.15C656.32 123.678 656.556 122.891 656.556 121.789C656.556 120.845 656.32 120.058 655.848 119.428C655.218 118.956 654.431 118.72 653.487 118.72C652.543 118.72 651.756 118.956 651.126 119.428C650.654 120.058 650.418 120.845 650.418 121.789ZM649.946 133.357C649.946 134.773 650.261 135.875 650.89 136.662C651.677 137.449 652.621 137.842 653.723 137.842C654.668 137.842 655.533 137.449 656.32 136.662C656.95 135.875 657.265 134.773 657.265 133.357C657.265 132.098 656.871 131.075 656.084 130.288C655.455 129.501 654.589 129.108 653.487 129.108C652.385 129.108 651.52 129.58 650.89 130.524C650.261 131.311 649.946 132.255 649.946 133.357ZM622.795 135.246L627.517 134.774C627.674 135.718 627.989 136.426 628.461 136.898C628.933 137.37 629.641 137.606 630.586 137.606C631.53 137.606 632.396 137.134 633.183 136.19C633.97 135.246 634.442 133.2 634.6 130.052C633.34 131.626 631.766 132.413 629.878 132.413C627.832 132.413 626.021 131.626 624.447 130.052C623.031 128.321 622.323 126.196 622.323 123.678C622.323 121.002 623.11 118.799 624.684 117.068C626.257 115.336 628.225 114.471 630.586 114.471C633.262 114.471 635.465 115.572 637.197 117.776C638.928 119.822 639.794 123.284 639.794 128.163C639.794 133.042 638.849 136.583 636.961 138.787C635.229 140.833 632.947 141.856 630.114 141.856C628.068 141.856 626.415 141.305 625.156 140.203C623.897 139.102 623.11 137.449 622.795 135.246ZM634.127 124.15C634.127 122.419 633.734 121.081 632.947 120.137C632.16 119.192 631.294 118.72 630.35 118.72C629.405 118.72 628.618 119.114 627.989 119.901C627.517 120.687 627.281 121.946 627.281 123.678C627.281 125.409 627.595 126.668 628.225 127.455C628.854 128.242 629.641 128.635 630.586 128.635C631.688 128.635 632.554 128.242 633.183 127.455C633.813 126.668 634.127 125.567 634.127 124.15ZM613.115 141.384H608.157V122.025C606.268 123.914 604.065 125.252 601.546 126.039V121.317C602.806 120.845 604.222 120.058 605.796 118.956C607.37 117.697 608.472 116.202 609.101 114.471H613.115V141.384ZM581.715 135.246L586.672 136.19C586.043 138.079 585.02 139.495 583.603 140.439C582.344 141.384 580.613 141.856 578.409 141.856C575.104 141.856 572.664 140.754 571.09 138.551C569.831 136.82 569.201 134.616 569.201 131.94C569.201 128.635 570.067 126.117 571.799 124.386C573.373 122.497 575.419 121.553 577.937 121.553C580.77 121.553 583.053 122.497 584.784 124.386C586.358 126.432 587.066 129.422 586.909 133.357H574.396C574.396 134.773 574.789 135.954 575.576 136.898C576.363 137.685 577.386 138.079 578.645 138.079C579.432 138.079 580.062 137.843 580.534 137.37C581.006 136.898 581.4 136.19 581.715 135.246ZM581.951 130.052C581.951 128.636 581.636 127.534 581.006 126.747C580.219 125.96 579.275 125.566 578.173 125.566C577.229 125.566 576.363 125.96 575.576 126.747C574.789 127.534 574.474 128.636 574.632 130.052H581.951ZM564.716 127.691L559.758 128.635C559.6 127.691 559.207 126.983 558.577 126.511C557.948 125.881 557.161 125.566 556.216 125.566C554.957 125.566 554.013 126.039 553.383 126.983C552.596 127.927 552.203 129.422 552.203 131.468C552.203 133.672 552.596 135.246 553.383 136.19C554.17 137.292 555.193 137.842 556.453 137.842C557.397 137.842 558.184 137.528 558.814 136.898C559.443 136.269 559.837 135.324 559.994 134.065L564.952 135.01C564.48 137.213 563.535 138.944 562.119 140.203C560.545 141.305 558.577 141.856 556.216 141.856C553.383 141.856 551.18 140.99 549.606 139.259C547.875 137.37 547.009 134.852 547.009 131.704C547.009 128.557 547.875 126.117 549.606 124.386C551.18 122.497 553.383 121.553 556.216 121.553C558.577 121.553 560.387 122.104 561.647 123.206C563.063 124.15 564.086 125.645 564.716 127.691ZM541.107 141.384H535.912V131.468C535.912 129.422 535.834 128.084 535.676 127.455C535.519 126.825 535.125 126.353 534.496 126.039C534.024 125.724 533.473 125.566 532.843 125.566C532.056 125.566 531.269 125.802 530.482 126.275C529.853 126.747 529.38 127.376 529.066 128.163C528.908 128.95 528.829 130.445 528.829 132.649V141.384H523.636V122.025H528.357V124.858C530.089 122.655 532.214 121.553 534.732 121.553C535.834 121.553 536.778 121.789 537.565 122.261C538.51 122.733 539.218 123.284 539.69 123.914C540.162 124.543 540.477 125.252 540.634 126.039C540.949 126.825 541.107 127.927 541.107 129.344V141.384ZM511.595 141.384V122.025H516.553V141.384H511.595ZM511.595 119.428V114.707H516.553V119.428H511.595ZM483.972 132.649L488.93 132.177C489.244 133.908 489.874 135.246 490.818 136.19C491.763 136.977 493.101 137.37 494.832 137.37C496.406 137.37 497.665 136.977 498.61 136.19C499.397 135.56 499.79 134.695 499.79 133.593C499.79 132.964 499.633 132.413 499.318 131.94C499.003 131.626 498.374 131.311 497.429 130.996C496.8 130.681 495.383 130.288 493.179 129.816C490.346 129.029 488.379 128.085 487.277 126.983C485.703 125.566 484.916 123.835 484.916 121.789C484.916 120.373 485.231 119.035 485.861 117.776C486.648 116.674 487.749 115.808 489.166 115.179C490.582 114.549 492.314 114.235 494.36 114.235C497.665 114.235 500.183 114.943 501.915 116.359C503.489 117.933 504.355 119.901 504.512 122.261L499.082 122.497C498.924 121.081 498.452 120.137 497.665 119.664C496.878 119.035 495.776 118.72 494.36 118.72C492.786 118.72 491.605 119.035 490.818 119.664C490.189 120.137 489.874 120.687 489.874 121.317C489.874 121.946 490.11 122.498 490.582 122.97C491.369 123.599 493.022 124.15 495.54 124.622C498.059 125.252 499.947 125.96 501.207 126.747C502.466 127.376 503.41 128.242 504.04 129.344C504.827 130.445 505.22 131.862 505.22 133.593C505.22 135.167 504.827 136.583 504.04 137.842C503.095 139.259 501.915 140.282 500.498 140.912C498.924 141.541 496.957 141.856 494.596 141.856C491.291 141.856 488.772 141.069 487.041 139.495C485.31 137.921 484.286 135.639 483.972 132.649Z" fill="#231F20"/>
<path fill-rule="evenodd" clip-rule="evenodd" d="M706.844 93.4598L708.969 93.6958C708.811 94.3253 708.575 94.8761 708.26 95.3482C707.945 95.8204 707.552 96.2138 707.08 96.5286C706.765 97.0008 706.293 97.3156 705.663 97.473C705.191 97.6304 704.561 97.709 703.774 97.709C702.987 97.709 702.279 97.5517 701.65 97.237C700.863 96.9222 700.233 96.5287 699.761 96.0566C699.289 95.427 698.895 94.7974 698.58 94.1678C698.423 93.3809 698.344 92.5153 698.344 91.571C698.344 90.4693 698.423 89.5251 698.58 88.7382C698.895 88.1086 699.289 87.479 699.761 86.8494C700.233 86.3773 700.863 85.9838 701.65 85.669C702.279 85.3543 702.987 85.197 703.774 85.197C704.561 85.197 705.27 85.3543 705.899 85.669C706.529 85.8264 707.08 86.2199 707.552 86.8494C708.024 87.3216 708.418 87.9512 708.733 88.7382C708.89 89.5251 708.969 90.3907 708.969 91.335C708.969 91.4924 708.969 91.571 708.969 91.571C708.969 91.7284 708.969 91.8857 708.969 92.0431H700.233C700.39 92.6726 700.548 93.2236 700.705 93.6958C700.863 94.1679 701.099 94.5614 701.413 94.8762C701.728 95.191 702.122 95.5058 702.594 95.8206C702.909 95.9779 703.302 96.0566 703.774 96.0566C704.247 96.0566 704.64 95.9779 704.955 95.8206C705.27 95.6632 705.506 95.5056 705.663 95.3482C706.135 95.0334 706.529 94.4041 706.844 93.4598ZM700.469 90.3906H706.844C706.844 89.7611 706.765 89.289 706.608 88.9742C706.608 88.6594 706.45 88.3446 706.135 88.0298C705.821 87.7151 705.506 87.4002 705.191 87.0854C704.719 86.9281 704.247 86.8494 703.774 86.8494C703.302 86.8494 702.909 86.9281 702.594 87.0854C702.122 87.2428 701.728 87.479 701.413 87.7938C701.099 88.1086 700.863 88.502 700.705 88.9742C700.548 89.289 700.469 89.7611 700.469 90.3906ZM695.275 92.9874L697.164 93.2235C697.164 94.0104 697.006 94.64 696.692 95.1122C696.377 95.5844 696.062 96.0565 695.747 96.5286C695.275 96.8434 694.724 97.0796 694.095 97.237C693.622 97.5517 693.072 97.709 692.442 97.709C691.655 97.709 690.947 97.5517 690.317 97.237C689.688 96.9222 689.137 96.5287 688.665 96.0566C688.192 95.5844 687.799 94.9548 687.484 94.1678C687.169 93.3809 687.012 92.5153 687.012 91.571C687.012 90.7841 687.09 90.1544 687.248 89.6823C687.405 89.0527 687.563 88.502 687.72 88.0298C688.035 87.5577 688.35 87.1642 688.665 86.8494C688.979 86.5347 689.294 86.2198 689.609 85.9051C690.081 85.7477 690.553 85.5904 691.026 85.433C691.498 85.2756 691.97 85.197 692.442 85.197C693.072 85.197 693.622 85.2756 694.095 85.433C694.724 85.5904 695.196 85.8263 695.511 86.1411C695.983 86.4558 696.298 86.8493 696.456 87.3215C696.77 87.7936 697.007 88.3447 697.164 88.9742L695.275 89.2102C695.118 88.8954 694.96 88.5806 694.803 88.2658C694.646 87.9511 694.409 87.7152 694.095 87.5578C693.937 87.243 693.701 87.0854 693.387 87.0854C693.072 86.9281 692.757 86.8494 692.442 86.8494C691.498 86.8494 690.711 87.2429 690.081 88.0298C689.766 88.3446 689.53 88.8167 689.373 89.4462C689.215 89.9184 689.137 90.5481 689.137 91.335C689.137 92.1219 689.215 92.8302 689.373 93.4598C689.53 94.0893 689.766 94.5614 690.081 94.8762C690.396 95.191 690.711 95.5058 691.026 95.8206C691.498 95.9779 691.97 96.0566 692.442 96.0566C692.757 96.0566 693.072 95.9779 693.387 95.8206C693.701 95.6632 694.016 95.5056 694.331 95.3482C694.645 95.0334 694.882 94.7186 695.039 94.4038C695.196 93.9317 695.275 93.4596 695.275 92.9874ZM675.207 97.473V85.433H677.096V87.0854C677.411 86.4559 677.883 85.9838 678.512 85.669C679.142 85.3543 679.85 85.197 680.637 85.197C681.11 85.197 681.503 85.197 681.818 85.197C682.133 85.3544 682.447 85.5116 682.762 85.669C682.92 85.669 683.156 85.8263 683.47 86.1411C683.628 86.2985 683.785 86.456 683.943 86.6134C684.1 86.7708 684.257 87.0067 684.415 87.3215C684.415 87.4789 684.493 87.7151 684.651 88.0298C684.651 88.1872 684.651 88.502 684.651 88.9742C684.651 89.289 684.651 89.6824 684.651 90.1546V97.473H682.762V90.1546C682.762 89.6824 682.762 89.289 682.762 88.9742C682.605 88.6594 682.526 88.4232 682.526 88.2658C682.369 87.7937 682.054 87.4789 681.582 87.3215C681.424 87.1641 681.267 87.0854 681.109 87.0854C680.795 86.9281 680.559 86.8494 680.401 86.8494C679.929 86.8494 679.536 86.9281 679.221 87.0854C678.749 87.2428 678.355 87.479 678.04 87.7938C677.726 88.1086 677.568 88.502 677.568 88.9742C677.411 89.4464 677.332 90.0757 677.332 90.8627V97.473H675.207ZM670.485 93.4598L672.61 93.6958C672.453 94.3253 672.217 94.8761 671.902 95.3482C671.587 95.8204 671.272 96.2138 670.958 96.5286C670.485 97.0008 669.934 97.3156 669.305 97.473C668.833 97.6304 668.203 97.709 667.416 97.709C666.629 97.709 665.921 97.5517 665.291 97.237C664.504 96.9222 663.875 96.5287 663.402 96.0566C662.93 95.427 662.615 94.7974 662.458 94.1678C662.143 93.3809 661.986 92.5153 661.986 91.571C661.986 90.4693 662.143 89.5251 662.458 88.7382C662.615 88.1086 662.93 87.479 663.402 86.8494C664.032 86.3773 664.662 85.9838 665.291 85.669C665.921 85.3543 666.629 85.197 667.416 85.197C668.203 85.197 668.911 85.3543 669.541 85.669C670.17 85.8264 670.721 86.2199 671.194 86.8494C671.666 87.3216 672.059 87.9512 672.374 88.7382C672.532 89.5251 672.61 90.3907 672.61 91.335C672.61 91.4924 672.61 91.571 672.61 91.571C672.61 91.7284 672.61 91.8857 672.61 92.0431H664.111C664.111 92.6726 664.189 93.2236 664.347 93.6958C664.504 94.1679 664.74 94.5614 665.055 94.8762C665.37 95.191 665.764 95.5058 666.236 95.8206C666.551 95.9779 666.944 96.0566 667.416 96.0566C667.888 96.0566 668.282 95.9779 668.597 95.8206C668.911 95.6632 669.147 95.5056 669.305 95.3482C669.934 95.0334 670.328 94.4041 670.485 93.4598ZM664.111 90.3906H670.721C670.564 89.7611 670.485 89.289 670.485 88.9742C670.328 88.6594 670.092 88.3446 669.777 88.0298C669.462 87.7151 669.147 87.4002 668.833 87.0854C668.361 86.9281 667.888 86.8494 667.416 86.8494C666.944 86.8494 666.551 86.9281 666.236 87.0854C665.764 87.2428 665.37 87.479 665.055 87.7938C664.74 88.1086 664.504 88.502 664.347 88.9742C664.189 89.289 664.111 89.7611 664.111 90.3906ZM657.5 97.473V80.9474H659.625V97.473H657.5ZM652.542 97.473V80.9474H654.431V97.473H652.542ZM648.056 93.4598L650.181 93.6958C650.024 94.3253 649.788 94.8761 649.473 95.3482C649.158 95.8204 648.765 96.2138 648.292 96.5286C647.82 97.0008 647.348 97.3156 646.876 97.473C646.246 97.6304 645.617 97.709 644.987 97.709C644.2 97.709 643.413 97.5517 642.626 97.237C641.997 96.9222 641.446 96.5287 640.974 96.0566C640.501 95.427 640.108 94.7974 639.793 94.1678C639.636 93.3809 639.557 92.5153 639.557 91.571C639.557 90.4693 639.636 89.5251 639.793 88.7382C640.108 88.1086 640.501 87.479 640.974 86.8494C641.446 86.3773 641.997 85.9838 642.626 85.669C643.413 85.3543 644.2 85.197 644.987 85.197C645.774 85.197 646.482 85.3543 647.112 85.669C647.741 85.8264 648.293 86.2199 648.765 86.8494C649.237 87.3216 649.63 87.9512 649.945 88.7382C650.103 89.5251 650.181 90.3907 650.181 91.335C650.181 91.4924 650.181 91.571 650.181 91.571C650.181 91.7284 650.181 91.8857 650.181 92.0431H641.446C641.603 92.6726 641.761 93.2236 641.918 93.6958C642.075 94.1679 642.312 94.5614 642.626 94.8762C642.941 95.191 643.335 95.5058 643.807 95.8206C644.122 95.9779 644.515 96.0566 644.987 96.0566C645.302 96.0566 645.617 95.9779 645.931 95.8206C646.246 95.6632 646.561 95.5056 646.876 95.3482C647.348 95.0334 647.742 94.4041 648.056 93.4598ZM641.682 90.3906H648.056C648.056 89.7611 647.978 89.289 647.82 88.9742C647.663 88.6594 647.506 88.3446 647.348 88.0298C647.033 87.7151 646.719 87.4002 646.404 87.0854C645.932 86.9281 645.459 86.8494 644.987 86.8494C644.515 86.8494 644.122 86.9281 643.807 87.0854C643.335 87.2428 642.941 87.479 642.626 87.7938C642.312 88.1086 642.075 88.502 641.918 88.9742C641.761 89.289 641.682 89.7611 641.682 90.3906ZM636.488 92.9874L638.377 93.2235C638.377 94.0104 638.219 94.64 637.904 95.1122C637.59 95.5844 637.196 96.0565 636.724 96.5286C636.409 96.8434 635.937 97.0796 635.307 97.237C634.835 97.5517 634.284 97.709 633.655 97.709C632.868 97.709 632.159 97.5517 631.53 97.237C630.9 96.9222 630.349 96.5287 629.877 96.0566C629.248 95.5844 628.854 94.9548 628.697 94.1678C628.382 93.3809 628.224 92.5153 628.224 91.571C628.224 90.7841 628.303 90.1544 628.461 89.6823C628.618 89.0527 628.775 88.502 628.933 88.0298C629.09 87.5577 629.326 87.1642 629.641 86.8494C629.956 86.5347 630.349 86.2198 630.822 85.9051C631.294 85.7477 631.766 85.5904 632.238 85.433C632.71 85.2756 633.182 85.197 633.655 85.197C634.284 85.197 634.835 85.2756 635.307 85.433C635.779 85.5904 636.252 85.8263 636.724 86.1411C637.196 86.4558 637.511 86.8493 637.668 87.3215C637.983 87.7936 638.141 88.3447 638.141 88.9742L636.252 89.2102C636.252 88.8954 636.173 88.5806 636.016 88.2658C635.858 87.9511 635.622 87.7152 635.307 87.5578C635.15 87.243 634.914 87.0854 634.599 87.0854C634.284 86.9281 633.969 86.8494 633.655 86.8494C632.71 86.8494 631.923 87.2429 631.294 88.0298C630.979 88.3446 630.743 88.8167 630.585 89.4462C630.428 89.9184 630.349 90.5481 630.349 91.335C630.349 92.1219 630.428 92.8302 630.585 93.4598C630.743 94.0893 630.979 94.5614 631.294 94.8762C631.609 95.191 631.923 95.5058 632.238 95.8206C632.71 95.9779 633.182 96.0566 633.655 96.0566C633.969 96.0566 634.284 95.9779 634.599 95.8206C634.914 95.6632 635.229 95.5056 635.544 95.3482C635.858 95.0334 636.094 94.7186 636.252 94.4038C636.409 93.9317 636.488 93.4596 636.488 92.9874ZM616.42 97.473L620.67 91.099L616.656 85.433H619.253L620.906 88.2658C621.063 88.5806 621.221 88.8168 621.378 88.9742C621.535 89.289 621.693 89.5249 621.85 89.6823C622.007 89.3675 622.165 89.1316 622.322 88.9742C622.322 88.6594 622.401 88.4232 622.558 88.2658L624.683 85.433H627.044L623.03 91.099L627.28 97.473H624.919L622.558 93.6958L621.85 92.7514L618.781 97.473H616.42ZM602.962 97.473V80.9474H614.767V82.8362H605.087V88.0298H614.059V89.9186H605.087V95.3482H615.003V97.473H602.962ZM590.686 97.473V87.0854H589.033V85.433H590.686V84.2526C590.686 83.7805 590.686 83.387 590.686 83.0722C590.843 82.9148 590.922 82.6786 590.922 82.3639C591.079 82.2065 591.236 81.9706 591.394 81.6558C591.551 81.4984 591.709 81.3409 591.866 81.1835C592.181 81.0261 592.496 80.8688 592.81 80.7114C593.125 80.7114 593.519 80.7114 593.991 80.7114C594.148 80.7114 594.384 80.7114 594.699 80.7114C595.014 80.7114 595.329 80.7901 595.644 80.9474L595.408 82.5999C595.093 82.5999 594.699 82.5999 594.227 82.5999C593.755 82.5999 593.361 82.6788 593.047 82.8362C592.889 82.9936 592.81 83.2295 592.81 83.5443C592.653 83.7016 592.574 84.0165 592.574 84.4886V85.433H594.935V87.0854H592.574V97.473H590.686ZM572.506 89.4462C572.506 88.0298 572.664 86.7707 572.979 85.669C573.293 84.5673 573.844 83.7018 574.631 83.0722C575.261 82.2853 576.048 81.6556 576.992 81.1835C577.937 80.8687 578.96 80.7114 580.062 80.7114C580.848 80.7114 581.557 80.7901 582.186 80.9474C582.973 81.1048 583.603 81.341 584.075 81.6558C584.705 82.128 585.255 82.6001 585.728 83.0722C586.2 83.5444 586.593 84.0951 586.908 84.7247C587.223 85.3542 587.459 86.0625 587.616 86.8494C587.774 87.6364 587.852 88.4233 587.852 89.2102C587.852 89.9972 587.774 90.7841 587.616 91.571C587.459 92.3579 587.223 93.0662 586.908 93.6958C586.593 94.3253 586.2 94.8761 585.728 95.3482C585.255 95.8204 584.705 96.2138 584.075 96.5286C583.445 97.0008 582.816 97.3156 582.186 97.473C581.557 97.6304 580.848 97.709 580.062 97.709C579.275 97.709 578.566 97.6304 577.937 97.473C577.307 97.1582 576.677 96.8434 576.048 96.5286C575.418 96.2138 574.867 95.7417 574.395 95.1122C574.08 94.64 573.766 94.0893 573.451 93.4598C573.136 92.8302 572.9 92.2006 572.742 91.571C572.585 90.7841 572.506 90.0758 572.506 89.4462ZM574.631 89.4462C574.631 90.3906 574.789 91.2561 575.103 92.0431C575.261 92.83 575.654 93.5383 576.284 94.1678C576.756 94.64 577.307 95.0334 577.937 95.3482C578.566 95.663 579.275 95.8206 580.062 95.8206C580.848 95.8206 581.635 95.663 582.422 95.3482C583.052 95.0334 583.603 94.64 584.075 94.1678C584.547 93.5383 584.941 92.83 585.255 92.0431C585.57 91.2561 585.728 90.3119 585.728 89.2102C585.728 88.5807 585.649 87.951 585.491 87.3215C585.334 86.6919 585.177 86.1412 585.019 85.669C584.705 85.1969 584.39 84.7248 584.075 84.2526C583.76 83.9378 583.367 83.623 582.895 83.3082C582.58 82.9935 582.186 82.8362 581.714 82.8362C581.242 82.6788 580.691 82.5999 580.062 82.5999C579.432 82.5999 578.724 82.6788 577.937 82.8362C577.307 83.151 576.756 83.5444 576.284 84.0166C575.182 85.1183 574.631 86.9281 574.631 89.4462ZM561.646 97.473V95.8206C561.331 96.4501 560.859 96.9222 560.23 97.237C559.757 97.5517 559.128 97.709 558.341 97.709C557.869 97.709 557.475 97.6304 557.16 97.473C556.688 97.3156 556.295 97.0794 555.98 96.7646C555.508 96.6073 555.114 96.2927 554.799 95.8206C554.485 95.5058 554.249 95.1123 554.091 94.6402C553.934 94.168 553.776 93.6956 553.619 93.2235C553.461 92.5939 553.383 91.9645 553.383 91.335C553.383 90.8628 553.461 90.3118 553.619 89.6823C553.619 89.2101 553.776 88.738 554.091 88.2658C554.406 87.3215 554.957 86.5346 555.744 85.9051C556.059 85.7477 556.452 85.5904 556.924 85.433C557.396 85.2756 557.869 85.197 558.341 85.197C558.656 85.197 558.97 85.2756 559.285 85.433C559.6 85.433 559.915 85.5116 560.23 85.669C560.544 85.8264 560.78 85.9837 560.938 86.1411C561.095 86.2985 561.331 86.5347 561.646 86.8494V80.9474H563.535V97.473H561.646ZM555.272 91.335C555.272 92.1219 555.35 92.8302 555.508 93.4598C555.665 93.9319 555.901 94.404 556.216 94.8762C556.531 95.191 556.924 95.4269 557.396 95.5842C557.711 95.899 558.105 96.0566 558.577 96.0566C559.049 96.0566 559.442 95.9779 559.757 95.8206C560.072 95.5058 560.387 95.191 560.702 94.8762C561.016 94.5614 561.253 94.0893 561.41 93.4598C561.567 92.9876 561.646 92.3579 561.646 91.571C561.646 90.7841 561.567 90.0758 561.41 89.4462C561.253 88.8167 561.016 88.3446 560.702 88.0298C560.387 87.5577 560.072 87.2428 559.757 87.0854C559.285 86.9281 558.892 86.8494 558.577 86.8494C558.105 86.8494 557.632 86.9281 557.16 87.0854C556.845 87.2428 556.531 87.5577 556.216 88.0298C555.901 88.3446 555.665 88.8167 555.508 89.4462C555.35 89.9184 555.272 90.5481 555.272 91.335ZM541.578 97.473V85.433H543.467V87.0854C543.782 86.4559 544.254 85.9838 544.883 85.669C545.513 85.3543 546.221 85.197 547.008 85.197C547.481 85.197 547.874 85.197 548.189 85.197C548.504 85.3544 548.818 85.5116 549.133 85.669C549.29 85.669 549.527 85.8263 549.841 86.1411C549.999 86.2985 550.156 86.456 550.313 86.6134C550.471 86.7708 550.628 87.0067 550.786 87.3215C550.786 87.4789 550.864 87.7151 551.022 88.0298C551.022 88.1872 551.022 88.502 551.022 88.9742C551.022 89.289 551.022 89.6824 551.022 90.1546V97.473H549.133V90.1546C549.133 89.6824 549.133 89.289 549.133 88.9742C548.976 88.6594 548.897 88.4232 548.897 88.2658C548.74 87.7937 548.425 87.4789 547.953 87.3215C547.795 87.1641 547.638 87.0854 547.48 87.0854C547.166 86.9281 546.929 86.8494 546.772 86.8494C546.3 86.8494 545.906 86.9281 545.592 87.0854C545.119 87.2428 544.726 87.479 544.411 87.7938C544.096 88.1086 543.86 88.502 543.703 88.9742C543.703 89.4464 543.703 90.0757 543.703 90.8627V97.473H541.578ZM536.62 97.473V95.5842C536.148 96.2138 535.597 96.7648 534.967 97.237C534.338 97.5517 533.63 97.709 532.843 97.709C532.528 97.709 532.213 97.6304 531.898 97.473C531.584 97.473 531.269 97.3944 530.954 97.237C530.639 97.0796 530.403 96.922 530.246 96.7646C529.931 96.6073 529.773 96.45 529.773 96.2926C529.616 95.9778 529.459 95.7416 529.301 95.5842C529.144 95.2695 529.065 94.9549 529.065 94.6402C529.065 94.4828 529.065 94.2466 529.065 93.9318C528.908 93.617 528.829 93.2236 528.829 92.7514V85.433H530.954V92.0431C530.954 92.5152 530.954 92.9876 530.954 93.4598C530.954 93.7745 530.954 94.0104 530.954 94.1678C531.111 94.4826 531.269 94.7188 531.426 94.8762C531.426 95.0336 531.584 95.1908 531.898 95.3482C532.056 95.5056 532.292 95.6632 532.606 95.8206C532.764 95.8206 533 95.8206 533.315 95.8206C533.63 95.8206 533.944 95.8206 534.259 95.8206C534.417 95.6632 534.653 95.5056 534.967 95.3482C535.282 95.1908 535.518 95.0336 535.676 94.8762C535.833 94.7188 535.99 94.4826 536.148 94.1678C536.148 93.8531 536.227 93.5382 536.384 93.2235C536.384 92.7513 536.384 92.2792 536.384 91.807V85.433H538.273V97.473H536.62ZM515.844 91.335C515.844 90.2333 516.001 89.2888 516.316 88.5019C516.631 87.7149 517.103 87.0856 517.733 86.6134C518.205 86.1412 518.756 85.7478 519.385 85.433C520.015 85.2756 520.645 85.197 521.274 85.197C522.061 85.197 522.769 85.3543 523.399 85.669C524.186 85.8264 524.815 86.2199 525.288 86.8494C525.76 87.3216 526.153 87.9512 526.468 88.7382C526.625 89.5251 526.704 90.3907 526.704 91.335C526.704 91.9645 526.704 92.5939 526.704 93.2235C526.547 93.853 526.311 94.404 525.996 94.8762C525.839 95.3483 525.602 95.7418 525.288 96.0566C524.973 96.3713 524.579 96.6862 524.107 97.0009C523.635 97.1583 523.163 97.3156 522.691 97.473C522.218 97.6304 521.746 97.709 521.274 97.709C520.487 97.709 519.779 97.5517 519.149 97.237C518.52 96.9222 517.89 96.5287 517.26 96.0566C516.788 95.427 516.474 94.7974 516.316 94.1678C516.001 93.3809 515.844 92.4367 515.844 91.335ZM517.969 91.335C517.969 92.1219 518.047 92.8302 518.205 93.4598C518.362 93.9319 518.598 94.404 518.913 94.8762C519.228 95.191 519.543 95.4269 519.858 95.5842C520.33 95.899 520.802 96.0566 521.274 96.0566C521.746 96.0566 522.218 95.899 522.691 95.5842C523.005 95.4269 523.399 95.191 523.871 94.8762C524.186 94.404 524.422 93.9319 524.579 93.4598C524.737 92.8302 524.816 92.1219 524.816 91.335C524.816 90.5481 524.737 89.9184 524.579 89.4462C524.422 88.8167 524.186 88.3446 523.871 88.0298C523.399 87.5577 523.005 87.2428 522.691 87.0854C522.218 86.9281 521.746 86.8494 521.274 86.8494C520.802 86.8494 520.33 86.9281 519.858 87.0854C519.543 87.2428 519.228 87.5577 518.913 88.0298C518.598 88.3446 518.362 88.8167 518.205 89.4462C518.047 89.9184 517.969 90.5481 517.969 91.335ZM501.206 92.0431L503.095 91.807C503.252 92.2792 503.331 92.6727 503.331 92.9874C503.488 93.3022 503.646 93.617 503.803 93.9318C503.961 94.2466 504.197 94.4828 504.512 94.6402C504.826 94.7975 505.141 94.9548 505.456 95.1122C505.77 95.2696 506.164 95.4269 506.636 95.5842C507.108 95.5842 507.502 95.5842 507.817 95.5842C508.289 95.5842 508.682 95.5842 508.997 95.5842C509.469 95.5842 509.784 95.5056 509.941 95.3482C510.256 95.1908 510.571 95.0336 510.886 94.8762C511.043 94.7188 511.201 94.5612 511.358 94.4038C511.515 94.0891 511.673 93.8532 511.83 93.6958C511.83 93.381 511.83 93.1448 511.83 92.9874C511.83 92.6727 511.83 92.4368 511.83 92.2794C511.673 91.9646 511.515 91.7284 511.358 91.571C511.358 91.4136 511.201 91.2564 510.886 91.099C510.571 90.9416 510.256 90.784 509.941 90.6266C509.784 90.4693 509.469 90.312 508.997 90.1546C508.525 90.1546 507.895 89.997 507.108 89.6823C505.692 89.3675 504.669 89.0529 504.039 88.7382C503.724 88.5808 503.41 88.3446 503.095 88.0298C502.78 87.8724 502.544 87.6362 502.387 87.3215C502.229 87.0067 502.072 86.6922 501.914 86.3774C501.757 85.9052 501.678 85.5118 501.678 85.197C501.678 84.7248 501.757 84.3314 501.914 84.0166C502.072 83.5444 502.229 83.151 502.387 82.8362C502.701 82.5214 503.016 82.2066 503.331 81.8918C503.646 81.577 504.039 81.3409 504.512 81.1835C504.984 81.0261 505.456 80.8688 505.928 80.7114C506.4 80.7114 506.872 80.7114 507.345 80.7114C507.974 80.7114 508.604 80.7114 509.233 80.7114C509.706 80.8688 510.178 81.0261 510.65 81.1835C511.437 81.6556 512.145 82.2853 512.775 83.0722C512.932 83.387 513.089 83.7805 513.247 84.2526C513.404 84.7248 513.483 85.1969 513.483 85.669H511.358C511.358 85.1969 511.279 84.7248 511.122 84.2526C510.965 83.9378 510.729 83.623 510.414 83.3082C510.099 83.1509 509.706 82.9936 509.233 82.8362C508.761 82.6788 508.21 82.5999 507.581 82.5999C506.951 82.5999 506.4 82.6788 505.928 82.8362C505.456 82.8362 505.062 82.9935 504.748 83.3082C504.433 83.623 504.197 83.8592 504.039 84.0166C503.882 84.3314 503.803 84.6459 503.803 84.9607C503.803 85.5902 504.039 86.0626 504.512 86.3774C504.669 86.6922 504.983 86.9281 505.456 87.0854C506.085 87.2428 506.794 87.4004 507.581 87.5578C508.525 87.8726 509.312 88.1085 509.941 88.2658C510.414 88.4232 510.807 88.5808 511.122 88.7382C511.594 88.8956 512.066 89.1315 512.538 89.4462C512.853 89.761 513.089 90.0758 513.247 90.3906C513.719 91.0202 513.955 91.8071 513.955 92.7514C513.955 93.5383 513.719 94.3253 513.247 95.1122C512.932 95.5844 512.617 95.9778 512.302 96.2926C511.988 96.6074 511.594 96.8436 511.122 97.0009C510.65 97.1583 510.178 97.3156 509.705 97.473C509.076 97.6304 508.525 97.709 508.053 97.709C507.266 97.709 506.558 97.6304 505.928 97.473C505.298 97.3156 504.747 97.1583 504.275 97.0009C503.803 96.8436 503.41 96.6074 503.095 96.2926C502.623 95.8204 502.308 95.427 502.151 95.1122C501.521 94.1679 501.206 93.1448 501.206 92.0431ZM490.818 93.4598L492.943 93.6958C492.785 94.3253 492.549 94.8761 492.234 95.3482C491.92 95.8204 491.526 96.2138 491.054 96.5286C490.739 97.0008 490.267 97.3156 489.637 97.473C489.165 97.6304 488.536 97.709 487.749 97.709C486.962 97.709 486.254 97.5517 485.624 97.237C484.837 96.9222 484.207 96.5287 483.735 96.0566C483.263 95.427 482.869 94.7974 482.555 94.1678C482.397 93.3809 482.319 92.5153 482.319 91.571C482.319 90.4693 482.397 89.5251 482.555 88.7382C482.869 88.1086 483.263 87.479 483.735 86.8494C484.207 86.3773 484.837 85.9838 485.624 85.669C486.254 85.3543 486.962 85.197 487.749 85.197C488.536 85.197 489.244 85.3543 489.874 85.669C490.503 85.8264 491.054 86.2199 491.526 86.8494C491.999 87.3216 492.392 87.9512 492.707 88.7382C492.864 89.5251 492.943 90.3907 492.943 91.335C492.943 91.4924 492.943 91.571 492.943 91.571C492.943 91.7284 492.943 91.8857 492.943 92.0431H484.444C484.444 92.6726 484.522 93.2236 484.68 93.6958C484.837 94.1679 485.073 94.5614 485.388 94.8762C485.702 95.191 486.096 95.5058 486.568 95.8206C486.883 95.9779 487.276 96.0566 487.749 96.0566C488.221 96.0566 488.614 95.9779 488.929 95.8206C489.244 95.6632 489.48 95.5056 489.637 95.3482C490.11 95.0334 490.503 94.4041 490.818 93.4598ZM484.444 90.3906H490.818C490.818 89.7611 490.739 89.289 490.582 88.9742C490.582 88.6594 490.424 88.3446 490.11 88.0298C489.795 87.7151 489.48 87.4002 489.165 87.0854C488.693 86.9281 488.221 86.8494 487.749 86.8494C487.276 86.8494 486.883 86.9281 486.568 87.0854C486.096 87.2428 485.702 87.479 485.388 87.7938C485.073 88.1086 484.837 88.502 484.68 88.9742C484.522 89.289 484.444 89.7611 484.444 90.3906ZM470.514 97.473V80.9474H472.403V86.8494C472.875 86.3773 473.426 85.9838 474.055 85.669C474.528 85.3543 475.157 85.197 475.944 85.197C476.416 85.197 476.81 85.2756 477.124 85.433C477.439 85.433 477.754 85.5116 478.069 85.669C478.384 85.8264 478.698 86.0626 479.013 86.3774C479.171 86.5348 479.328 86.7707 479.485 87.0854C479.643 87.4002 479.722 87.7937 479.722 88.2658C479.879 88.738 479.958 89.289 479.958 89.9186V97.473H478.069V89.9186C478.069 89.289 477.99 88.8166 477.833 88.5019C477.675 88.1871 477.518 87.8726 477.361 87.5578C477.046 87.4004 476.81 87.2428 476.652 87.0854C476.338 86.9281 475.944 86.8494 475.472 86.8494C475.157 86.8494 474.921 86.9281 474.763 87.0854C474.449 87.0854 474.134 87.1641 473.819 87.3215C473.662 87.4789 473.426 87.7151 473.111 88.0298C472.954 88.1872 472.796 88.4234 472.639 88.7382C472.639 88.8956 472.56 89.2101 472.403 89.6823C472.403 89.997 472.403 90.3905 472.403 90.8627V97.473H470.514ZM461.07 97.473V82.8362H455.876V80.9474H468.625V82.8362H463.195V97.473H461.07Z" fill="#EC1C24"/>
<path d="M52.1555 125.566H0.451172V17.2061H108.818V68.9075C108.818 100.306 83.5559 125.566 52.1555 125.566Z" fill="#FFF100"/>
<path d="M55.2251 101.486H54.0446C52.1559 101.486 50.7393 99.8334 50.7393 97.9448V44.827C50.7393 42.9383 52.1559 41.2858 54.0446 41.2858H55.2251C57.1138 41.2858 58.7665 42.9383 58.7665 44.827V97.9448C58.7665 99.8334 57.1138 101.486 55.2251 101.486Z" fill="white"/>
<path d="M24.7686 71.9761V70.7957C24.7686 68.9071 26.1852 67.2545 28.0739 67.2545H81.195C83.0838 67.2545 84.7364 68.9071 84.7364 70.7957V71.9761C84.7364 73.8647 83.0838 75.5173 81.195 75.5173H28.0739C26.1852 75.5173 24.7686 73.8647 24.7686 71.9761Z" fill="white"/>
</svg>
