<svg width="807" height="110" viewBox="0 0 807 110" fill="none" xmlns="http://www.w3.org/2000/svg">
<path d="M401.998 45.3396V7.56689H387.067V43.2148V43.4508V43.6868V43.9229L386.834 44.1592V44.6312V44.8672L386.601 45.1033V45.3396L386.367 45.5756V45.8116L386.134 46.0476V46.2837L385.901 46.52H385.668L385.434 46.756V46.992L385.201 47.228L384.968 47.4641H384.734L384.501 47.7004L384.268 47.9364H384.034L383.801 48.1724H383.568L383.335 48.4084H383.101H382.868H382.635L382.401 48.6444H382.168H381.468L380.535 48.8808H379.835H379.135H378.202H377.502H376.802H375.869H375.169H374.469H373.536H372.836H372.136L371.203 48.6444H370.503H369.803L368.87 48.4084H368.637H368.404L368.17 48.1724H367.937L367.704 47.9364H367.47L367.237 47.7004H367.004L366.77 47.4641L366.537 47.228L366.304 46.992L366.071 46.756L365.838 46.52V46.2837L365.604 46.0476V45.8116V45.5756L365.371 45.3396V45.1033V44.8672L365.138 44.6312V44.3952V38.4932H351.373V46.52V46.992V47.228V47.7004V48.1724V48.4084V48.8808L351.606 49.1168V49.5888L351.84 49.8248V50.2972L352.073 50.5332V51.0052L352.306 51.2415V51.4776L352.54 51.9496L352.773 52.1856L353.006 52.4219V52.894L353.24 53.13L353.473 53.366L353.706 53.8384L353.939 54.0744L354.173 54.3104L354.406 54.5464L354.639 54.7827L354.872 55.0188L355.339 55.2548L355.572 55.4908L355.806 55.7268L356.039 55.9631L356.506 56.1992L356.739 56.4352L356.972 56.6712H357.439L357.672 56.9072L357.905 57.1435H358.372L358.605 57.3796H359.072L359.305 57.6156H359.772H360.005L360.472 57.8516L361.405 58.0876H362.338L363.271 58.3239L364.438 58.5599H365.371L366.304 58.796H367.47L368.404 59.032H369.337H370.27L371.436 59.268H372.37H373.303H374.469H375.403H377.502H378.435H379.369H380.535H381.468L382.401 59.032H383.568H384.501L385.434 58.796H386.367L387.534 58.5599H388.467L389.4 58.3239H390.567L391.5 58.0876H391.733L392.2 57.8516H392.667L392.9 57.6156H393.366L393.599 57.3796H394.066L394.533 57.1435L394.766 56.9072H395.233L395.466 56.6712L395.699 56.4352L396.166 56.1992L396.399 55.9631L396.866 55.7268L397.099 55.4908L397.332 55.2548L397.566 55.0188L398.032 54.7827L398.265 54.5464L398.499 54.3104L398.732 54.0744L398.965 53.6023L399.199 53.366L399.432 53.13L399.665 52.658L399.899 52.4219L400.132 51.9496L400.365 51.7136L400.598 51.2415L400.832 51.0052V50.7692L401.065 50.2972L401.298 49.8248V49.5888L401.532 49.1168V48.8808L401.765 48.4084V47.9364V47.7004L401.998 47.228V46.756V46.52V46.0476V45.5756V45.3396Z" fill="#0075A6"/>
<path fill-rule="evenodd" clip-rule="evenodd" d="M448.191 7.56702L468.954 59.2681H454.723L450.757 49.5889H423.228L419.262 59.2681H405.031L425.795 7.56702H448.191ZM446.791 39.2014L436.993 15.1214L427.428 39.2014H446.791Z" fill="#0075A6"/>
<path d="M487.152 16.0658L509.315 59.2681H533.344V7.56702H519.347V50.7693L496.95 7.56702H473.154V59.2681H487.152V16.0658Z" fill="#0075A6"/>
<path fill-rule="evenodd" clip-rule="evenodd" d="M580.47 7.56702L601.233 59.2681H587.002L583.036 49.5889H555.507L551.542 59.2681H537.311L558.074 7.56702H580.47ZM579.07 39.2014L569.272 15.1214L559.707 39.2014H579.07Z" fill="#0075A6"/>
<path d="M590.501 17.9543H613.131V59.2681H628.061V17.9543H650.691V7.56702H590.501V17.9543Z" fill="#0075A6"/>
<path d="M655.824 59.2681H670.755V7.56702H655.824V59.2681Z" fill="#0075A6"/>
<path d="M677.054 21.4955L676.82 21.7318V22.2038V22.6759V44.1593V44.6313V45.1034L677.054 45.3397V45.8117V46.0478V46.5201L677.287 46.9921V47.2282L677.52 47.7005V47.9365L677.754 48.4085V48.6446L677.987 49.1169L678.22 49.3529V49.825L678.454 50.0613L678.687 50.5333L678.92 50.7693L679.153 51.2417L679.387 51.4777L679.62 51.7137V51.9497L680.087 52.4221L680.32 52.6581L680.553 52.8941L680.787 53.1301L681.02 53.3662L681.253 53.6025L681.719 53.8385L681.953 54.0745L682.186 54.5466H682.653L682.886 54.7829L683.119 55.0189L683.586 55.2549L683.819 55.4909H684.286L684.519 55.7269L684.986 55.9633H685.219L685.686 56.1993H685.919L686.385 56.4353L687.319 56.6713L688.252 56.9073L689.418 57.1437L690.352 57.3797L691.285 57.6157L692.218 57.8517H693.384L694.317 58.0877L695.251 58.324H696.417L697.35 58.5601L698.284 58.7961H699.45H700.383L701.316 59.0321H702.483L703.416 59.2681H704.349H705.516H706.449H707.382H710.415H711.581H712.515H713.681L714.614 59.0321H715.547H716.714L717.647 58.7961H718.58L719.747 58.5601H720.68L721.613 58.324H722.78L723.713 58.0877L724.646 57.8517L725.812 57.6157L726.746 57.3797H727.679L728.612 57.1437L729.779 56.9073L730.712 56.4353L731.645 56.1993L732.578 55.9633H733.044L733.278 55.7269H733.744L733.978 55.4909H734.211L734.678 55.2549L734.911 55.0189H735.144L735.611 54.7829L735.844 54.5466L736.077 54.3105L736.311 54.0745L736.777 53.8385L737.011 53.6025L737.244 53.3662L737.477 53.1301L737.71 52.8941L737.944 52.6581L738.177 52.4221L738.41 51.9497L738.644 51.7137L738.877 51.4777L739.11 51.2417L739.344 50.7693V50.5333L739.577 50.2973L739.81 49.825V49.5889L740.043 49.3529V48.8809L740.277 48.6446V48.1725L740.51 47.9365V47.4642V47.2282L740.743 46.7561V46.5201V46.0478V45.8117V45.3397V45.1034V41.5622H726.746V42.5066V42.7426V42.9789V43.2149V43.4509V43.687L726.512 43.923V44.1593V44.3953L726.279 44.6313V44.8674L726.046 45.1034V45.3397H725.812V45.5757L725.579 45.8117H725.346L725.113 46.0478V46.2838H724.879L724.646 46.5201H724.413L724.179 46.7561H723.946H723.713L723.013 46.9921L722.313 47.2282L721.613 47.4642L720.68 47.7005L719.98 47.9365H719.28L718.347 48.1725H717.647L716.947 48.4085H716.014L715.314 48.6446H714.614L713.681 48.8809H712.981H712.281H711.348H710.648H709.948H709.015H708.315H707.615H706.682H705.982H705.283L704.349 48.6446H703.649H702.95L702.016 48.4085H701.316L700.617 48.1725L699.683 47.9365H698.983L698.284 47.7005L697.35 47.4642L696.65 47.2282H695.951L695.717 46.9921H695.484L695.251 46.7561H695.017L694.784 46.5201H694.551L694.317 46.2838H694.084L693.851 46.0478L693.618 45.8117L693.384 45.5757L693.151 45.3397L692.918 45.1034V44.8674L692.685 44.6313L692.451 44.3953V44.1593L692.218 43.923V43.687V43.4509L691.985 43.2149V42.9789V42.7426V42.5066L691.751 42.2705V41.7985V41.5622V25.273V25.0366V24.8006L691.985 24.3286V24.0926V23.8563V23.6202L692.218 23.3842V23.1482V22.9122L692.451 22.6759V22.4398L692.685 22.2038L692.918 21.9678V21.7318L693.151 21.4955L693.384 21.2594L693.618 21.0234L693.851 20.7874L694.084 20.5514H694.317L694.551 20.3151H694.784L695.017 20.079H695.251L695.484 19.843H695.717L695.951 19.607H696.65L697.35 19.371L698.284 19.1347L698.983 18.8986H699.683L700.617 18.6626L701.316 18.4266H702.016L702.95 18.1906H703.649H704.349L705.283 17.9543H705.982H706.682H707.615H708.315H710.648H711.348H712.281H712.981L713.681 18.1906H714.614H715.314L716.014 18.4266H716.947L717.647 18.6626H718.347L719.28 18.8986L719.98 19.1347H720.68L721.613 19.371L722.313 19.607L723.013 19.843L723.713 20.079H723.946H724.179L724.413 20.3151H724.646L724.879 20.5514H725.113V20.7874H725.346L725.579 21.0234L725.812 21.2594V21.4955H726.046V21.7318L726.279 21.9678V22.2038L726.512 22.4398V22.6759V22.9122L726.746 23.1482V23.3842V23.6202V23.8563V24.0926V24.3286V25.273H740.743V21.7318V21.4955V21.0234V20.7874V20.3151V20.079L740.51 19.607V19.371V18.8986L740.277 18.6626V18.1906L740.043 17.9543V17.4822L739.81 17.2462V17.0102L739.577 16.5379L739.344 16.3018V16.0658L739.11 15.5935L738.877 15.3575L738.644 15.1214L738.41 14.6494L738.177 14.4131L737.944 14.1771L737.71 13.941L737.477 13.705L737.244 13.469L737.011 13.2327L736.777 12.9967L736.311 12.7606L736.077 12.5246L735.844 12.2886L735.611 12.0523H735.144L734.911 11.8163L734.678 11.5802L734.211 11.3442H733.978L733.744 11.1082H733.278L733.044 10.8719H732.578L731.645 10.6359L730.712 10.3999L729.779 9.92781L728.612 9.6915H727.679L726.746 9.45548L725.812 9.21946L724.646 8.98343L723.713 8.74741L722.78 8.5111H721.613L720.68 8.27508H719.747L718.58 8.03906H717.647L716.714 7.80304H715.547H714.614L713.681 7.56702H712.515H711.581H710.415H709.482H708.548H707.382H706.449H705.516H704.349L703.416 7.80304H702.483H701.316H700.383L699.45 8.03906H698.284L697.35 8.27508L696.417 8.5111H695.251L694.317 8.74741L693.384 8.98343L692.218 9.21946H691.285L690.352 9.45548L689.418 9.6915L688.252 9.92781L687.319 10.1638L686.385 10.3999L685.919 10.6359H685.686L685.219 10.8719H684.986L684.519 11.1082L684.286 11.3442H683.819L683.586 11.5802L683.119 11.8163L682.886 12.0523L682.653 12.2886L682.186 12.5246H681.953L681.719 12.7606L681.253 13.2327L681.02 13.469L680.787 13.705L680.553 13.941L680.32 14.1771L680.087 14.4131L679.62 14.8854V15.1214L679.387 15.3575L679.153 15.8298L678.92 16.0658L678.687 16.3018L678.454 16.7739L678.22 17.0102V17.4822L677.987 17.7182L677.754 18.1906V18.4266L677.52 18.8986V19.1347L677.287 19.607V19.843L677.054 20.3151V20.7874V21.0234V21.4955Z" fill="#0075A6"/>
<path d="M748.909 15.3575L748.676 15.8298V16.0658L748.443 16.5379L748.209 16.7739L747.976 17.2462V17.4822L747.743 17.9543L747.51 18.1906V18.6626L747.276 18.8986V19.371V19.843L747.043 20.079V20.5514V21.0234V21.2594V21.7318L746.81 22.2038V24.0926L747.043 24.3286V24.8006V25.273V25.509V25.981L747.276 26.4534V26.6894V27.1614L747.51 27.3974V27.8698L747.743 28.1058L747.976 28.5778V29.0502L748.209 29.2862L748.443 29.7582L748.676 29.9945V30.2306L748.909 30.7026L749.143 30.9386L749.376 31.411L749.609 31.647L749.843 31.883L750.076 32.3553L750.309 32.5914L750.776 32.8274L751.009 33.0634L751.242 33.2994L751.475 33.5357L751.942 33.7718L752.175 34.0078L752.409 34.2438L752.875 34.4798L753.109 34.7161L753.575 34.9521L753.808 35.1882H754.042L754.508 35.4242L754.742 35.6602H755.208L755.675 35.8965H755.908L756.375 36.1325H756.608L757.775 36.3686L758.708 36.6046L759.641 36.8406L760.807 37.0769L761.741 37.3129H762.674L763.84 37.549L764.773 37.785H765.706L766.873 38.021H767.806L768.739 38.2573H769.906H770.839L771.772 38.4933H772.939H773.872H775.038H775.972H782.97H783.67L784.37 38.7294H785.07H786.003H786.703H787.403L788.103 38.9654H788.336H788.57H788.803L789.036 39.2014H789.27H789.503L789.736 39.4377H789.969L790.202 39.6737L790.436 39.9098H790.669L790.902 40.1458V40.3818L791.136 40.6181H791.369V40.8541L791.602 41.0902V41.3262V41.5622L791.836 41.7985V42.0345V42.2705L792.069 42.5066V42.7426V42.9789V43.4509V43.687V43.923V44.1593L791.836 44.3953V44.6313V44.8674L791.602 45.1034V45.3397L791.369 45.5757V45.8117H791.136V46.0478L790.902 46.2838L790.669 46.5201L790.436 46.7561L790.202 46.9921H789.969L789.736 47.2282H789.503L789.27 47.4642H789.036H788.803L788.103 47.7005L787.17 47.9365H786.47L785.77 48.1725L785.07 48.4085H784.37L783.437 48.6446H782.737H782.037L781.337 48.8809H780.404H779.704H779.004H778.071H777.371H776.672H775.972H775.038H774.339H773.639H772.705L772.006 48.6446H771.306H770.606L769.673 48.4085H768.973L768.273 48.1725H767.573L766.873 47.9365L765.94 47.7005L765.24 47.4642H764.54L763.84 47.2282L763.14 46.9921H762.907L762.674 46.7561H762.441L762.207 46.5201H761.974V46.2838H761.741V46.0478H761.507V45.8117L761.274 45.5757V45.3397H761.041V45.1034V44.8674V44.6313H760.807V44.3953V44.1593V43.923V43.2149H746.81V45.8117L747.043 46.2838V46.7561V46.9921V47.4642V47.7005L747.276 48.1725V48.4085V48.8809L747.51 49.1169V49.5889L747.743 49.825L747.976 50.2973V50.5333L748.209 50.7693L748.443 51.2417V51.4777L748.676 51.7137L748.909 52.1858L749.143 52.4221L749.376 52.6581L749.609 52.8941L749.843 53.3662L750.076 53.6025L750.309 53.8385L750.542 54.0745L750.776 54.3105L751.242 54.5466L751.475 54.7829L751.709 55.0189L751.942 55.2549H752.409L752.642 55.4909L752.875 55.7269L753.342 55.9633H753.575L754.042 56.1993H754.275L754.742 56.4353H754.975L755.442 56.6713L756.375 56.9073L757.308 57.1437L758.241 57.3797L759.174 57.6157H760.341L761.274 57.8517L762.207 58.0877L763.14 58.324H764.307L765.24 58.5601H766.173L767.34 58.7961H768.273L769.206 59.0321H770.139H771.306L772.239 59.2681H773.172H774.339H775.272H778.304H779.238H780.404H781.337H782.271L783.204 59.0321H784.37H785.303L786.237 58.7961H787.403L788.336 58.5601H789.27L790.436 58.324L791.369 58.0877L792.302 57.8517H793.235L794.402 57.6157L795.335 57.3797L796.268 57.1437L797.201 56.9073H797.668L797.901 56.6713H798.368L798.835 56.4353H799.068L799.534 56.1993L799.768 55.9633H800.234L800.468 55.7269L800.701 55.4909L801.168 55.2549L801.401 55.0189L801.867 54.7829L802.101 54.5466L802.334 54.3105L802.8 54.0745L803.034 53.8385L803.267 53.6025L803.5 53.3662L803.734 52.8941L803.967 52.6581L804.2 52.4221L804.434 51.9497L804.667 51.7137L804.9 51.4777L805.133 51.0054L805.367 50.7693L805.6 50.2973L805.833 50.0613V49.5889L806.067 49.3529L806.3 48.8809V48.6446L806.533 48.1725V47.9365L806.767 47.4642V46.9921V46.7561L807 46.2838V45.8117V45.5757V45.1034V44.6313V42.7426V42.5066V42.0345V41.5622V41.3262L806.767 40.8541V40.6181V40.1458L806.533 39.6737V39.4377L806.3 38.9654V38.4933L806.067 38.2573L805.833 37.785V37.549L805.6 37.0769L805.367 36.8406L805.133 36.6046L804.9 36.1325L804.667 35.8965L804.434 35.4242L804.2 35.1882L803.967 34.9521L803.734 34.4798L803.5 34.2438L803.267 34.0078L803.034 33.7718L802.8 33.5357L802.334 33.2994L802.101 33.0634L801.867 32.8274L801.401 32.5914L801.168 32.3553L800.701 32.119L800.468 31.883L800.234 31.647H799.768L799.534 31.411L799.068 31.1749H798.835L798.368 30.9386H797.901L797.668 30.7026H797.201L796.268 30.4666L795.335 30.2306L794.169 29.9945L793.235 29.7582L792.302 29.5222H791.136L790.202 29.2862L789.27 29.0502H788.103L787.17 28.8141H786.237L785.07 28.5778H784.137L783.204 28.3418H782.037H781.104H779.938H779.004H778.071H770.372L769.439 28.1058H768.739H768.039H767.34H766.406L765.706 27.8698H765.473H765.24H765.007H764.773V27.6337H764.54L764.307 27.3974H764.073L763.84 27.1614H763.607L763.373 26.9254L763.14 26.6894L762.907 26.4534L762.674 26.217V25.981L762.441 25.745V25.509H762.207V25.273L761.974 25.0366V24.8006V24.5646V24.3286V24.0926V23.8563V23.3842V23.1482V22.9122V22.6759V22.4398V22.2038L762.207 21.9678V21.7318L762.441 21.4955V21.2594L762.674 21.0234V20.7874H762.907L763.14 20.5514V20.3151H763.373L763.607 20.079L763.84 19.843L764.073 19.607H764.307H764.54L764.773 19.371H765.007H765.24L765.94 19.1347L766.64 18.8986H767.34L768.273 18.6626L768.973 18.4266H769.673L770.372 18.1906H771.306H772.006L772.705 17.9543H773.405H774.339H775.038H775.738H778.071H778.771H779.471H780.404H781.104L781.804 18.1906H782.737H783.437L784.137 18.4266H784.837L785.77 18.6626H786.47L787.17 18.8986L787.87 19.1347L788.57 19.371H789.503L790.202 19.607L790.902 19.843H791.136V20.079H791.369H791.602L791.836 20.3151L792.069 20.5514L792.302 20.7874L792.535 21.0234V21.2594H792.769V21.4955L793.002 21.7318V21.9678V22.2038V22.4398V22.6759V23.6202H807V21.0234V20.5514V20.079V19.843V19.371L806.767 19.1347V18.6626V18.4266L806.533 17.9543V17.7182L806.3 17.2462V17.0102L806.067 16.5379L805.833 16.3018V16.0658L805.6 15.5935L805.367 15.3575L805.133 15.1214L804.9 14.6494V14.4131L804.667 14.1771L804.434 13.941L804.2 13.469L803.734 13.2327L803.5 12.9967L803.267 12.7606L803.034 12.5246L802.8 12.2886L802.567 12.0523L802.101 11.8163L801.867 11.5802H801.634L801.168 11.3442L800.934 11.1082L800.701 10.8719H800.234L800.001 10.6359H799.534L799.301 10.3999H798.835L798.601 10.1638L797.668 9.92781L796.735 9.6915L795.568 9.45548L794.635 9.21946H793.702L792.769 8.98343L791.602 8.74741L790.669 8.5111H789.736L788.803 8.27508H787.636L786.703 8.03906H785.77L784.604 7.80304H783.67H782.737L781.804 7.56702H780.637H779.704H778.771H777.605H776.672H775.738H774.572H773.639H772.705H771.539L770.606 7.80304H769.673H768.506L767.573 8.03906H766.64L765.706 8.27508L764.54 8.5111H763.607L762.674 8.74741L761.507 8.98343H760.574L759.641 9.21946L758.708 9.45548L757.775 9.6915L756.608 9.92781H756.375L755.908 10.1638H755.675L755.208 10.3999H754.742L754.508 10.6359L754.042 10.8719L753.808 11.1082H753.575L753.109 11.3442L752.875 11.5802L752.409 11.8163L752.175 12.0523L751.942 12.2886L751.475 12.5246L751.242 12.7606L751.009 12.9967L750.776 13.2327L750.309 13.469L750.076 13.941L749.843 14.1771L749.609 14.4131L749.376 14.8854L749.143 15.1214L748.909 15.3575Z" fill="#0075A6"/>
<path d="M51.822 109.317H0.730469V0.956787H107.813V52.6582C107.813 84.0567 82.8503 109.317 51.822 109.317Z" fill="#0075A6"/>
<path d="M54.8555 85.2368H53.689C51.8227 85.2368 50.4229 83.5843 50.4229 81.6957V28.5778C50.4229 26.6892 51.8227 25.2729 53.689 25.2729H54.8555C56.7219 25.2729 58.355 26.6892 58.355 28.5778V81.6957C58.355 83.5843 56.7219 85.2368 54.8555 85.2368Z" fill="white"/>
<path d="M24.7598 55.727V54.5466C24.7598 52.6579 26.1596 51.0054 28.026 51.0054H80.5174C82.3838 51.0054 84.0169 52.6579 84.0169 54.5466V55.727C84.0169 57.6156 82.3838 59.2681 80.5174 59.2681H28.026C26.1596 59.2681 24.7598 57.6156 24.7598 55.727Z" fill="white"/>
</svg>
