<svg width="817" height="161" viewBox="0 0 817 161" fill="none" xmlns="http://www.w3.org/2000/svg">
<path fill-rule="evenodd" clip-rule="evenodd" d="M601.074 70.5632C601.074 84.0197 591.394 95.1155 577.701 95.1155C572.271 95.1155 566.604 93.2268 563.063 89.2135V116.363H546.536V46.9552H563.063V52.3852H563.299C566.368 47.6636 572.034 45.5388 577.464 45.5388C591.394 45.5388 601.074 57.1066 601.074 70.5632ZM583.839 70.3271C583.839 64.6612 580.062 59.9396 573.215 59.9396C566.604 59.9396 562.591 64.6612 562.591 70.3271C562.591 76.2291 566.604 80.9507 573.215 80.9507C580.062 80.9507 583.839 76.2291 583.839 70.3271Z" fill="#231F20"/>
<path fill-rule="evenodd" clip-rule="evenodd" d="M705.663 70.3271C705.663 86.1444 692.678 95.1155 677.804 95.1155C662.694 95.1155 649.709 86.3805 649.709 70.3271C649.709 54.5098 662.694 45.5388 677.804 45.5388C692.678 45.5388 705.663 54.5098 705.663 70.3271ZM688.428 70.3271C688.428 64.6612 684.415 59.9396 677.804 59.9396C670.957 59.9396 666.944 64.6612 666.944 70.3271C666.944 76.2291 670.957 80.9507 677.804 80.9507C684.415 80.9507 688.428 76.2291 688.428 70.3271Z" fill="#231F20"/>
<path fill-rule="evenodd" clip-rule="evenodd" d="M449.738 71.5075V73.1603H414.796C414.796 79.7705 418.337 83.5475 425.184 83.5475C428.725 83.5475 431.322 82.3673 433.211 79.2983H449.03C446.433 90.1579 436.045 95.1155 425.42 95.1155C409.838 95.1155 398.27 86.6166 398.27 70.3271C398.27 54.982 408.894 45.5388 424.24 45.5388C440.294 45.5388 449.738 55.4541 449.738 71.5075ZM434.392 63.4808C433.447 59.2314 429.434 56.1624 424.948 56.1624C420.226 56.1624 416.213 58.7592 415.268 63.4808H434.392Z" fill="#231F20"/>
<path d="M520.33 45.5388C513.955 45.5388 507.817 48.608 504.512 54.5099C501.206 48.1358 495.54 45.5388 488.693 45.5388C482.791 45.5388 477.833 47.6635 474.056 52.8572H473.82V46.9552H457.293V93.699H473.82V71.5075C473.82 66.3138 473.819 58.2872 481.138 58.2872C488.457 58.2872 488.457 66.3138 488.457 71.5075V93.699H504.984V71.5075C504.984 65.8416 505.456 58.7592 513.011 58.7592C520.094 58.7592 519.858 66.5499 519.858 71.5075V93.699H536.384V63.9531C536.384 53.3295 532.135 45.5388 520.33 45.5388Z" fill="#231F20"/>
<path d="M605.795 70.7995C605.795 84.9642 617.364 95.1155 631.057 95.1155C635.071 95.1155 639.084 94.4073 642.862 92.5186V78.5899C640.501 80.4785 637.432 81.6591 634.599 81.6591C627.752 81.6591 622.794 76.9374 622.794 70.3271C622.794 63.953 627.988 58.9955 634.126 58.9955C637.431 58.9955 640.265 60.4118 642.862 62.3004V48.1356C639.556 46.4831 635.779 45.5388 631.765 45.5388C617.127 45.5388 605.795 55.9265 605.795 70.7995Z" fill="#231F20"/>
<path fill-rule="evenodd" clip-rule="evenodd" d="M705.663 70.3271C705.663 86.1444 692.678 95.1155 677.804 95.1155C662.694 95.1155 649.709 86.3805 649.709 70.3271C649.709 54.5098 662.694 45.5388 677.804 45.5388C692.678 45.5388 705.663 54.5098 705.663 70.3271ZM688.428 70.3271C688.428 64.6612 684.415 59.9396 677.804 59.9396C670.957 59.9396 666.944 64.6612 666.944 70.3271C666.944 76.2291 670.957 80.9507 677.804 80.9507C684.415 80.9507 688.428 76.2291 688.428 70.3271Z" fill="#231F20"/>
<path d="M815.211 93.463H712.746L763.978 1.62817L815.211 93.463Z" fill="#ED3437"/>
<path fill-rule="evenodd" clip-rule="evenodd" d="M751.465 46.9553C749.34 46.9553 747.688 45.3028 747.688 43.1781C747.688 41.2895 749.34 39.4009 751.465 39.4009C753.354 39.4009 755.242 41.2895 755.242 43.1781C755.242 45.3028 753.354 46.9553 751.465 46.9553ZM751.465 41.5256C750.521 41.5256 749.812 42.4699 749.812 43.1781C749.812 44.1224 750.521 44.8308 751.465 44.8308C752.409 44.8308 753.117 44.1224 753.117 43.1781C753.117 42.4699 752.409 41.5256 751.465 41.5256Z" fill="white"/>
<path d="M771.533 46.2472C770.589 45.0668 768.936 44.1225 767.284 44.1225C764.214 44.1225 762.09 46.4834 762.09 49.5524C762.09 52.3854 764.214 54.51 767.284 54.51C768.936 54.51 770.353 53.8017 771.533 52.6213V58.5232C769.881 58.9954 768.7 59.2316 767.048 59.2316C764.451 59.2316 762.09 58.2873 760.201 56.6348C758.076 54.7461 757.132 52.149 757.132 49.3161C757.132 46.9553 758.076 44.3587 759.729 42.47C761.618 40.5814 764.451 39.4009 767.048 39.4009C768.464 39.4009 770.117 39.8731 771.533 40.3453V46.2472Z" fill="white"/>
<path fill-rule="evenodd" clip-rule="evenodd" d="M739.661 73.8684C737.536 73.8684 736.119 72.2159 736.119 70.0912C735.883 67.9665 737.536 66.314 739.661 66.314C741.785 66.314 743.438 67.9665 743.438 70.0912C743.438 72.2159 741.785 73.8684 739.661 73.8684ZM739.661 68.4387C738.952 68.4387 738.008 69.1469 738.244 70.0912C738.244 71.0355 738.952 71.7436 739.661 71.7436C740.605 71.7436 741.313 71.0355 741.313 70.0912C741.313 69.1469 740.605 68.4387 739.661 68.4387Z" fill="white"/>
<path d="M751.23 71.0357V74.1045H756.66V78.1181H751.23V85.6725H746.271V66.7861H757.132V71.0357H751.23Z" fill="white"/>
<path d="M787.823 66.7861H793.962L786.407 75.7573L794.67 85.6725H788.296L781.921 77.4097V85.6725H776.963V66.7861H781.921V74.5769L787.823 66.7861Z" fill="white"/>
<path d="M734.466 25.2362H387.645V6.34985H369.938V25.2362H355.3V40.3453H369.938V93.6992H387.645V40.3453H726.203L734.466 25.2362Z" fill="#231F20"/>
<path d="M375.368 117.779C373.007 116.126 369.23 115.418 366.396 115.418C360.73 115.418 356.48 119.196 356.48 125.098C356.48 130.528 359.55 131.708 364.271 133.124C365.924 133.596 368.757 134.305 368.757 136.429C368.757 138.554 366.869 139.262 365.216 139.262C362.619 139.262 360.494 138.082 358.605 136.429L355.3 142.331C358.369 144.456 361.911 145.636 365.452 145.636C368.285 145.636 371.354 144.928 373.715 143.04C375.84 140.915 376.548 138.082 376.548 135.249C376.548 130.527 373.479 128.639 369.465 127.222L367.577 126.75C366.396 126.278 364.271 125.806 364.271 123.917C364.271 122.501 366.16 121.557 367.577 121.557C369.23 121.557 371.118 122.265 372.535 123.445L375.368 117.779Z" fill="#231F20"/>
<path fill-rule="evenodd" clip-rule="evenodd" d="M497.901 128.875C496.956 127.931 495.54 127.459 494.123 127.459C493.179 127.459 491.762 127.931 491.762 129.347C491.762 130.527 493.415 131 494.359 131.236L495.776 131.708C498.845 132.652 500.97 134.069 500.97 137.61C500.97 139.735 500.498 142.095 498.845 143.512C497.192 144.928 494.832 145.401 492.707 145.401C489.874 145.401 487.276 144.692 485.152 143.04L487.513 138.554C488.929 139.735 490.582 140.679 492.47 140.679C493.887 140.679 495.304 139.971 495.304 138.554C495.304 136.902 492.943 136.43 491.762 136.193C488.221 135.013 485.86 134.069 485.86 130.055C485.86 125.57 489.165 122.737 493.415 122.737C495.54 122.737 498.137 123.445 500.262 124.389L497.901 128.875ZM483.971 145.165H476.888L471.694 136.665V145.165H466.028V123.445H474.291C478.777 123.445 481.846 125.57 481.846 130.055C481.846 133.124 480.194 135.721 477.124 136.193L483.971 145.165ZM471.694 133.124H472.166C474.055 133.124 476.18 132.888 476.18 130.527C476.18 128.167 474.055 127.931 472.166 127.931H471.694V133.124ZM462.959 133.833C462.959 140.679 458.001 145.637 450.918 145.637C444.071 145.637 439.113 140.679 439.113 133.833C439.113 127.222 444.78 122.501 450.918 122.501C457.293 122.501 462.959 127.222 462.959 133.833ZM444.78 133.833C444.78 137.61 447.613 140.207 450.918 140.207C454.459 140.207 457.056 137.61 457.056 133.833C457.056 130.764 454.459 128.167 450.918 128.167C447.613 128.167 444.78 130.764 444.78 133.833ZM433.919 128.875C432.975 127.931 431.558 127.459 430.142 127.459C429.198 127.459 427.781 128.167 427.781 129.347C427.781 130.527 429.198 131 430.142 131.236L431.794 131.708C434.628 132.652 436.988 134.069 436.988 137.61C436.988 139.735 436.516 142.095 434.864 143.512C433.211 144.928 430.85 145.637 428.725 145.637C425.892 145.637 423.295 144.692 420.934 143.04L423.531 138.554C424.948 139.735 426.6 140.679 428.489 140.679C429.67 140.679 431.086 140.207 431.086 138.554C431.086 136.902 428.961 136.43 427.781 136.193C424.24 135.013 421.879 134.305 421.879 130.055C421.879 125.57 424.948 122.737 429.433 122.737C431.558 122.737 434.155 123.445 436.044 124.626L433.919 128.875ZM396.38 123.209H402.047L412.435 136.429V123.209H418.101V144.928H412.435L402.047 131.472V144.928H396.38V123.209ZM385.756 127.931V131.472H392.131V136.193H385.756V139.971H392.603V144.692H380.09V123.209H392.603V127.931H385.756Z" fill="#231F20"/>
<path d="M537.328 117.779C534.731 116.126 531.189 115.418 528.356 115.418C522.454 115.418 518.44 119.196 518.44 125.098C518.44 130.528 521.51 131.708 526.231 133.124C527.648 133.596 530.717 134.305 530.717 136.429C530.717 138.554 528.829 139.262 526.94 139.262C524.579 139.262 522.218 138.082 520.329 136.429L517.26 142.331C520.093 144.456 523.634 145.636 527.412 145.636C530.245 145.636 533.314 144.928 535.439 143.04C537.8 140.915 538.508 138.082 538.508 135.249C538.508 130.527 535.439 128.639 531.425 127.222L529.537 126.75C528.12 126.278 526.231 125.806 526.231 123.917C526.231 122.501 527.884 121.557 529.301 121.557C531.19 121.557 532.842 122.265 534.259 123.445L537.328 117.779Z" fill="#231F20"/>
<path d="M655.848 124.389C653.959 123.445 651.126 122.737 649.001 122.737C644.751 122.737 641.446 125.57 641.446 130.055C641.446 134.069 643.807 135.013 647.348 136.193C648.529 136.429 650.89 136.902 650.89 138.554C650.89 139.971 649.473 140.679 648.057 140.679C646.168 140.679 644.515 139.735 643.099 138.554L640.738 143.04C642.863 144.692 645.459 145.401 648.293 145.401C650.417 145.401 652.779 144.928 654.431 143.512C656.084 142.095 656.556 139.735 656.556 137.61C656.556 134.069 654.431 132.652 651.362 131.708L649.945 131.236C649.001 131 647.348 130.527 647.348 129.347C647.348 127.931 648.765 127.459 649.709 127.459C651.126 127.459 652.542 127.931 653.487 128.875L655.848 124.389ZM611.934 144.692H617.364L619.253 132.416L624.211 144.692H626.572L631.766 132.416L633.419 144.692H638.849L635.78 123.209H630.113L625.392 134.777L621.142 123.209H615.476L611.934 144.692ZM609.337 127.695V122.973H597.06V144.692H609.337V139.971H602.727V136.193H609.101V131.472H602.727V127.695H609.337ZM589.742 127.695H594.463V122.973H579.589V127.695H584.311V144.692H589.742V127.695ZM577.228 124.153C575.34 122.973 572.743 122.265 570.382 122.265C566.132 122.265 563.063 125.098 563.063 129.583C563.063 133.832 565.424 134.777 568.965 135.721C570.146 135.957 572.271 136.666 572.271 138.082C572.271 139.735 570.854 140.443 569.437 140.443C567.549 140.443 565.896 139.263 564.479 138.082L562.118 142.567C564.243 144.22 567.077 145.165 569.674 145.165C572.034 145.165 574.159 144.456 575.812 143.04C577.701 141.623 578.173 139.499 578.173 137.138C578.173 133.833 575.812 132.18 572.743 131.236L571.326 131C570.382 130.528 568.965 130.055 568.965 128.875C568.965 127.695 570.146 126.986 571.326 126.986C572.743 126.986 573.923 127.694 575.104 128.403L577.228 124.153ZM547.717 134.305V144.692H553.383V134.305L561.174 122.973H554.563L550.55 128.875L546.536 122.973H539.689L547.717 134.305Z" fill="#231F20"/>
<path d="M692.914 117.779C690.317 116.126 686.775 115.418 683.942 115.418C678.04 115.418 674.026 119.196 674.026 125.098C674.026 130.528 677.096 131.708 681.817 133.124C683.234 133.596 686.303 134.305 686.303 136.429C686.303 138.554 684.414 139.262 682.762 139.262C680.165 139.262 677.804 138.082 675.915 136.429L672.846 142.331C675.679 144.456 679.22 145.636 682.998 145.636C685.831 145.636 688.9 144.928 691.025 143.04C693.386 140.915 694.094 138.082 694.094 135.249C694.094 130.527 691.025 128.639 687.011 127.222L685.123 126.75C683.706 126.278 681.817 125.806 681.817 123.917C681.817 122.501 683.47 121.557 684.886 121.557C686.775 121.557 688.428 122.265 689.845 123.445L692.914 117.779Z" fill="#231F20"/>
<path fill-rule="evenodd" clip-rule="evenodd" d="M812.85 128.875C811.905 127.931 810.489 127.459 809.072 127.459C808.128 127.459 806.711 127.931 806.711 129.347C806.711 130.528 808.128 131 809.072 131.236L810.725 131.708C813.558 132.652 815.919 134.069 815.919 137.61C815.919 139.735 815.447 142.095 813.794 143.512C812.141 144.928 809.78 145.401 807.655 145.401C804.822 145.401 802.225 144.692 799.864 143.04L802.461 138.554C803.878 139.735 805.531 140.679 807.419 140.679C808.6 140.679 810.016 139.971 810.016 138.554C810.016 136.902 807.892 136.43 806.711 136.193C803.17 135.013 800.809 134.069 800.809 130.055C800.809 125.57 803.878 122.737 808.364 122.737C810.489 122.737 813.086 123.445 814.975 124.389L812.85 128.875ZM790.421 128.167V131.708H796.795V136.666H790.421V140.207H797.031V145.165H784.754V123.445H797.031V128.167H790.421ZM780.977 130.764C779.796 129.111 777.908 128.403 776.019 128.403C772.714 128.403 770.353 131 770.353 134.305C770.353 137.61 772.714 140.207 776.255 140.207C777.908 140.207 779.796 139.262 780.977 137.846V144.692C779.088 145.164 777.908 145.637 776.019 145.637C772.95 145.637 770.117 144.456 767.992 142.331C765.631 140.207 764.45 137.374 764.45 134.305C764.45 131.236 765.631 128.403 767.519 126.278C769.644 124.154 772.95 122.737 775.783 122.737C777.671 122.737 779.324 123.209 780.977 123.917V130.764ZM761.381 145.165H755.715V123.445H761.381V145.165ZM742.494 136.666L747.924 123.681H754.062L744.618 145.165H740.369L731.161 123.681H737.3L742.494 136.666ZM731.869 145.165H725.023L719.593 136.666V145.165H713.926V123.445H722.426C726.675 123.445 729.981 125.57 729.981 130.055C729.981 133.124 728.328 135.721 725.259 136.193L731.869 145.165ZM719.357 133.124H720.065C721.717 133.124 723.842 132.888 723.842 130.528C723.842 128.167 721.717 127.931 720.065 127.931H719.357V133.124ZM703.302 128.167V131.708H709.44V136.429H703.302V140.207H709.913V144.928H697.636V123.445H709.913V128.167H703.302Z" fill="#231F20"/>
<path fill-rule="evenodd" clip-rule="evenodd" d="M802.462 0.447754C806.475 0.447754 809.781 2.10019 812.378 4.46099C814.975 7.05786 816.391 10.5992 816.391 14.3765C816.391 18.1538 814.975 21.6949 812.378 24.0557C809.781 26.6525 806.475 28.3052 802.462 28.3052C798.684 28.3052 795.143 26.6525 792.782 24.0557C790.185 21.6949 788.532 18.1538 788.532 14.3765C788.532 10.5992 790.185 7.05786 792.782 4.46099C795.143 2.10019 798.684 0.447754 802.462 0.447754ZM810.725 6.11371C808.6 4.22508 805.767 2.80855 802.462 2.80855C799.393 2.80855 796.559 4.22508 794.435 6.11371C792.31 8.23843 791.129 11.0714 791.129 14.3765C791.129 17.4455 792.31 20.5146 794.435 22.4032C796.559 24.5279 799.393 25.9444 802.462 25.9444C805.767 25.9444 808.6 24.5279 810.725 22.4032C812.85 20.5146 814.03 17.4455 814.03 14.3765C814.03 11.0714 812.85 8.23843 810.725 6.11371Z" fill="#231F20"/>
<path fill-rule="evenodd" clip-rule="evenodd" d="M796.56 20.9865V7.76611H802.226C803.642 7.76611 804.665 7.84475 805.295 8.00213C805.925 8.31691 806.476 8.71037 806.948 9.18253C807.263 9.81208 807.42 10.5204 807.42 11.3073C807.42 12.409 807.105 13.2746 806.475 13.9041C806.003 14.5337 805.138 14.9271 803.878 15.0845C804.508 15.3993 804.98 15.7927 805.295 16.2649C805.767 16.7371 806.318 17.4454 806.948 18.3897L808.6 20.9865H805.295L803.406 18.1537C802.619 17.052 802.147 16.3437 801.99 16.0289C801.675 15.8715 801.36 15.7142 801.045 15.5568C800.888 15.5568 800.495 15.5568 799.865 15.5568H799.157V20.9865H796.56ZM799.393 13.4321H801.281C802.541 13.4321 803.328 13.3534 803.642 13.1961C804.115 13.0387 804.429 12.8025 804.587 12.4877C804.744 12.3303 804.823 12.0155 804.823 11.5433C804.823 11.0712 804.666 10.7566 804.351 10.5992C804.193 10.2845 803.879 10.0483 803.406 9.89088C803.249 9.89088 802.619 9.89088 801.517 9.89088H799.393V13.4321Z" fill="#231F20"/>
<path d="M537.565 157.677C537.88 157.677 538.195 157.834 538.509 158.149C538.824 158.306 538.982 158.621 538.982 159.093C538.982 159.408 538.824 159.723 538.509 160.037C538.195 160.352 537.88 160.51 537.565 160.51C537.093 160.51 536.7 160.352 536.385 160.037C536.227 159.723 536.148 159.408 536.148 159.093C536.148 158.621 536.227 158.306 536.385 158.149C536.7 157.834 537.093 157.677 537.565 157.677Z" fill="#231F20"/>
<path d="M542.758 157.677C543.073 157.677 543.388 157.834 543.703 158.149C544.018 158.306 544.175 158.621 544.175 159.093C544.175 159.408 544.018 159.723 543.703 160.037C543.388 160.352 543.073 160.51 542.758 160.51C542.286 160.51 541.971 160.352 541.814 160.037C541.499 159.723 541.342 159.408 541.342 159.093C541.342 158.621 541.499 158.306 541.814 158.149C541.971 157.834 542.286 157.677 542.758 157.677Z" fill="#231F20"/>
<path d="M52.1555 148.942H0.451172V40.5813H108.818V92.2827C108.818 123.681 83.5559 148.942 52.1555 148.942Z" fill="#ED3437"/>
<path d="M55.2251 124.861H54.0446C52.1559 124.861 50.7393 123.209 50.7393 121.32V68.2024C50.7393 66.3138 52.1559 64.8975 54.0446 64.8975H55.2251C57.1138 64.8975 58.7665 66.3138 58.7665 68.2024V121.32C58.7665 123.209 57.1138 124.861 55.2251 124.861Z" fill="white"/>
<path d="M24.7686 95.3515V94.1711C24.7686 92.2825 26.1852 90.6299 28.0739 90.6299H81.195C83.0838 90.6299 84.7364 92.2825 84.7364 94.1711V95.3515C84.7364 97.2402 83.0838 98.8927 81.195 98.8927H28.0739C26.1852 98.8927 24.7686 97.2402 24.7686 95.3515Z" fill="white"/>
</svg>
