<svg version="1.2" xmlns="http://www.w3.org/2000/svg" viewBox="0 0 162 93" width="162" height="93">
	<title>_Group_</title>
	<style>
		tspan { white-space:pre } 
		.t0 { font-size: 13px;fill: #ef8c27;font-weight: 500;font-family: "i Ciel Gotham" } 
		.t1 { font-size: 16px;fill: #ffffff;font-weight: bold;font-family: "i Ciel Gotham" } 
		.s2 { fill: #ffffff } 
		.s3 { fill: #f68c2e } 
	</style>
	<g id="&lt;Group&gt;">
		<text id="Every Little Helps
" style="transform: matrix(1,0,0,1,82.07,89.66)" >
			<tspan x="-55.3" y="0" class="t0">Every Little Helps
</tspan>
		</text>
		<text id="ELH TECHNOLOGY
" style="transform: matrix(1,0,0,1,79.89,74.293)" >
			<tspan x="-81.3" y="0" class="t1">ELH TECHNOLOGY
</tspan>
		</text>
		<g id="&lt;Group&gt;">
			<g id="&lt;Group&gt;">
				<g id="&lt;Group&gt;">
					<g id="&lt;Group&gt;">
						<path id="&lt;Path&gt;" class="s2" d="m120 31h-38.1c-0.9 0-1.6-0.7-1.6-1.5l1.5-6.8c0-0.9 0.7-1.6 1.6-1.6h36.6z"/>
					</g>
					<g id="&lt;Group&gt;">
						<path id="&lt;Path&gt;" class="s2" d="m115.1 12.9l-8.5 35.8h10.8l8.5-35.7z"/>
					</g>
					<g id="&lt;Group&gt;">
						<g id="&lt;Group&gt;">
							<path id="&lt;Path&gt;" class="s2" d="m87 43.7l9.5-43.2h-10.8l-9.6 43.2z"/>
						</g>
					</g>
					<g id="&lt;Group&gt;">
						<path id="&lt;Path&gt;" class="s2" d="m50.4 18.5h-22.8c-2.9 0-5.4 2.1-5.7 5-0.3 3.2 2.3 5.9 5.4 5.9h20.5q0 0 0-0.1l2.7-10.7q0-0.1-0.1-0.1z"/>
					</g>
					<g id="&lt;Group&gt;">
						<path id="&lt;Path&gt;" class="s2" d="m46.8 37.7l-16.4-0.1q-2.3 0-4.6-0.3l-1.4-0.2c-5.7-1.7-9.9-6.3-9.9-12.6q0-0.1 0-0.3c0.1-7.1 6.1-12.8 13.2-12.8h4.2 15.5 3.6c6 0 10.9-4.9 10.9-10.9h-36q0 0 0 0c-12.5 0.8-22.4 11.3-22.4 24 0 12.7 9.7 23.1 22.1 24q0.1 0.1 0.1 0.1h18.4z"/>
					</g>
				</g>
			</g>
			<path id="&lt;Path&gt;" class="s3" d="m134.5 13q-0.1 0-0.1 0l-19.3-0.1c-1.5 5 2.6 9.9 7.9 9.9l8.9 0.1 3.8 0.5c5.7 1.5 9.9 6.6 9.9 12.6q0 0.2 0 0.4c-0.3 6.8-6.2 12.2-13.3 12.2h-4.2-6-57l7.1-27.7h-10.8l-7.3 28.5c-1.5 6.3 2.6 9.6 7.8 9.6h36.3 23.9 12q0 0 0-0.1c12.6-0.7 22.5-10.7 22.5-22.9 0-12.1-9.8-22.1-22.1-23z"/>
		</g>
	</g>
</svg>