<svg width="162" height="93" viewBox="0 0 162 93" fill="none" xmlns="http://www.w3.org/2000/svg">
<g clip-path="url(#clip0_2148_53)">
<path d="M120 31H81.9C81 31 80.3 30.3 80.3 29.5L81.8 22.7C81.8 21.8 82.5 21.1 83.4 21.1H120V31Z" fill="#1B2F50"/>
<path d="M115.1 12.9L106.6 48.7H117.4L125.9 13L115.1 12.9Z" fill="#1B2F50"/>
<path d="M87 43.7L96.5 0.5H85.7L76.1 43.7H87Z" fill="#1B2F50"/>
<path d="M50.4 18.5H27.6C24.7 18.5 22.2 20.6 21.9 23.5C21.6 26.7 24.2 29.4 27.3 29.4H47.8C47.8 29.4 47.8 29.3667 47.8 29.3L50.5 18.6C50.5 18.5333 50.4666 18.5 50.4 18.5Z" fill="#1B2F50"/>
<path d="M46.8 37.7L30.4 37.6C28.8667 37.6 27.3333 37.5 25.8 37.3L24.4 37.1C18.7 35.4 14.5 30.8 14.5 24.5C14.5 24.4333 14.5 24.3333 14.5 24.2C14.6 17.1 20.6 11.4 27.7 11.4H31.9H47.4H51C57 11.4 61.9 6.5 61.9 0.5H25.9C13.4 1.3 3.5 11.8 3.5 24.5C3.5 37.2 13.2 47.6 25.6 48.5C25.6667 48.5667 25.7 48.6 25.7 48.6H44.1L46.8 37.7Z" fill="#1B2F50"/>
<path d="M134.5 13C134.433 13 134.4 13 134.4 13L115.1 12.9C113.6 17.9 117.7 22.8 123 22.8L131.9 22.9L135.7 23.4C141.4 24.9 145.6 30 145.6 36C145.6 36.1334 145.6 36.2667 145.6 36.4C145.3 43.2 139.4 48.6 132.3 48.6H128.1H122.1H65.1L72.2 20.9H61.4L54.1 49.4C52.6 55.7 56.7 59 61.9 59H98.2H122.1H134.1C134.1 59 134.1 58.9667 134.1 58.9C146.7 58.2 156.6 48.2 156.6 36C156.6 23.9 146.8 13.9 134.5 13Z" fill="#F68C2E"/>
<path d="M21.1449 87V77.5455H26.8509V78.5611H22.2898V81.7557H26.5554V82.7713H22.2898V85.9844H26.9247V87H21.1449ZM34.565 79.9091L31.9428 87H30.8349L28.2127 79.9091H29.3945L31.3519 85.5597H31.4258L33.3832 79.9091H34.565ZM38.7221 87.1477C38.0389 87.1477 37.4495 86.9969 36.954 86.6953C36.4616 86.3906 36.0815 85.9659 35.8137 85.4212C35.5491 84.8733 35.4167 84.2363 35.4167 83.5099C35.4167 82.7836 35.5491 82.1435 35.8137 81.5895C36.0815 81.0324 36.4539 80.5985 36.9309 80.2876C37.411 79.9737 37.9712 79.8168 38.6113 79.8168C38.9806 79.8168 39.3453 79.8783 39.7054 80.0014C40.0655 80.1245 40.3933 80.3246 40.6887 80.6016C40.9842 80.8755 41.2196 81.2386 41.3951 81.6911C41.5705 82.1435 41.6582 82.7005 41.6582 83.3622V83.8239H36.1923V82.8821H40.5502C40.5502 82.482 40.4702 82.125 40.3102 81.8111C40.1532 81.4972 39.9286 81.2494 39.6362 81.0678C39.3469 80.8862 39.0053 80.7955 38.6113 80.7955C38.1774 80.7955 37.8019 80.9032 37.4849 81.1186C37.171 81.331 36.9294 81.608 36.7601 81.9496C36.5908 82.2912 36.5062 82.6574 36.5062 83.0483V83.6761C36.5062 84.2116 36.5985 84.6656 36.7832 85.038C36.9709 85.4073 37.231 85.6889 37.5634 85.8828C37.8958 86.0736 38.282 86.169 38.7221 86.169C39.0083 86.169 39.2669 86.129 39.4977 86.049C39.7316 85.9659 39.9332 85.8428 40.1025 85.6797C40.2717 85.5135 40.4025 85.3073 40.4949 85.0611L41.5474 85.3565C41.4366 85.7135 41.2504 86.0275 40.9888 86.2983C40.7272 86.5661 40.4041 86.7753 40.0194 86.9261C39.6346 87.0739 39.2022 87.1477 38.7221 87.1477ZM43.3155 87V79.9091H44.3681V80.9801H44.4419C44.5712 80.6293 44.8051 80.3446 45.1436 80.1261C45.4822 79.9076 45.8638 79.7983 46.2885 79.7983C46.3685 79.7983 46.4686 79.7998 46.5886 79.8029C46.7086 79.806 46.7994 79.8106 46.861 79.8168V80.9247C46.824 80.9155 46.7394 80.9016 46.6071 80.8832C46.4778 80.8616 46.3409 80.8509 46.1962 80.8509C45.8515 80.8509 45.5437 80.9232 45.2729 81.0678C45.0051 81.2094 44.7928 81.4064 44.6358 81.6587C44.4819 81.908 44.405 82.1927 44.405 82.5128V87H43.3155ZM49.07 89.6591C48.8853 89.6591 48.7206 89.6437 48.576 89.6129C48.4313 89.5852 48.3313 89.5575 48.2759 89.5298L48.5529 88.5696C48.8176 88.6373 49.0515 88.6619 49.2546 88.6435C49.4577 88.625 49.6378 88.5342 49.7947 88.3711C49.9548 88.2111 50.101 87.951 50.2333 87.5909L50.4364 87.0369L47.8143 79.9091H48.9961L50.9535 85.5597H51.0273L52.9847 79.9091H54.1665L51.1566 88.0341C51.0212 88.4003 50.8535 88.7035 50.6534 88.9435C50.4534 89.1867 50.221 89.3667 49.9563 89.4837C49.6947 89.6006 49.3993 89.6591 49.07 89.6591ZM59.4086 87V77.5455H60.5534V85.9844H64.9483V87H59.4086ZM66.5733 87V79.9091H67.6628V87H66.5733ZM67.1273 78.7273C66.915 78.7273 66.7318 78.6549 66.5779 78.5103C66.4271 78.3656 66.3517 78.1918 66.3517 77.9886C66.3517 77.7855 66.4271 77.6116 66.5779 77.467C66.7318 77.3223 66.915 77.25 67.1273 77.25C67.3397 77.25 67.5212 77.3223 67.6721 77.467C67.8259 77.6116 67.9029 77.7855 67.9029 77.9886C67.9029 78.1918 67.8259 78.3656 67.6721 78.5103C67.5212 78.6549 67.3397 78.7273 67.1273 78.7273ZM72.7421 79.9091V80.8324H69.0674V79.9091H72.7421ZM70.1384 78.2102H71.2279V84.9688C71.2279 85.2765 71.2725 85.5073 71.3618 85.6612C71.4541 85.812 71.5711 85.9136 71.7126 85.9659C71.8573 86.0152 72.0096 86.0398 72.1697 86.0398C72.2897 86.0398 72.3882 86.0336 72.4651 86.0213C72.5421 86.0059 72.6036 85.9936 72.6498 85.9844L72.8714 86.9631C72.7975 86.9908 72.6944 87.0185 72.5621 87.0462C72.4297 87.0769 72.262 87.0923 72.0589 87.0923C71.7511 87.0923 71.4495 87.0262 71.154 86.8938C70.8617 86.7615 70.6185 86.5599 70.4246 86.2891C70.2338 86.0182 70.1384 85.6766 70.1384 85.2642V78.2102ZM77.4648 79.9091V80.8324H73.79V79.9091H77.4648ZM74.8611 78.2102H75.9506V84.9688C75.9506 85.2765 75.9952 85.5073 76.0844 85.6612C76.1768 85.812 76.2937 85.9136 76.4353 85.9659C76.5799 86.0152 76.7323 86.0398 76.8923 86.0398C77.0123 86.0398 77.1108 86.0336 77.1878 86.0213C77.2647 86.0059 77.3263 85.9936 77.3724 85.9844L77.594 86.9631C77.5202 86.9908 77.4171 87.0185 77.2847 87.0462C77.1524 87.0769 76.9846 87.0923 76.7815 87.0923C76.4738 87.0923 76.1721 87.0262 75.8767 86.8938C75.5843 86.7615 75.3412 86.5599 75.1473 86.2891C74.9565 86.0182 74.8611 85.6766 74.8611 85.2642V78.2102ZM80.3454 77.5455V87H79.2559V77.5455H80.3454ZM85.3139 87.1477C84.6307 87.1477 84.0413 86.9969 83.5458 86.6953C83.0534 86.3906 82.6733 85.9659 82.4055 85.4212C82.1409 84.8733 82.0085 84.2363 82.0085 83.5099C82.0085 82.7836 82.1409 82.1435 82.4055 81.5895C82.6733 81.0324 83.0457 80.5985 83.5227 80.2876C84.0028 79.9737 84.563 79.8168 85.2031 79.8168C85.5724 79.8168 85.9371 79.8783 86.2972 80.0014C86.6573 80.1245 86.9851 80.3246 87.2805 80.6016C87.576 80.8755 87.8114 81.2386 87.9869 81.6911C88.1623 82.1435 88.25 82.7005 88.25 83.3622V83.8239H82.7841V82.8821H87.142C87.142 82.482 87.062 82.125 86.902 81.8111C86.745 81.4972 86.5204 81.2494 86.228 81.0678C85.9387 80.8862 85.5971 80.7955 85.2031 80.7955C84.7692 80.7955 84.3937 80.9032 84.0767 81.1186C83.7628 81.331 83.5212 81.608 83.3519 81.9496C83.1826 82.2912 83.098 82.6574 83.098 83.0483V83.6761C83.098 84.2116 83.1903 84.6656 83.375 85.038C83.5627 85.4073 83.8228 85.6889 84.1552 85.8828C84.4876 86.0736 84.8738 86.169 85.3139 86.169C85.6001 86.169 85.8587 86.129 86.0895 86.049C86.3234 85.9659 86.525 85.8428 86.6942 85.6797C86.8635 85.5135 86.9943 85.3073 87.0866 85.0611L88.1392 85.3565C88.0284 85.7135 87.8422 86.0275 87.5806 86.2983C87.319 86.5661 86.9959 86.7753 86.6112 86.9261C86.2264 87.0739 85.794 87.1477 85.3139 87.1477ZM93.7113 87V77.5455H94.8562V81.7557H99.8974V77.5455H101.042V87H99.8974V82.7713H94.8562V87H93.7113ZM106.16 87.1477C105.476 87.1477 104.887 86.9969 104.392 86.6953C103.899 86.3906 103.519 85.9659 103.251 85.4212C102.987 84.8733 102.854 84.2363 102.854 83.5099C102.854 82.7836 102.987 82.1435 103.251 81.5895C103.519 81.0324 103.891 80.5985 104.368 80.2876C104.849 79.9737 105.409 79.8168 106.049 79.8168C106.418 79.8168 106.783 79.8783 107.143 80.0014C107.503 80.1245 107.831 80.3246 108.126 80.6016C108.422 80.8755 108.657 81.2386 108.833 81.6911C109.008 82.1435 109.096 82.7005 109.096 83.3622V83.8239H103.63V82.8821H107.988C107.988 82.482 107.908 82.125 107.748 81.8111C107.591 81.4972 107.366 81.2494 107.074 81.0678C106.784 80.8862 106.443 80.7955 106.049 80.7955C105.615 80.7955 105.239 80.9032 104.922 81.1186C104.608 81.331 104.367 81.608 104.198 81.9496C104.028 82.2912 103.944 82.6574 103.944 83.0483V83.6761C103.944 84.2116 104.036 84.6656 104.221 85.038C104.408 85.4073 104.669 85.6889 105.001 85.8828C105.333 86.0736 105.72 86.169 106.16 86.169C106.446 86.169 106.704 86.129 106.935 86.049C107.169 85.9659 107.371 85.8428 107.54 85.6797C107.709 85.5135 107.84 85.3073 107.932 85.0611L108.985 85.3565C108.874 85.7135 108.688 86.0275 108.426 86.2983C108.165 86.5661 107.842 86.7753 107.457 86.9261C107.072 87.0739 106.64 87.1477 106.16 87.1477ZM111.843 77.5455V87H110.753V77.5455H111.843ZM113.838 89.6591V79.9091H114.891V81.0355H115.02C115.1 80.9124 115.211 80.7554 115.352 80.5646C115.497 80.3707 115.703 80.1984 115.971 80.0476C116.242 79.8937 116.608 79.8168 117.07 79.8168C117.667 79.8168 118.193 79.966 118.648 80.2646C119.104 80.5631 119.459 80.9863 119.715 81.5341C119.97 82.0819 120.098 82.7282 120.098 83.473C120.098 84.224 119.97 84.8749 119.715 85.4258C119.459 85.9736 119.105 86.3983 118.653 86.6999C118.201 86.9985 117.679 87.1477 117.088 87.1477C116.632 87.1477 116.268 87.0723 115.994 86.9215C115.72 86.7676 115.509 86.5937 115.361 86.3999C115.214 86.2029 115.1 86.0398 115.02 85.9105H114.927V89.6591H113.838ZM114.909 83.4545C114.909 83.9901 114.987 84.4625 115.144 84.8718C115.301 85.2781 115.531 85.5966 115.832 85.8274C116.134 86.0552 116.503 86.169 116.94 86.169C117.396 86.169 117.776 86.049 118.081 85.8089C118.388 85.5658 118.619 85.2396 118.773 84.8303C118.93 84.4179 119.008 83.9593 119.008 83.4545C119.008 82.956 118.931 82.5066 118.778 82.1065C118.627 81.7034 118.398 81.3848 118.09 81.1509C117.785 80.9139 117.402 80.7955 116.94 80.7955C116.497 80.7955 116.125 80.9078 115.823 81.1325C115.521 81.354 115.294 81.6649 115.14 82.065C114.986 82.462 114.909 82.9252 114.909 83.4545ZM126.783 81.4972L125.804 81.7741C125.742 81.611 125.652 81.4525 125.532 81.2987C125.415 81.1417 125.255 81.0124 125.051 80.9109C124.848 80.8093 124.588 80.7585 124.271 80.7585C123.837 80.7585 123.476 80.8585 123.186 81.0586C122.9 81.2556 122.757 81.5064 122.757 81.8111C122.757 82.0819 122.855 82.2958 123.052 82.4528C123.249 82.6097 123.557 82.7405 123.976 82.8452L125.028 83.1037C125.662 83.2576 126.135 83.493 126.446 83.81C126.756 84.1239 126.912 84.5286 126.912 85.0241C126.912 85.4304 126.795 85.7936 126.561 86.1136C126.33 86.4337 126.007 86.6861 125.592 86.8707C125.176 87.0554 124.693 87.1477 124.142 87.1477C123.419 87.1477 122.82 86.9908 122.346 86.6768C121.872 86.3629 121.572 85.9044 121.446 85.3011L122.48 85.0426C122.579 85.4242 122.765 85.7105 123.039 85.9013C123.316 86.0921 123.677 86.1875 124.123 86.1875C124.631 86.1875 125.034 86.0798 125.333 85.8643C125.635 85.6458 125.785 85.3842 125.785 85.0795C125.785 84.8333 125.699 84.6271 125.527 84.4609C125.355 84.2917 125.09 84.1655 124.733 84.0824L123.551 83.8054C122.902 83.6515 122.425 83.413 122.12 83.0898C121.818 82.7636 121.668 82.3558 121.668 81.8665C121.668 81.4664 121.78 81.1125 122.005 80.8047C122.232 80.4969 122.542 80.2553 122.932 80.0799C123.326 79.9045 123.773 79.8168 124.271 79.8168C124.973 79.8168 125.524 79.9706 125.924 80.2784C126.327 80.5862 126.613 80.9924 126.783 81.4972Z" fill="#EF8C27"/>
<path d="M7.01136 74V62.3636H14.8523V64.392H9.47159V67.1648H14.4489V69.1932H9.47159V71.9716H14.875V74H7.01136ZM16.8082 74V62.3636H19.2685V71.9716H24.2571V74H16.8082ZM25.8864 74V62.3636H28.3466V67.1648H33.3409V62.3636H35.7955V74H33.3409V69.1932H28.3466V74H25.8864ZM41.0838 64.392V62.3636H50.6406V64.392H47.0781V74H44.6463V64.392H41.0838ZM52.2145 74V62.3636H60.0554V64.392H54.6747V67.1648H59.652V69.1932H54.6747V71.9716H60.0781V74H52.2145ZM72.2784 66.4375H69.7898C69.7443 66.1155 69.6515 65.8295 69.5114 65.5795C69.3712 65.3258 69.1913 65.1098 68.9716 64.9318C68.7519 64.7538 68.4981 64.6174 68.2102 64.5227C67.9261 64.428 67.6174 64.3807 67.2841 64.3807C66.6818 64.3807 66.1572 64.5303 65.7102 64.8295C65.2633 65.125 64.9167 65.5568 64.6705 66.125C64.4242 66.6894 64.3011 67.375 64.3011 68.1818C64.3011 69.0114 64.4242 69.7083 64.6705 70.2727C64.9205 70.8371 65.2689 71.2633 65.7159 71.5511C66.1629 71.839 66.6799 71.983 67.267 71.983C67.5966 71.983 67.9015 71.9394 68.1818 71.8523C68.4659 71.7652 68.7178 71.6383 68.9375 71.4716C69.1572 71.3011 69.339 71.0947 69.483 70.8523C69.6307 70.6098 69.733 70.3333 69.7898 70.0227L72.2784 70.0341C72.214 70.5682 72.053 71.0833 71.7955 71.5795C71.5417 72.072 71.1989 72.5133 70.767 72.9034C70.339 73.2898 69.8277 73.5966 69.233 73.8239C68.642 74.0473 67.9735 74.1591 67.2273 74.1591C66.1894 74.1591 65.2614 73.9242 64.4432 73.4545C63.6288 72.9848 62.9848 72.3049 62.5114 71.4148C62.0417 70.5246 61.8068 69.447 61.8068 68.1818C61.8068 66.9129 62.0455 65.8333 62.5227 64.9432C63 64.053 63.6477 63.375 64.4659 62.9091C65.2841 62.4394 66.2045 62.2045 67.2273 62.2045C67.9015 62.2045 68.5265 62.2992 69.1023 62.4886C69.6818 62.678 70.1951 62.9545 70.642 63.3182C71.089 63.678 71.4527 64.1193 71.733 64.642C72.017 65.1648 72.1989 65.7633 72.2784 66.4375ZM74.0426 74V62.3636H76.5028V67.1648H81.4972V62.3636H83.9517V74H81.4972V69.1932H76.5028V74H74.0426ZM95.7131 62.3636V74H93.5881L88.5256 66.6761H88.4403V74H85.9801V62.3636H88.1392L93.1619 69.6818H93.2642V62.3636H95.7131ZM108.439 68.1818C108.439 69.4508 108.198 70.5303 107.717 71.4205C107.24 72.3106 106.589 72.9905 105.763 73.4602C104.941 73.9261 104.017 74.1591 102.99 74.1591C101.956 74.1591 101.028 73.9242 100.206 73.4545C99.384 72.9848 98.7344 72.3049 98.2571 71.4148C97.7798 70.5246 97.5412 69.447 97.5412 68.1818C97.5412 66.9129 97.7798 65.8333 98.2571 64.9432C98.7344 64.053 99.384 63.375 100.206 62.9091C101.028 62.4394 101.956 62.2045 102.99 62.2045C104.017 62.2045 104.941 62.4394 105.763 62.9091C106.589 63.375 107.24 64.053 107.717 64.9432C108.198 65.8333 108.439 66.9129 108.439 68.1818ZM105.945 68.1818C105.945 67.3598 105.821 66.6667 105.575 66.1023C105.333 65.5379 104.99 65.1098 104.547 64.8182C104.104 64.5265 103.585 64.3807 102.99 64.3807C102.395 64.3807 101.876 64.5265 101.433 64.8182C100.99 65.1098 100.645 65.5379 100.399 66.1023C100.157 66.6667 100.036 67.3598 100.036 68.1818C100.036 69.0038 100.157 69.697 100.399 70.2614C100.645 70.8258 100.99 71.2538 101.433 71.5455C101.876 71.8371 102.395 71.983 102.99 71.983C103.585 71.983 104.104 71.8371 104.547 71.5455C104.99 71.2538 105.333 70.8258 105.575 70.2614C105.821 69.697 105.945 69.0038 105.945 68.1818ZM110.261 74V62.3636H112.722V71.9716H117.71V74H110.261ZM129.58 68.1818C129.58 69.4508 129.339 70.5303 128.858 71.4205C128.381 72.3106 127.729 72.9905 126.903 73.4602C126.081 73.9261 125.157 74.1591 124.131 74.1591C123.097 74.1591 122.169 73.9242 121.347 73.4545C120.525 72.9848 119.875 72.3049 119.398 71.4148C118.92 70.5246 118.682 69.447 118.682 68.1818C118.682 66.9129 118.92 65.8333 119.398 64.9432C119.875 64.053 120.525 63.375 121.347 62.9091C122.169 62.4394 123.097 62.2045 124.131 62.2045C125.157 62.2045 126.081 62.4394 126.903 62.9091C127.729 63.375 128.381 64.053 128.858 64.9432C129.339 65.8333 129.58 66.9129 129.58 68.1818ZM127.085 68.1818C127.085 67.3598 126.962 66.6667 126.716 66.1023C126.473 65.5379 126.131 65.1098 125.688 64.8182C125.244 64.5265 124.725 64.3807 124.131 64.3807C123.536 64.3807 123.017 64.5265 122.574 64.8182C122.131 65.1098 121.786 65.5379 121.54 66.1023C121.297 66.6667 121.176 67.3598 121.176 68.1818C121.176 69.0038 121.297 69.697 121.54 70.2614C121.786 70.8258 122.131 71.2538 122.574 71.5455C123.017 71.8371 123.536 71.983 124.131 71.983C124.725 71.983 125.244 71.8371 125.688 71.5455C126.131 71.2538 126.473 70.8258 126.716 70.2614C126.962 69.697 127.085 69.0038 127.085 68.1818ZM139.118 66.125C139.038 65.8485 138.927 65.6042 138.783 65.392C138.639 65.1761 138.463 64.9943 138.254 64.8466C138.05 64.6951 137.815 64.5795 137.55 64.5C137.288 64.4205 136.999 64.3807 136.68 64.3807C136.086 64.3807 135.563 64.5284 135.112 64.8239C134.665 65.1193 134.317 65.5492 134.067 66.1136C133.817 66.6742 133.692 67.3598 133.692 68.1705C133.692 68.9811 133.815 69.6705 134.061 70.2386C134.307 70.8068 134.656 71.2405 135.107 71.5398C135.557 71.8352 136.089 71.983 136.703 71.983C137.26 71.983 137.735 71.8845 138.129 71.6875C138.527 71.4867 138.83 71.2045 139.038 70.8409C139.25 70.4773 139.357 70.0473 139.357 69.5511L139.857 69.625H136.857V67.7727H141.726V69.2386C141.726 70.2614 141.51 71.1402 141.078 71.875C140.646 72.6061 140.052 73.1705 139.294 73.5682C138.536 73.9621 137.669 74.1591 136.692 74.1591C135.601 74.1591 134.643 73.9186 133.817 73.4375C132.991 72.9527 132.347 72.2652 131.885 71.375C131.427 70.4811 131.197 69.4205 131.197 68.1932C131.197 67.25 131.334 66.4091 131.607 65.6705C131.883 64.928 132.269 64.2992 132.766 63.7841C133.262 63.2689 133.839 62.8769 134.499 62.608C135.158 62.339 135.872 62.2045 136.641 62.2045C137.3 62.2045 137.913 62.3011 138.482 62.4943C139.05 62.6837 139.554 62.9527 139.993 63.3011C140.436 63.6496 140.798 64.0644 141.078 64.5455C141.358 65.0227 141.538 65.5492 141.618 66.125H139.118ZM142.423 62.3636H145.179L147.832 67.375H147.946L150.599 62.3636H153.355L149.111 69.8864V74H146.668V69.8864L142.423 62.3636Z" fill="#1B2F50"/>
</g>
<defs>
<clipPath id="clip0_2148_53">
<rect width="162" height="93" fill="white"/>
</clipPath>
</defs>
</svg>
