<svg version="1.2" xmlns="http://www.w3.org/2000/svg" viewBox="0 0 56 57" width="56" height="57">
	<title>_Compound Path_</title>
	<style>
		.s0 {
			fill: #f68c2e
		}
	</style>
	<path id="&lt;Compound Path&gt;" fill-rule="evenodd" class="s0"
		d="m5.6 1h45.4c2.7 0.2 4.8 2.4 4.9 5v45.5c-0.2 2.9-2.5 5.1-5.5 5.1h-44.1c-2.9 0-5.3-2.2-5.5-5.1v-45.5c0.2-2.6 2.2-4.7 4.8-5zm29.9 32.9c1.5-1.2 3.2-2.4 4.6-3.7 0.6-0.5 0.9-1.2 0.6-2-0.2-0.6-1-1.1-1.5-1.6-5.7-4.7-11.6-9.2-17.4-13.9-3.2-2.3-5.8-0.9-6 3-0.1 2-0.1 4.1 1.2 5.7 2.8 2.5 5.8 4.7 8.7 7.1 0.1 0.1 0.2 0.2 0.3 0.3 0 0-0.4 0.3-0.5 0.4-2.7 2.2-5.5 4.3-8.1 6.6-1.7 1.5-1.7 3.9-1.6 6 0.3 4.3 3.1 5.3 6.4 2.8q6.6-5.4 13.3-10.7z" />
</svg>