<svg width="43" height="43" viewBox="0 0 43 43" fill="none" xmlns="http://www.w3.org/2000/svg">
<path fill-rule="evenodd" clip-rule="evenodd" d="M12 21.6002L12.5 21.5001L21.1 17.2001C22.5 17.0001 22 19.5002 22 20.3002C22 20.8002 22.3 21.1002 22 21.6002C22.2 21.6002 22.4 21.5001 22.6 21.5001C25.4 20.4001 28.2 18.3001 31.1 17.2001C31.5 17.1001 32.2 17.5001 32.2 18.0001V21.6002L40.9 17.3002C41.8 17.0002 42.1999 17.3001 42.2999 18.2001C42.9999 25.6001 41.7999 34.0001 42.2999 41.5001C42.2999 41.8001 42.3 42.2 42 42.4H0.5L0.199951 42.0001V11.0001C0.399951 10.6001 0.599976 10.5001 1.09998 10.5001C4.29998 10.2001 7.89995 10.7001 11.2 10.5001C11.4 10.4001 12 10.9001 12 11.0001V21.6002ZM10.2 12.3002H1.90002V14.8002H10.2V12.3002ZM10.2 16.4H1.90002V40.9H10.2V16.4ZM20.4 19.5001L12 23.7001V40.8002H40.5V19.5001L31.7999 23.8002C31.3999 24.0002 30.5 23.9 30.5 23.4V19.5001L21.7 23.8002C21.4 24.0002 20.4 23.9001 20.4 23.5001V19.5001Z" fill="#1C3051"/>
<path d="M13.9001 3.89987C17.8001 -0.700127 26.7 -0.500078 31.1 3.19992C31.6 3.69992 32.8001 4.70002 31.9001 5.30002C31.0001 5.90002 30.2 4.70002 29.6 4.30002C25.7 1.60002 20.8 1.29987 16.8 3.89987C16.3 4.19987 15 5.39997 14.5 5.49997C13.6 5.59997 13.3001 4.59987 13.9001 3.89987Z" fill="#1C3051"/>
<path d="M21.5 4.89997C23.8 4.59997 26.4999 5.20012 28.1999 6.80012C28.6999 7.30012 29.2999 8.20007 28.2999 8.50007C27.2999 8.80007 27 8.00017 26.4 7.60017C24.2 6.10017 21.6 6.20017 19.5 7.60017C18.9 7.90017 17.5 9.40017 17.1 8.10017C16.8 7.40017 17.4 7.00017 17.9 6.60017C18.8 5.80017 20.4 5.09997 21.5 4.89997Z" fill="#1C3051"/>
<path fill-rule="evenodd" clip-rule="evenodd" d="M20.4 19.5V23.6001C20.4 23.9001 21.4 24.0999 21.7 23.8999L30.5 19.5V23.3999C30.5 23.8999 31.3999 24.0999 31.7999 23.8999L40.5 19.5V40.8H12V23.7L20.4 19.5ZM16.2999 28.3999C15.7999 28.8999 16.1 35.2 16.2 36.2C16.5 36.9 19.4 36.8 20.1 36.7C20.8 36.6 21.1999 36.3001 21.2999 35.6001C21.3999 34.2001 21.3999 30.7999 21.2999 29.3999C21.1999 28.8999 21.2 28.5 20.7 28.3C20.2 28 16.6999 27.9999 16.2999 28.3999ZM28.6 36.3999V28.6001C28.2 27.9001 25.7 28.0001 24.9 28.1001C24.1 28.2001 23.7 28.4 23.6 29.2C23.5 30.6 23.5 33.9 23.6 35.3C23.7 36.2 23.9 36.6 24.9 36.7C25.6 36.8 28.2 36.7999 28.6 36.3999ZM32.2999 28.2C31.8999 28.2 31.3999 28.3 31.2999 28.8V36.1001C31.5999 36.9001 34.5 36.8 35.2 36.7C36 36.6 36.2999 36.5 36.2999 35.7C36.4999 34.3 36.5 30.7 36.4 29.2C36.3 28.8 36.3 28.5 35.9 28.3C35.4 28 32.9999 28 32.2999 28.2Z" fill="#FEFEFE"/>
<path d="M10.1998 16.3999V40.8H1.8999V16.3999H10.1998Z" fill="#FEFEFE"/>
<path d="M10.1998 12.3V14.8H1.8999V12.3H10.1998Z" fill="#FEFEFE"/>
<path fill-rule="evenodd" clip-rule="evenodd" d="M16.2998 28.3999C16.6998 27.9999 20.1998 28.0001 20.7998 28.3001C21.1998 28.5001 21.2998 28.9001 21.2998 29.3001C21.3998 30.8001 21.4998 34.2001 21.2998 35.6001C21.1998 36.3001 20.8999 36.6 20.1999 36.7C19.3999 36.8 16.4999 36.9 16.1999 36.2C16.0999 35.2 15.8998 28.8999 16.2998 28.3999ZM19.4999 29.8999H17.8999V34.8999H19.4999V29.8999Z" fill="#1C3051"/>
<path fill-rule="evenodd" clip-rule="evenodd" d="M28.5999 36.3C28.1999 36.8 25.5999 36.6999 24.8999 36.6999C23.8999 36.5999 23.6999 36.2 23.5999 35.3C23.4999 33.9 23.4998 30.5999 23.6998 29.1999C23.6998 28.3999 24.1999 28.2 24.8999 28.1C25.6999 28 28.2998 27.9 28.6998 28.6L28.5999 36.3ZM26.9999 29.8998H25.3999V34.8998H26.9999V29.8998Z" fill="#1C3051"/>
<path fill-rule="evenodd" clip-rule="evenodd" d="M32.2998 28.1001C32.9998 28.0001 35.3999 28.0001 35.9999 28.3001C36.3999 28.5001 36.3999 28.8 36.3999 29.2C36.4999 30.7 36.5999 34.2 36.3999 35.7C36.2999 36.5 35.9998 36.6 35.2998 36.7C34.4998 36.8 31.5999 36.9001 31.3999 36.1001V28.8001C31.3999 28.3001 31.8998 28.2001 32.2998 28.1001ZM34.5999 29.8999H32.9999V34.8999H34.5999V29.8999Z" fill="#1C3051"/>
<path d="M19.4999 29.8999V34.8999H17.8999V29.8999H19.4999Z" fill="#FEFEFE"/>
<path d="M27.0999 29.8999V34.8999H25.3999V29.8999H27.0999Z" fill="#FEFEFE"/>
<path d="M34.6 29.8999V34.8999H33V29.8999H34.6Z" fill="#FEFEFE"/>
</svg>
