<svg width="17" height="17" viewBox="0 0 17 17" fill="none" xmlns="http://www.w3.org/2000/svg">
<path fill-rule="evenodd" clip-rule="evenodd" d="M7.49999 0.799819C13.9 0.0998193 18.5 6.69992 15.4 12.3999C12.4 17.7999 4.5 17.7998 1.6 12.2998C-1 7.49982 2.09999 1.29982 7.49999 0.799819ZM9.49999 2.39992H7.3C7.1 2.69992 6.2 5.00011 6.4 5.10011C7.7 5.00011 9.19999 5.00011 10.5 5.10011L9.49999 2.39992ZM5.8 3.10011C4.5 3.60011 3.49999 4.69992 2.99999 5.89992L5.3 5.39992L5.8 3.10011ZM14.1 5.79982C13.6 4.59982 12.5 3.60011 11.3 3.10011L11.8 5.29982L14.1 5.79982ZM11 6.00001C9.39999 5.80001 7.8 5.80001 6.2 6.00001C6 7.60001 6 9.40001 6.2 11C7.8 11.2 9.39999 11.2 11 11C11.2 9.40001 11.2 7.60001 11 6.00001ZM5.1 10.1001C5 9.10011 5 8.00001 5.1 7.00001L2.4 7.79982V9.39992L5.1 10.1001ZM14.7 7.79982L11.9 7.00001C12.1 8.10001 12.1 9.20021 11.9 10.2002L14.7 9.50001V7.79982ZM5.2 11.8999L2.99999 11.3999C2.79999 11.4999 4 12.9001 4.1 13.1001C4.3 13.3001 5.4 14.1001 5.6 14.1001C5.7 14.2001 5.8 14.1 5.7 14C5.7 13.4 5.3 12.5999 5.2 11.8999ZM14 11.3999L11.8 11.8999L11.3 14.1001C12.5 13.6001 13.5 12.5999 14 11.3999ZM10.8 11.8999C9.3 11.9999 7.7 11.9999 6.2 11.8999L7.2 14.7998H9.8L10.8 11.8999Z" fill="#F68C2E"/>
</svg>
