<svg width="155" height="153" viewBox="0 0 155 153" fill="none" xmlns="http://www.w3.org/2000/svg">
<path fill-rule="evenodd" clip-rule="evenodd" d="M68.3602 31.0651C97.1637 28.4682 131.397 40.7443 148.868 64.3522C158.548 77.5727 155.479 80.6418 145.327 92.2097C111.093 132.107 39.5568 131.635 7.21195 89.6129C-2.94009 76.3924 -1.28744 73.7955 8.8646 61.5194C22.7941 44.7578 46.8757 33.1898 68.3602 31.0651ZM18.3083 91.7374C53.0141 125.497 113.926 122.428 143.674 83.4746C148.396 77.3365 149.104 76.8644 144.619 70.2542C115.815 30.3568 52.778 27.524 18.3083 61.2834C4.851 74.5038 4.851 78.5169 18.3083 91.7374Z" fill="#1B2F50"/>
<path d="M47.5838 25.3991C42.8619 29.8846 29.8768 14.3035 37.904 9.58189C42.1537 8.63758 50.1808 23.0383 47.5838 25.3991Z" fill="#1B2F50"/>
<path d="M47.5839 127.621C50.1809 129.982 42.1537 144.147 37.904 143.439C30.5851 141.786 41.9176 121.955 47.5839 127.621Z" fill="#1B2F50"/>
<path d="M114.399 25.163C105.663 30.3567 106.135 19.7332 112.038 13.123C123.37 1.31906 118.648 22.5661 114.399 25.163Z" fill="#1B2F50"/>
<path d="M107.552 127.622C111.801 123.136 125.259 141.786 117.231 143.439C112.982 144.147 105.191 129.982 107.552 127.622Z" fill="#1B2F50"/>
<path d="M81.1092 16.6643H74.0264C71.6655 -4.58284 83.4701 -4.58284 81.1092 16.6643Z" fill="#1B2F50"/>
<path d="M81.1092 136.356C83.4701 157.603 71.6655 157.367 74.0264 136.356H81.1092Z" fill="#1B2F50"/>
<path fill-rule="evenodd" clip-rule="evenodd" d="M18.3083 91.7374C4.851 78.5169 4.851 74.5038 18.3083 61.2834C52.778 27.524 115.815 30.3568 144.619 70.2542C149.104 76.8644 148.396 77.3365 143.674 83.4746C113.926 122.428 53.0141 125.497 18.3083 91.7374ZM71.9016 43.3411C30.5852 50.1874 38.3763 114.401 81.8175 109.68C124.787 105.194 117.232 36.0227 71.9016 43.3411Z" fill="#FDFDFD"/>
<path fill-rule="evenodd" clip-rule="evenodd" d="M71.9015 43.341C117.232 36.0225 124.787 105.194 81.8175 109.679C38.3762 114.401 30.5851 50.1873 71.9015 43.341ZM71.9015 50.4234C39.7928 55.6171 46.1673 109.207 83.234 102.361C114.871 96.6949 110.149 44.2853 71.9015 50.4234Z" fill="#1B2F50"/>
<path fill-rule="evenodd" clip-rule="evenodd" d="M71.9016 50.4235C110.149 44.2855 114.871 96.6951 83.2341 102.361C46.1673 109.207 39.7928 55.6173 71.9016 50.4235ZM75.443 64.3523C60.5691 66.9491 63.8744 90.085 78.2761 88.6686C95.5109 87.016 91.4973 61.5193 75.443 64.3523Z" fill="#FDFDFD"/>
<path fill-rule="evenodd" clip-rule="evenodd" d="M75.4432 64.3521C91.4976 61.5191 95.5111 87.0158 78.2763 88.6683C63.8746 90.0848 60.5693 66.9489 75.4432 64.3521ZM75.2071 71.1984C68.3604 73.5592 73.5545 86.3074 81.1095 80.8776C85.5952 77.8086 82.7621 68.8376 75.2071 71.1984Z" fill="#1B2F50"/>
<path d="M75.2067 71.1986C82.7617 68.8378 85.5949 77.8087 81.1091 80.8777C73.5541 86.3076 68.36 73.5593 75.2067 71.1986Z" fill="#FDFDFD"/>
</svg>
