<svg width="125" height="157" viewBox="0 0 125 157" fill="none" xmlns="http://www.w3.org/2000/svg">
<path fill-rule="evenodd" clip-rule="evenodd" d="M33.6272 26.2188C35.516 15.8313 53.9313 19.1364 54.8757 18.1921C56.0561 16.7756 51.0982 3.08322 64.5555 0.722428C83.2069 -2.11052 78.249 10.4016 81.3182 12.9984C81.7904 13.4706 87.4566 11.818 90.0537 12.0541C104.928 13.7066 102.331 25.9828 102.331 37.5507C112.719 33.0652 122.398 37.5506 123.579 48.8824C125.232 64.6997 125.468 107.666 123.107 122.539C120.51 138.357 104.928 153.938 89.1092 155.59C70.6939 157.715 47.7928 157.243 33.6272 144.258C29.3775 140.481 4.35162 109.555 2.22677 105.305C-3.91167 93.0292 5.296 82.6419 17.809 85.947C24.1835 87.5995 27.2527 94.682 33.6272 93.9737C36.2242 73.6709 30.3219 45.5773 33.6272 26.2188ZM60.0697 12.0541V71.0739H54.8757V29.76C54.8757 26.4549 41.8906 20.553 39.2935 31.8848C36.6965 44.397 42.1266 92.557 37.4047 98.459C28.9054 109.083 18.7534 86.655 9.7818 93.7374C3.17118 98.9312 10.7262 106.014 14.2676 110.735C21.5865 120.178 40.0017 143.078 50.1538 147.092C71.6383 156.063 107.052 150.633 115.552 125.608C119.329 114.512 120.038 63.5193 118.149 51.0071C116.26 39.6753 103.983 40.3837 102.331 49.1187C101.622 53.132 103.039 70.3656 102.331 71.0739H97.1365V24.3303C97.1365 16.7758 81.3182 16.7758 81.3182 24.3303V71.0739H75.8881V12.0541C75.8881 4.7356 62.1946 4.49952 60.0697 12.0541Z" fill="#1B2F50"/>
<path fill-rule="evenodd" clip-rule="evenodd" d="M60.0697 12.0539C62.1946 4.49932 75.888 4.7354 75.888 12.0539V71.0737H81.3181V24.3302C81.3181 16.7756 97.1365 16.7756 97.1365 24.3302V71.0737H102.33C103.039 70.3654 101.622 53.1318 102.33 49.1185C103.983 40.3835 116.26 39.6751 118.149 51.0069C120.038 63.5191 119.329 114.512 115.552 125.608C107.052 150.632 71.6383 156.062 50.1537 147.091C40.0017 143.078 21.5864 120.178 14.2675 110.735C10.7261 106.013 3.17114 98.931 9.78177 93.7372C18.7533 86.6548 28.9053 109.082 37.4047 98.4588C42.1266 92.5568 36.6965 44.3968 39.2935 31.8846C41.8905 20.5528 54.8756 26.4547 54.8756 29.7598V71.0737H60.0697V12.0539ZM59.5975 90.9044C53.223 92.793 50.1538 102 52.0425 108.138C53.223 111.916 74.2353 132.926 76.5963 132.69C85.0956 125.136 109.885 104.361 95.2477 93.0291C86.7483 86.4189 82.0264 93.029 76.5963 93.5012C72.5827 93.9733 67.8608 88.3075 59.5975 90.9044Z" fill="#FDFDFD"/>
<path fill-rule="evenodd" clip-rule="evenodd" d="M59.5978 90.9045C67.8611 88.3077 72.583 93.9734 76.5966 93.7374C82.0268 93.0291 86.7486 86.419 95.248 93.2653C109.886 104.597 85.096 125.136 76.5966 132.69C74.2357 132.927 53.2233 111.916 52.0429 108.138C50.1541 102 53.2233 92.7932 59.5978 90.9045ZM91.2344 97.9869C85.096 91.6128 78.2492 103.181 75.18 102.708C72.583 102.236 69.7499 94.9179 63.6114 96.5705C48.0293 100.584 69.5138 120.414 76.5966 123.72C81.5546 118.054 99.0255 105.778 91.2344 97.9869Z" fill="#1B2F50"/>
<path d="M91.2344 97.9868C99.0255 105.777 81.5545 118.054 76.5965 123.719C69.5137 120.414 48.0292 100.584 63.6114 96.5704C69.7498 94.9178 72.5829 102.236 75.18 102.708C78.2492 103.181 85.0959 91.6127 91.2344 97.9868Z" fill="#FDFDFD"/>
</svg>
