<svg width="146" height="158" viewBox="0 0 146 158" fill="none" xmlns="http://www.w3.org/2000/svg">
<path fill-rule="evenodd" clip-rule="evenodd" d="M55.1831 158.006C54.4748 154.937 54.2387 139.12 53.5304 138.412C51.8778 136.759 22.8383 144.314 18.5886 123.067C17.4081 117.401 19.7691 104.889 17.4081 101.583C14.575 97.0979 1.3538 101.347 0.645514 90.0155C0.173326 82.2249 14.1029 69.9488 17.1721 62.6303C24.2549 46.1048 19.769 35.9535 35.8234 19.664C88.2362 -33.2177 184.563 36.1895 129.317 102.528C126.72 105.833 120.345 107.486 120.345 112.915V158.006H55.1831ZM115.151 103.236C138.524 91.9043 143.954 61.2139 133.094 38.7864C111.846 -5.12435 41.7257 -0.638725 27.5601 46.5771C25.6714 52.9513 26.1436 60.5057 24.0187 65.9355C22.3661 69.9488 5.1313 87.4187 7.72833 90.9598C11.0336 92.6124 23.0744 94.2651 24.4909 96.1538C26.8519 99.4589 24.2548 115.276 25.6714 121.414C28.9767 136.051 49.5168 130.621 60.6132 131.566C60.8493 135.343 58.9607 152.576 63.2104 152.576H112.554C112.79 152.576 115.151 150.216 115.151 149.98V103.236Z" fill="#1B2F50"/>
<path fill-rule="evenodd" clip-rule="evenodd" d="M115.151 103.236V149.98C115.151 150.216 112.79 152.577 112.554 152.577H63.2104C58.9607 152.577 60.8494 135.343 60.6133 131.566C49.5169 130.622 28.9768 136.051 25.6715 121.414C24.2549 115.276 26.8519 99.4592 24.491 96.1541C23.0744 94.2655 11.0337 92.6127 7.7284 90.9602C5.13137 87.419 22.3661 69.9492 24.0188 65.9358C26.1436 60.506 25.6714 52.9516 27.5602 46.5775C41.7258 -0.638383 111.846 -5.124 133.094 38.7867C143.954 61.2143 138.524 91.9047 115.151 103.236ZM75.9594 29.8156C56.1275 32.8846 49.9891 56.0204 58.9606 72.3099C60.6133 75.1428 64.627 77.0316 65.5714 79.8646C67.4601 86.9469 63.9186 103 75.9594 106.541C100.513 113.86 94.6108 90.7242 97.9161 79.8646C98.6244 77.5038 104.055 73.2542 106.179 68.7687C116.331 47.2855 99.3327 26.0383 75.9594 29.8156Z" fill="#FDFDFD"/>
<path fill-rule="evenodd" clip-rule="evenodd" d="M75.9595 29.8155C99.3328 26.0382 116.332 47.2854 106.179 68.7686C104.055 73.2541 98.6245 77.5037 97.9162 79.8645C94.6109 90.7241 100.513 113.86 75.9595 106.541C63.9187 103 67.4602 86.9468 65.5715 79.8645C64.6271 77.0315 60.6134 75.1427 58.9607 72.3098C49.9892 56.0203 56.1276 32.8845 75.9595 29.8155ZM90.3613 85.7664C87.2921 73.4903 98.6246 72.782 101.694 62.3946C109.721 33.5929 66.7518 26.0382 61.3217 52.243C57.7803 68.2964 75.7235 70.8935 72.8903 85.7664H78.0844C77.8483 81.0449 79.0287 75.3788 77.8482 71.1294C76.6678 67.3521 68.6406 63.5749 69.3489 60.2698C71.0016 52.2431 79.501 64.9915 82.3341 64.5193C84.9311 64.0472 88.0003 56.7287 91.3056 57.4369C99.3328 59.0895 86.8198 68.2964 86.1115 69.949C83.9867 74.4345 85.6394 80.5727 85.1672 85.7664H90.3613ZM90.3613 92.8488C86.1116 92.8488 81.6258 92.3767 77.14 92.8488C75.2512 92.8488 71.2377 91.6684 72.8903 95.4456C76.4317 104.417 89.1809 103 90.3613 92.8488Z" fill="#1B2F50"/>
<path d="M90.361 85.7663H85.1669C85.6391 80.5726 83.9864 74.4344 86.1112 69.9488C86.8195 68.2963 99.3325 59.0894 91.3053 57.4368C88 56.7286 84.9308 64.047 82.3338 64.5192C79.5006 64.9914 71.0013 52.243 69.3486 60.2697C68.6403 63.5748 76.6675 67.352 77.8479 71.1292C79.0284 75.3787 77.848 81.0447 78.0841 85.7663H72.89C75.7231 70.8933 57.78 68.2963 61.3214 52.2429C66.7515 26.0381 109.721 33.5928 101.693 62.3944C98.6243 72.7819 87.2918 73.4902 90.361 85.7663Z" fill="#FDFDFD"/>
<path d="M90.3609 92.8489C89.4165 103 76.6674 104.417 72.8899 95.4457C71.4734 91.6684 75.2508 92.8489 77.1396 92.8489C81.6254 92.3767 86.1112 92.8489 90.3609 92.8489Z" fill="#FDFDFD"/>
</svg>
