<svg width="153" height="153" viewBox="0 0 153 153" fill="none" xmlns="http://www.w3.org/2000/svg">
<path d="M40.7547 6.51261C53.5038 18.5527 52.3233 16.664 66.725 25.635C69.7942 27.5236 74.5161 34.6062 77.3492 34.1341C78.0575 33.898 86.3208 25.3991 89.8622 23.5105C93.8758 21.1497 98.3616 20.9134 102.139 18.3166C105.917 15.9558 117.957 -0.0976071 121.499 0.610631C123.388 1.08279 125.04 5.56835 123.86 7.45699C123.624 7.92914 120.79 8.40136 119.846 9.58176C116.305 13.359 108.986 23.2742 105.68 25.3989C100.486 28.7041 88.4457 28.7042 87.2652 36.7309C86.0847 43.105 93.8758 35.5503 98.1254 36.2585C100.014 36.4946 104.028 38.8556 104.972 40.2721C107.569 44.0493 109.222 69.3096 114.416 69.3096C119.846 69.3096 126.221 50.4233 128.582 46.6461C130.706 43.341 150.302 21.8577 152.427 31.5369C149.122 39.5636 138.025 44.9937 134.012 51.84C131.651 55.6173 131.651 59.6304 129.526 63.4076C127.637 66.7128 119.138 74.7396 119.138 75.6839C118.43 78.753 127.401 84.8909 129.29 88.196C134.248 97.4031 131.415 95.9867 139.442 105.194C141.567 107.555 152.663 119.831 152.427 121.247C145.816 128.566 144.4 120.067 140.858 116.998C137.081 113.693 130.234 109.679 127.637 105.666C124.804 100.708 121.735 83.4744 112.763 83.4744C108.277 83.4744 87.2652 108.499 81.8351 112.512C87.9735 123.372 98.1255 122.9 105.68 127.385C110.402 130.218 115.124 138.481 118.902 142.73C119.374 143.203 130.706 150.285 121.499 152.174C120.082 152.41 107.805 141.314 105.444 139.189C96.709 131.871 95.5285 132.579 86.5569 127.149C83.4877 125.26 79.4741 119.358 77.3492 118.886C75.4605 118.65 61.5309 125.024 59.17 126.677C51.8511 131.635 41.4629 147.688 34.3801 151.229C32.0192 152.646 29.4221 151.465 29.186 149.577C28.4778 146.271 54.4481 123.608 57.2813 117.942C68.8498 115.817 103.083 87.0157 107.333 78.2807C109.458 73.7952 109.458 69.5458 104.264 71.4344C100.25 72.8509 87.7374 91.0289 83.7238 87.0156C79.7102 83.0022 100.25 67.8933 102.139 64.116C103.556 61.5191 104.5 57.9778 100.486 58.6861C94.3479 59.8665 79.238 82.5302 74.9883 78.2807C69.5581 72.8509 105.917 49.7151 99.5421 43.1049C95.5285 38.8555 72.8634 66.7128 68.6137 69.3096C64.364 70.0179 65.7806 66.4768 66.961 64.116C70.9746 56.5615 88.4456 48.5349 80.8906 41.2164C78.7658 40.7443 57.2813 62.9355 53.7398 66.7128C50.6706 69.7818 47.3653 78.2806 41.2269 70.49C37.9216 66.2406 42.4073 56.7975 34.3801 57.0336C33.6719 66.4768 31.311 76.6283 30.6027 86.0715C30.3666 90.0848 32.9636 94.8062 31.7832 97.6391C31.0749 99.2917 7.70163 122.428 6.28506 123.136C3.92413 124.316 1.32698 123.136 0.854793 121.247C-0.0895821 116.998 21.8672 101.653 23.5199 96.2227C24.7003 91.9733 26.3529 66.2408 25.6446 61.2832C24.7003 53.7286 -0.0895821 36.7307 0.854793 31.5369C2.97964 29.4122 2.97975 28.232 6.28506 29.6485C11.4791 32.4814 26.8251 51.84 28.4778 51.84C30.8387 52.0761 33.4358 50.1872 36.505 50.4233C44.2961 50.8954 47.3653 56.7975 46.657 64.116L71.2108 40.2721C65.7807 30.3567 54.6843 30.3566 47.6015 25.3989C45.7127 24.2186 30.1305 7.45704 29.8944 6.04057C27.0613 -3.4026 37.2133 3.44358 40.7547 6.51261Z" fill="#1B2F50"/>
</svg>
