<svg width="66" height="66" viewBox="0 0 66 66" fill="none" xmlns="http://www.w3.org/2000/svg">
<path fill-rule="evenodd" clip-rule="evenodd" d="M58.8 40.9998C58.6 42.0998 56.8 44.8999 56.9 45.7999C57.1 46.5999 59.2 49.5998 59.6 50.5998C60 51.4998 60.1001 51.8998 59.5001 52.6998C58.9001 53.5998 53.3 59.0998 52.6 59.5998C52.4 59.6998 52.2001 59.8999 52.0001 59.8999C51.0001 60.0999 47.5 57.3998 46.2 56.9998C45.1 56.5998 42.4001 58.4998 41.0001 58.6998C40.4001 60.3998 40.1 62.8998 39.3 64.4998C39.2 64.8998 39 65.1998 38.6 65.3998H27.6C26.7 65.0998 26 59.2998 25.1 58.5998C24.9 58.4998 20.8001 56.8999 20.5001 56.8999C19.6001 56.8999 16.3001 59.4999 15.0001 59.7999C14.7001 59.8999 14.6 59.8999 14.3 59.8999C12.9 59.3999 8.30001 53.4999 6.70001 52.3999C6.50001 52.1999 6.40002 51.9998 6.40002 51.6998C6.30002 50.3998 9.20002 46.8999 9.40002 45.3999C8.70002 44.5999 8.10006 41.5998 7.50006 40.9998C6.60006 40.1998 1.50005 39.7998 0.800049 38.4998V27.8999C0.900049 27.3999 1.10004 27.2998 1.60004 26.9998C2.60004 26.4998 7.20004 25.5998 7.60004 25.1998C7.60004 24.0998 9.50006 21.2998 9.50006 20.6998C9.50006 19.5998 6.90006 16.3998 6.50006 15.0998C6.40006 14.6998 6.30006 14.3998 6.50006 13.9998C9.00006 11.3998 11.4 8.89983 14.1 6.49983C14.5 6.19983 14.8 6.29985 15.2 6.39985C16.5 6.79985 19.8 9.49988 20.9 9.29988C21.1 9.29988 25.2 7.59985 25.3 7.39985C25.9 6.79985 26.5 2.69983 27.1 1.49983C27.5 0.699828 27.8 0.699803 28.6 0.599803C31.7 0.399803 35.3 0.799779 38.4 0.699779C38.8 0.799779 39 0.899779 39.2 1.19978C39.9 2.39978 40.4 6.9998 41.3 7.5998C42.2 8.2998 44.6 8.59985 45.7 9.39985C46.5 9.39985 50 6.79985 51.3 6.39985C51.6 6.29985 51.8 6.29985 52.1 6.39985C53.5 6.89985 58.3 12.8998 59.9 14.0998C60 14.2998 60 14.5999 59.9 14.8999C59.6 16.2999 57.7001 18.5998 57.0001 20.0998C56.9001 20.3998 56.9001 20.5999 57.0001 20.7999C57.0001 21.0999 58.7 25.0999 58.9 25.2999C59.9 25.7999 65 26.6999 65.4 27.2999V38.6998C65 39.4998 59.8 40.4998 58.8 40.9998ZM37.3 3.29988H29.2C28.9 3.59988 28.1 8.59985 27.3 9.39985C26.5 10.2999 22.1 11.0998 20.9 12.1998C19.6 12.3998 16.7 9.89983 15.4 9.49983C15.1 9.39983 14.8001 9.29983 14.5001 9.49983L9.50006 14.5998C9.50006 16.1998 12.2 19.0998 12.3 20.4998C12.4 21.3998 9.80005 25.4999 9.80005 26.8999C9.60005 27.1999 9.40004 27.3998 9.10004 27.4998C8.30004 27.8998 3.40005 28.8998 3.30005 29.1998L3.50006 36.9998C3.80006 37.4998 9.00004 38.2999 9.60004 38.8999C10 39.2999 10.4 41.2998 10.7 41.9998C11 42.6998 12.2 44.6998 12.3 45.1998C12.6 46.5998 9.90004 49.4998 9.60004 50.9998C9.50004 51.1998 9.40004 51.3998 9.60004 51.5998L14.9 56.7999C15.6 56.9999 19.4001 54.0998 20.5001 53.9998C21.5001 53.9998 22.6001 54.8998 23.5001 55.1998C24.3001 55.4998 26.8 56.2998 27.2 56.5998C28 57.1998 28.5 61.3998 29.1 62.4998C29.3 62.7998 29.3 62.8998 29.7 62.9998C30.4 63.0998 36.8 63.0999 37.1 62.8999C37.8 61.5999 38.2001 57.6999 39.0001 56.7999C39.2001 56.4999 42.8001 55.2999 43.5001 54.8999C44.5001 54.4999 45.1 53.7998 46.3 54.0998L51.2 56.7999H51.7L56.9 51.4998C57.1 50.6998 54.1 46.8998 54.1 45.5998C54.1 44.9998 55.4 42.5999 55.7 41.7999C56.2 40.6999 56.2 39.1998 57.3 38.6998C58.7 37.9998 61.4 37.7998 62.7 37.0998C63 36.9998 63 36.9998 63.1 36.5998C63.5 34.5998 62.8 31.2998 63.1 29.0998C62.8 28.8998 57.4 27.8998 56.7 27.1998C56.5 26.9998 55.8001 24.4999 55.5001 23.7999C55.0001 22.5999 53.8 21.2999 54.2 19.8999C54.5 18.8999 57.2 15.2998 56.9 14.6998C55.8 13.9998 52.3001 9.59985 51.5001 9.39985C50.6001 9.19985 46.9 12.2999 45.7 12.2999C45.3 12.2999 42.7 10.8998 42.1 10.5998C41.3 10.2998 39.7 9.9998 39.2 9.5998C38.6 9.1998 37.4 4.29988 37.3 3.29988Z" fill="#FEFEFE"/>
<path fill-rule="evenodd" clip-rule="evenodd" d="M37.3 3.2998C37.4 4.2998 38.6 9.19973 39.2 9.59973C39.7 9.99973 41.3 10.2997 42.1 10.5997C42.7 10.8997 45.3 12.2998 45.7 12.2998C46.9 12.2998 50.6001 9.19978 51.5001 9.39978C52.3001 9.59978 55.8 13.9997 56.9 14.6997C57.2 15.2997 54.5 18.8998 54.2 19.8998C53.8 21.2998 55.0001 22.5998 55.5001 23.7998C55.8001 24.4998 56.5 26.9997 56.7 27.1997C57.4 27.8997 62.8 28.8997 63.1 29.0997C62.8 31.2997 63.5 34.5997 63.1 36.5997C63 36.9997 63 36.9997 62.7 37.0997C61.4 37.7997 58.7 37.9997 57.3 38.6997C56.2 39.1997 56.2 40.6998 55.7 41.7998C55.4 42.5998 54.1 44.9997 54.1 45.5997C54.1 46.8997 57.1 50.6998 56.9 51.4998L51.7 56.7998H51.2L46.3 54.0997C45.1 53.7997 44.5001 54.4998 43.5001 54.8998C42.8001 55.2998 39.2001 56.4998 39.0001 56.7998C38.2001 57.6998 37.8 61.5998 37.1 62.8998C36.8 63.0998 30.4 63.0998 29.7 62.9998C29.3 62.8998 29.3 62.7998 29.1 62.4998C28.5 61.3998 28 57.1997 27.2 56.5997C26.8 56.2997 24.3001 55.4997 23.5001 55.1997C22.6001 54.8997 21.5001 53.9998 20.5001 53.9998C19.4001 54.0998 15.6 56.9998 14.9 56.7998L9.60004 51.5997C9.40004 51.3997 9.50004 51.1998 9.60004 50.9998C9.90004 49.4998 12.6 46.5997 12.3 45.1997C12.2 44.6997 11 42.6998 10.7 41.9998C10.4 41.2998 10 39.2998 9.60004 38.8998C9.00004 38.2998 3.80006 37.4998 3.50006 36.9998L3.30005 29.1997C3.40005 28.8997 8.30004 27.8998 9.10004 27.4998C9.40004 27.3998 9.60005 27.1998 9.80005 26.8998C9.80005 25.4998 12.4 21.3998 12.3 20.4998C12.2 19.0998 9.50006 16.1997 9.50006 14.5997L14.5001 9.49976C14.8001 9.29976 15.1 9.39976 15.4 9.49976C16.7 9.89976 19.6 12.3997 20.9 12.1997C22.1 11.0997 26.5 10.2998 27.3 9.39978C28.1 8.59978 28.9 3.5998 29.2 3.2998H37.3ZM28.1 34.3998V22.6997C28.1 22.5997 27.6001 22.0998 27.5001 21.9998C26.3001 21.4998 25.8 22.6998 25.1 23.2998L15.3 34.9998C15 35.4998 15.3001 36.9998 16.0001 36.9998H25.7V43.6997C25.7 44.3997 28.1 44.4997 28.1 43.6997V36.9998C32.6 37.6998 32.5 33.6998 28.1 34.3998ZM40.1 21.8998C37.8 22.2998 35.5 24.2998 34.8 26.4998C34.2 28.2998 34.2001 36.2998 34.5001 38.3998C35.2001 45.2998 45.4 46.5998 47.8 39.8998C48.5 37.7998 48.5001 28.9998 48.0001 26.8998C47.0001 23.3998 43.6 21.3998 40.1 21.8998ZM31.6 41.7998C30.2 42.1998 30.6 44.5998 32.1 44.3998C33.9 44.0998 33.6 41.1998 31.6 41.7998Z" fill="#F68C2E"/>
<path fill-rule="evenodd" clip-rule="evenodd" d="M40.1 21.8998C43.6 21.3998 47 23.3998 47.9 26.8998C48.5 28.9998 48.4 37.7998 47.7 39.8998C45.3 46.5998 35.2 45.2998 34.4 38.3998C34.2 36.2998 34.2 28.2997 34.8 26.4997C35.5 24.2997 37.8 22.2998 40.1 21.8998ZM40.3 24.5997C37.7 24.9997 37 27.3997 36.8 29.5997C36.7 32.0997 36.7 35.6997 37 38.1997C37.6 42.7997 44.5 42.9997 45.5 38.4997C45.8 36.8997 45.8 30.0998 45.6 28.2998C45.3 25.5998 42.9 24.0997 40.3 24.5997Z" fill="#FEFEFE"/>
<path fill-rule="evenodd" clip-rule="evenodd" d="M28.1 34.2999C32.5 33.6999 32.6 37.6998 28.1 36.9998V43.5998C28.1 44.4998 25.7 44.3998 25.7 43.5998V36.9998H15.9C15.2 36.9998 15 35.4998 15.3 34.9998L25.0001 23.2999C25.7001 22.6999 26.3 21.4998 27.4 21.9998C27.5 21.9998 28.1 22.5998 28.1 22.5998V34.2999ZM25.7 26.8999C25.3 26.7999 25.1 27.0999 24.9 27.2999C23.2 29.0999 20.9 31.8999 19.4 33.8999C19.3 34.0999 19 34.1998 19.1 34.5998H25.3C25.4 34.5998 25.7 34.2998 25.7 34.1998V26.8999Z" fill="#FEFEFE"/>
<path d="M31.5001 41.7998C33.5001 41.1998 33.8001 44.0997 32.1001 44.3997C30.6001 44.5997 30.1001 42.1998 31.5001 41.7998Z" fill="#FEFEFE"/>
<path d="M40.3 24.5998C42.9 24.0998 45.3 25.5998 45.6 28.2998C45.8 30.0998 45.8001 36.8998 45.5001 38.4998C44.5001 42.9998 37.6001 42.7997 37.0001 38.1997C36.7001 35.6997 36.7 32.0998 36.8 29.5998C37 27.3998 37.7 24.9998 40.3 24.5998Z" fill="#F68C2E"/>
<path d="M25.6999 26.8997V34.1997C25.6999 34.2997 25.4 34.5997 25.3 34.5997H19.1C19 34.1997 19.2999 34.0997 19.3999 33.8997C20.8999 31.8997 23.1999 29.0998 24.8999 27.2998C25.0999 27.0998 25.2999 26.7997 25.6999 26.8997Z" fill="#F68C2E"/>
</svg>
