<svg width="63" height="64" viewBox="0 0 63 64" fill="none" xmlns="http://www.w3.org/2000/svg">
<path fill-rule="evenodd" clip-rule="evenodd" d="M24.0001 40.6H36.2V28.9001C36.2 28.8001 36.7 28.3 36.9 28.2H50.7C51.1 28.6 51.3 29 51.3 29.5C51.7 32.9 51 37.1 51.3 40.6C64.9 40.8 66.5 60.0001 53.3 62.8001C36 63.4001 18.6 63.1 1.20001 63C-0.299989 62.7 -0.199952 60.7 1.30005 60.5H51.2C61.9 59.8 62.9 45.8 52.9 43.2H2.00006C1.00006 43.1 -0.099989 42.6001 0.200011 41.4001C0.300011 41.3001 0.800023 40.6 0.900023 40.6H8.90002V28.9001C8.90002 28.7001 9.70004 28 10.1 28.1C14 28.5 19 27.6 22.8 28.1C23.4 28.2 24.0001 28.7001 24.0001 29.3001V40.6ZM21.3 40.6V30.9001L21.0001 30.6H11.5001V40.6H21.3ZM48.6 30.6H38.8V40.6H48.6V30.6Z" fill="#FEFEFE"/>
<path fill-rule="evenodd" clip-rule="evenodd" d="M45 11.6001C45.1 12.1001 47 11.9001 47.6 12.0001C48.6 12.2001 49.9 13.2001 50.4 14.0001C50.9 14.8001 51 15.8001 51.4 16.3001C52.5 17.7001 57.3 20.2 59 21.7C59.7 22.3 60 22.6001 60.1 23.6001C60.2 24.9001 60.2 31.6001 59.9 32.4001C59.8 32.7001 56.1 36.4001 55.8 36.6001C54.3 37.4001 53.2 36.3001 53.8 34.9001C54.2 34.1001 57.2 32 57.4 31.2C57.5 30.7 57.6 24.9001 57.4 24.3001C57.2 23.1001 51.9 20.4 51 19.2L50.7 19.1001C50.3 20.4001 49 21.3 47.9 21.7C46.4 22.2 41.7 22.2001 40.2 21.8001C38.9 21.6001 37.1 20.5001 36.9 19.1001H36.6L30.1 23.9001C30.4 25.8001 29.6 29.5 30.1 31.2C30.4 32.1 33.7 34.3 33.8 35.2C34 36.6 32.9 37.3001 31.7 36.7001C31.4 36.5001 27.7 32.6001 27.6 32.3001L27.5 22.8001C27.6 22.5001 28.3 21.9 28.6 21.7C30.6 20 34.3 18.2001 35.9 16.5001C36.5 15.9001 36.5 15.0001 37 14.3001C37.5 13.4001 38.9 12.2001 39.9 12.0001C40.5 11.9001 42.6 12.1001 42.6 11.6001V5.0001C42.6 4.3001 45 4.3001 45 5.0001C45 6.3001 44.7 10.8001 45 11.6001ZM48 15.1001C46.9 14.1001 41.9 14.1001 40.5 14.6001C38.1 15.3001 38.4 18.8001 40.5 19.3001C41.3 19.5001 46.2 19.5001 47 19.3001C48.8 18.9001 49.3 16.2001 48 15.1001Z" fill="#FEFEFE"/>
<path d="M0.899984 0.800049H61.3C62.8 0.900049 62.8 2.99995 61.3 3.19995H1.30001C8.9407e-06 2.99995 -0.300016 1.50005 0.899984 0.800049Z" fill="#FEFEFE"/>
<path fill-rule="evenodd" clip-rule="evenodd" d="M6.2001 45.4C14.5001 45.1 14.9001 57.8 6.60012 58.1C-1.59988 58.4 -2.0999 45.8 6.2001 45.4ZM5.80013 48.1C4.50013 48.3 3.00013 49.7 2.80013 51C2.10013 55.3 7.50012 57.0999 9.60012 53.6999C11.3001 50.9999 8.80013 47.6 5.80013 48.1Z" fill="#FEFEFE"/>
<path fill-rule="evenodd" clip-rule="evenodd" d="M21.1 45.4002C29.5 45.1002 29.8 58.0001 21.5 58.1001C13.3 58.2001 12.9 45.8002 21.1 45.4002ZM20.9 48.1001C16.2 48.6001 16.8 56.1002 21.9 55.4002C26.5 54.9002 25.9 47.5001 20.9 48.1001Z" fill="#FEFEFE"/>
<path fill-rule="evenodd" clip-rule="evenodd" d="M40.7 56.3001C34.8 62.2001 26 53 31.8 47.2C37.7 41.5 46.6 50.4001 40.7 56.3001ZM35.7 48.1C30.9 48.8 32 56.2001 37 55.4001C41.5 54.7001 40.6 47.3 35.7 48.1Z" fill="#FEFEFE"/>
<path fill-rule="evenodd" clip-rule="evenodd" d="M55.8 47.4C61.5 53.5 52.2 62.0999 46.6 56.0999C41 50.0999 50.1 41.4 55.8 47.4ZM50.6 48.0999C46.1 48.7999 46.7 56.1 51.8 55.4C56.5 54.9 55.6 47.2999 50.6 48.0999Z" fill="#FEFEFE"/>
<path d="M48.7 30.5V40.6H38.8V30.5H48.7Z" fill="#F68C2E"/>
<path d="M21.3 40.6H11.5V30.5H21L21.3 30.8V40.6Z" fill="#F68C2E"/>
<path d="M48 15.0999C49.3 16.1999 48.8 18.9 47 19.3C46.2 19.5 41.3 19.5 40.5 19.3C38.4 18.8 38.1 15.2999 40.5 14.5999C41.9 14.0999 46.9 14.0999 48 15.0999Z" fill="#F68C2E"/>
<path d="M5.80007 48.1001C8.80007 47.6001 11.3001 51.0001 9.60005 53.7001C7.50005 57.1001 2.10007 55.3002 2.80007 51.0002C3.00007 49.7002 4.50007 48.3001 5.80007 48.1001Z" fill="#F68C2E"/>
<path d="M20.9 48.1C25.9 47.5 26.5 54.9001 21.9 55.4001C16.8 56.1001 16.2 48.6 20.9 48.1Z" fill="#F68C2E"/>
<path d="M35.7 48.0999C40.6 47.2999 41.5 54.7 37 55.4C32 56.2 30.9 48.7999 35.7 48.0999Z" fill="#F68C2E"/>
<path d="M50.6001 48.1C55.6001 47.3 56.5001 54.9 51.8001 55.4C46.7001 56.1 46.1001 48.8 50.6001 48.1Z" fill="#F68C2E"/>
</svg>
