<svg width="63" height="64" viewBox="0 0 63 64" fill="none" xmlns="http://www.w3.org/2000/svg">
<path d="M40.9 25.6999C41.5 25.8999 41.6 26.4 41.6 26.9C42 30.9 41.3 35.6 41.6 39.6C41.3 41.2 39 40.7 39 39.6V28.1999H35.8C35.6 28.1999 35.5 28.7 35.5 28.9C35.1 32.3 35.8 36.4 35.4 39.8C35.1 41.1 32.9 40.5 32.9 40.1V23.3H29.1V39.9C29.1 40.9 26.5 40.9 26.5 39.6V34.5H23V39.6C23 40.6 20.7 41.2 20.5 39.8C20.3 38.9 20.2 33.8 20.4 32.9C20.5 32.6 20.9999 31.9 21.1999 31.9H26.5V21.6999C26.5 21.3999 27.1 20.7999 27.5 20.6999C28.1 20.5999 34.1999 20.6 34.6999 20.8C36.1999 21.2 35 25.6999 35.8 25.6999C37.2 25.6999 39.6 25.4999 40.9 25.6999Z" fill="#FEFEFE"/>
<path fill-rule="evenodd" clip-rule="evenodd" d="M15.1999 23.0998C14.9999 23.1998 14 25.8999 13.9 26.2999C10.4 37.6999 17.9 48.7999 29.5 50.3999C30.5 50.5999 32.7 50.0999 32.9 51.4999C33.2 53.3999 31.3 53.1998 29.9 53.0998C15.4 52.2998 7.09995 37.1999 11.9 23.8999C12.1 23.3999 12.9 22.2999 12.9 21.8999C13 21.3999 12.2 20.6998 12 20.1998C10.5 16.2998 14 12.1999 18 13.2999C23.5 14.7999 22.8 23.0999 16.6 23.2999C16.2 23.3999 15.4999 22.9998 15.1999 23.0998ZM16.4 15.6998C13.3 16.0998 13.6 20.7998 16.8 20.6998C20.1 20.5998 19.8 15.2998 16.4 15.6998Z" fill="#FEFEFE"/>
<path fill-rule="evenodd" clip-rule="evenodd" d="M48.1 40.5999C53.9 29.4999 47.2 15.6999 34.9 13.5999C33.8 13.3999 31 13.4998 30.5 12.6998C29.8 11.3998 31.1 10.5999 32.3 10.5999C46.5 10.9999 56 25.1999 51.8 38.4999C51.6 39.1999 50.4 41.5999 50.4 41.9999C50.4 42.4999 51.6 44.0999 51.6 45.3999C52 52.0999 40.7 52.6998 41.6 44.6998C42 41.3998 45.3 40.1999 48.1 40.5999ZM46.4 43.0999C43.2 43.3999 43.3 48.2999 46.8 48.0999C50.2 47.7999 49.4 42.7999 46.4 43.0999Z" fill="#FEFEFE"/>
<path fill-rule="evenodd" clip-rule="evenodd" d="M9.39996 48.0998C17.4 46.7998 17.4 59.1998 9.59997 58.0998C4.09997 57.1998 4.29996 48.9998 9.39996 48.0998ZM9.59997 50.6998C7.49997 51.1998 7.49997 54.8998 9.59997 55.3998C13.9 56.4998 14.1 49.6998 9.59997 50.6998Z" fill="#FEFEFE"/>
<path fill-rule="evenodd" clip-rule="evenodd" d="M51.4 5.89983C55.9 4.99983 59.4 9.09976 57.2 13.1998C54.8 17.6998 47.5 15.8998 47.7 10.4998C47.8 8.59981 49.4 6.29983 51.4 5.89983ZM52.3 8.29986C49.3 8.79986 49.8 13.6999 53.1 13.2999C56.2 12.8999 55.8 7.69986 52.3 8.29986Z" fill="#FEFEFE"/>
<path d="M1.00002 28.7998C0.300019 28.0998 0.699982 24.3998 2.89998 25.3998C3.79998 25.8998 3.49999 27.9997 3.09999 28.6997C2.69999 29.1997 1.40002 29.0998 1.00002 28.7998Z" fill="#FEFEFE"/>
<path d="M58.8 42.6997C61.4 42.4997 60.0999 47.0998 57.6999 46.2998C56.5999 45.8998 57.4 42.6997 58.8 42.6997Z" fill="#FEFEFE"/>
<path d="M1.30002 33.6997C3.70002 32.8997 3.90003 36.8998 2.50003 37.2998C0.200027 37.9998 0.100015 33.9997 1.30002 33.6997Z" fill="#FEFEFE"/>
<path d="M46.5 58.2999C44.9 56.6999 48.5 54.1999 49.5 55.7999C50.6 57.5999 47.4 59.1999 46.5 58.2999Z" fill="#FEFEFE"/>
<path d="M55.1 52.5997C53.8 53.7997 51.9999 53.1998 52.6999 51.2998C53.5999 48.2998 57.7 50.0997 55.1 52.5997Z" fill="#FEFEFE"/>
<path d="M40.5 58.9998C42.8 58.6998 43 61.2999 40.8 61.7999C37.8 62.3999 37.7 59.3998 40.5 58.9998Z" fill="#FEFEFE"/>
<path d="M16.8 7.49993C16.3 8.19993 14 9.09995 13.7 7.89995C13 5.79995 16.5 4.29993 17 5.99993C17.2 6.49993 17.2 7.09993 16.8 7.49993Z" fill="#FEFEFE"/>
<path d="M60.8 34.7998C63.5 33.9998 62.9 39.5998 60.2 38.2998C59.3 37.8998 59.7 35.0998 60.8 34.7998Z" fill="#FEFEFE"/>
<path d="M60.8 26.3998C62.8 25.8998 63.5999 30.1998 61.3999 30.2998C59.6999 30.3998 59.5 26.7998 60.8 26.3998Z" fill="#FEFEFE"/>
<path d="M32.6 1.09981C33 1.49981 32.9 2.39986 32.6 2.89986C32 3.79986 28.7 3.89981 29.1 1.59981C29.3 0.499814 32.1 0.599814 32.6 1.09981Z" fill="#FEFEFE"/>
<path d="M3.39994 20.8999C2.49994 20.0999 3.69996 16.3998 5.59996 17.6998C7.09996 18.5998 4.99994 22.2999 3.39994 20.8999Z" fill="#FEFEFE"/>
<path d="M25.6 59.9C26.1 60.4 26 62.0999 25.1 62.1999C23.8 62.3999 21.6 61.7999 22.3 60.1999C22.8 59.0999 25 59.3 25.6 59.9Z" fill="#FEFEFE"/>
<path d="M38.5 1.5C38.8 1.5 40.7 2.00005 40.9 2.30005C41.2 2.90005 41 4.10002 40.3 4.40002C39.5 4.80002 37.3 4.00002 37.3 2.90002C37.3 2.30002 37.9 1.6 38.5 1.5Z" fill="#FEFEFE"/>
<path d="M23 1.89992C25.1 1.59992 25.5 4.29985 23.1 4.69985C20.2 5.19985 20.3 2.29992 23 1.89992Z" fill="#FEFEFE"/>
<path d="M10.5 10.8999C11.7 12.0999 8.89998 15.2999 7.69998 13.5999C6.59998 12.0999 9.30003 9.69995 10.5 10.8999Z" fill="#FEFEFE"/>
<path d="M30.6999 60.8C31.2999 60.3 33.9999 60.1999 34.1999 61.4999C34.4999 63.5999 30.7 63.5999 30.5 62.1999C30.4 61.7999 30.4999 61 30.6999 60.8Z" fill="#FEFEFE"/>
<path d="M58.8 18.9999C60.7 18.5999 61.4 21.8998 59.6 22.1998C57.8 22.4998 57.1 19.3999 58.8 18.9999Z" fill="#FEFEFE"/>
<path d="M15.7 56.3999C17.9 55.7999 19.1 58.3999 17.6 59.0999C15.6 59.9999 14.2 56.8999 15.7 56.3999Z" fill="#FEFEFE"/>
<path d="M46.1999 4.59987C47.3999 4.29987 49.1 6.39995 47.6 7.29995C45.6 8.49995 43.7999 4.99987 46.1999 4.59987Z" fill="#FEFEFE"/>
<path d="M3.29998 41.7999C5.49998 41.0999 5.79996 44.1998 4.89996 44.6998C2.79996 45.6998 1.89998 42.1999 3.29998 41.7999Z" fill="#FEFEFE"/>
<path d="M16.3999 15.6998C19.7999 15.2998 20.1 20.5998 16.8 20.6998C13.6 20.7998 13.2999 16.0998 16.3999 15.6998Z" fill="#EF8C27"/>
<path d="M46.4 43.0999C49.4 42.7999 50.2 47.7999 46.8 48.0999C43.3 48.2999 43.2 43.3999 46.4 43.0999Z" fill="#EF8C27"/>
<path d="M9.59996 50.6999C14.1 49.6999 13.9 56.4999 9.59996 55.3999C7.49996 54.8999 7.49996 51.1999 9.59996 50.6999Z" fill="#EF8C27"/>
<path d="M52.3 8.30009C55.8 7.70009 56.2 12.9001 53.1 13.3001C49.8 13.7001 49.3 8.80009 52.3 8.30009Z" fill="#EF8C27"/>
</svg>
