<svg width="56" height="64" viewBox="0 0 56 64" fill="none" xmlns="http://www.w3.org/2000/svg">
<path fill-rule="evenodd" clip-rule="evenodd" d="M21.1 18.2C20.8 18.2 19.7 17.8 19.4 17.7C18.8 17.4 17.8 16.4 17.4 16.5C16.7 16.7 12.5 22.1 11.6 22.9C11.4 23.1 11.2001 23.2 11.0001 23.2C9.70006 23.5 4.20001 23.4 2.70001 23.3C0.800011 23.1 1.10269e-05 21.9 1.70001 20.7L10.3 20.5L15.7 14.4C16.1 12.9 15.8 11.3 15.8 9.69995L10.4 3.59998C8.70002 2.89998 2.20004 4.00002 1.10004 2.90002C0.500035 2.30002 0.800011 1.10005 1.70001 0.800049H11.2L17.4 7.5C18.6 6.7 19.5 5.90005 21.1 5.80005C28.9 5.10005 37.8 6.30005 45.8 5.80005C49.8 6.60005 51.7 10.8 50.3 14.5C55.3 14.7 57.5 21.2 54.1 24.8L42.6 36.3C42.2 36.9 42.9001 37.9 43.0001 38.8C43.2001 39.8 43.2 41 43.3 41.9C44.5 48 46.7001 54.2 48.0001 60.2C48.5001 60.9 53.8 60.1 54.9 60.5C56.4 60.9 55.7 63.5 53.9 63.1L1.90002 63C0.700023 62.9 0.50006 61 1.50006 60.6C2.60006 60.1 6.70001 60.7 8.20001 60.5C8.40001 60.4 8.60001 60.4 8.70001 60.1C10.1 54 12 48 13.3 41.9C13.5 40.6 13.5 39.2 13.9 37.7C15.6 31.2 22.2001 26.5 29.0001 26.8C30.6001 26.8 32.3 27.5 33.9 27.5L43.1 18.2H21.1ZM19.5001 14.7C19.9001 15.1 20.9001 15.5 21.5001 15.6H45.1C49.2 14.8 49.1 8.79995 44.9 8.19995C37.6 8.79995 28.9 7.39995 21.7 8.19995C18.6 8.59995 17.2001 12.5 19.5001 14.7ZM48.7 17C48.2 17.1 47.4001 17.6 47.0001 17.9L25.6 39.4C22.8 42.8 26.7001 47.4 30.5001 44.7L52.5001 22.7C54.4001 19.9 52 16.3 48.7 17ZM31.2 29.6C24.9 28.2 18.3 31.9 16.4 38.1C13.2 48.9 24.6 58.1 34.4 52.6C39.2 50 41.8 44.1 40.3 38.8C40.1 38.8 37.4001 41.3 37.0001 41.7C35.2001 43.5 32.3 47.3 29.9 47.8C25 49 20.8 44.7 22.4 39.9C23.5 36.5 29.2001 33.3 31.0001 30.4C31.2001 30.1 31.3 30 31.2 29.6ZM11.3 60.5H45.2L42.1 47.8C37.5 57.9 23.9 60 16.7 51.3C15.7 50.1 15.3 48.9 14.4 47.8L11.3 60.5Z" fill="#FEFEFE"/>
<path d="M31.3 29.6C31.3 30 31.2 30.1001 31 30.4001C29.2 33.3001 23.5 36.5001 22.4 39.9001C20.8 44.7001 25 49.0001 29.9 47.8001C32.3 47.3001 35.2 43.5 37 41.7C37.4 41.3 40.1 38.8001 40.3 38.8001C41.8 44.1001 39.2 50 34.5 52.6C24.6 58.1 13.2 48.9 16.4 38.1C18.3 31.9 24.9 28.2 31.3 29.6Z" fill="#F68C2E"/>
<path fill-rule="evenodd" clip-rule="evenodd" d="M48.7 17.0001C52 16.3001 54.4001 19.9 52.5001 22.7L30.5001 44.7C26.7001 47.4 22.8 42.8001 25.6 39.4001L47.0001 17.9001C47.4001 17.6001 48.2 17.1001 48.7 17.0001ZM49.1 20.9001C48.6 20.4001 47.6 20.7 47.1 21.2C46.5 21.7 45.6 22.7001 45.8 23.5001C46.5 26.1001 50.6 22.4001 49.1 20.9001ZM28.7 41.6C30.3 42.9 33.8 38.3 30.9 38.1C29.9 38.1 27.4 40.5 28.7 41.6Z" fill="#F68C2E"/>
<path d="M11.3 60.5L14.4 47.8C15.3 48.9 15.7 50.1 16.7 51.3C23.9 60 37.5 57.9 42.1 47.8L45.3 60.5H11.3Z" fill="#F68C2E"/>
<path fill-rule="evenodd" clip-rule="evenodd" d="M19.5001 14.6998C17.2001 12.4998 18.7001 8.59983 21.8001 8.19983C28.9001 7.39983 37.6001 8.79983 44.9001 8.19983C49.2001 8.79983 49.3001 14.7998 45.1001 15.5998H21.5001C20.9001 15.4998 20.0001 15.0998 19.5001 14.6998ZM23.0001 12.8999C23.5001 13.3999 26.7001 13.4999 27.1001 12.3999C27.8001 9.8999 23.1001 10.1999 22.8001 11.3999C22.6001 11.7999 22.7001 12.6999 23.0001 12.8999Z" fill="#F68C2E"/>
<path d="M49.1 20.9C50.6 22.4 46.5 26.1 45.8 23.5C45.6 22.7 46.5 21.7 47.1 21.2C47.6 20.7 48.6 20.4 49.1 20.9Z" fill="#FEFEFE"/>
<path d="M28.7 41.6001C27.4 40.5001 29.9 38.1001 30.9 38.1001C33.8 38.3001 30.3 42.9001 28.7 41.6001Z" fill="#FEFEFE"/>
<path d="M23.0001 12.9001C22.7001 12.7001 22.6001 11.8001 22.8001 11.4001C23.1001 10.2001 27.8001 9.90012 27.1001 12.4001C26.7001 13.5001 23.5001 13.4001 23.0001 12.9001Z" fill="#FEFEFE"/>
</svg>
