<svg width="17" height="14" viewBox="0 0 17 14" fill="none" xmlns="http://www.w3.org/2000/svg">
<path d="M1.29997 0.799805C1.36664 0.799805 1.39998 0.799805 1.39998 0.799805C1.89998 0.899805 2.29998 1.4002 2.59998 1.7002C2.79998 1.83353 2.96664 1.96676 3.09998 2.1001C3.23331 2.23343 3.33331 2.33324 3.39998 2.3999C3.49998 2.3999 3.59998 2.6001 3.59998 2.6001C3.93331 2.86676 4.29998 3.16667 4.69998 3.5C5.36665 4.1 6.03332 4.6998 6.69998 5.2998C6.79998 5.3998 8.49997 6.8999 8.49997 6.8999L13.6 2.3999H9.19998C9.09998 2.3999 8.99998 2.2998 8.89998 2.2998C8.29998 1.8998 8.49998 0.899805 9.19998 0.799805H15.7C16.1 0.899805 16.4 1.1 16.5 1.5V8.1001C16.4 8.7001 15.7 9.0001 15.2 8.6001C15.1 8.5001 14.9 8.2001 14.9 8.1001V3.3999C14.7666 3.46657 14.6666 3.53343 14.6 3.6001C12.7 5.3001 10.9 7.0001 8.99997 8.6001C8.59997 8.9001 8.19998 8.8 7.89998 8.5C6.09998 6.9 4.29998 5.2001 2.39998 3.6001C2.33331 3.53343 2.26665 3.46657 2.19998 3.3999V11.2998C2.19998 11.5998 2.59998 11.8999 2.89998 11.8999H11.1C11.9 12.0999 11.9 13.3 11.1 13.5H2.79997C1.79997 13.5 0.699976 12.6 0.599976 11.5C0.599976 11.3667 0.599976 11.2334 0.599976 11.1001C0.599976 9.3001 0.599976 7.5002 0.599976 5.7002C0.599976 5.03353 0.599976 4.36686 0.599976 3.7002C0.599976 3.23353 0.599976 2.73353 0.599976 2.2002C0.599976 1.9002 0.599982 1.5999 0.699982 1.3999C0.799982 1.0999 0.999973 0.899805 1.29997 0.799805Z" fill="#F68C2E"/>
</svg>
