<svg width="13" height="18" viewBox="0 0 13 18" fill="none" xmlns="http://www.w3.org/2000/svg">
<path fill-rule="evenodd" clip-rule="evenodd" d="M1.39996 7.80015C0.799962 6.30015 0.699962 5.20015 1.39996 3.80015C2.69996 1.00015 6.19997 -0.0998464 8.99997 1.20015C10.9 2.10015 12.3 4.10015 12 6.30015C11.8 8.20015 9.99996 10.9002 8.89996 12.5002C8.19996 13.5002 7.39997 14.7002 6.59997 15.7002C6.59997 15.7002 6.56664 15.7335 6.49997 15.8002C6.2333 15.4668 5.99999 15.1668 5.79999 14.9002C4.19999 12.6002 2.49996 10.3002 1.39996 7.80015ZM3.99997 6.80015C4.39997 8.40015 6.29999 9.20015 7.79999 8.40015C9.49999 7.40015 9.49999 4.90015 7.79999 3.90015C5.79999 2.70015 3.49997 4.50015 3.99997 6.80015Z" fill="#1B2F50"/>
<path d="M12.2 15.4003C11.8 14.8003 9.79997 14.4003 8.99997 14.4003C8.89997 14.4003 8.59997 14.3003 8.49997 14.4003C8.39997 14.6003 7.89998 15.2003 7.79998 15.3003C7.79998 15.4003 7.79996 15.4003 7.89996 15.4003C8.09996 15.5003 8.89996 15.6003 8.39996 16.0003C7.69996 16.4003 5.49998 16.4003 4.69998 16.1003L4.59997 16.0003C4.59997 16.0003 4.49997 15.9003 4.49997 15.8003C4.29997 15.5003 5.09998 15.4003 5.19998 15.4003C4.99998 15.1003 4.79997 14.7003 4.49997 14.5003C4.39997 14.3003 4.49998 14.3003 4.29998 14.3003C3.39998 14.4003 1.49998 14.7003 0.799984 15.3003C0.0999836 16.0003 1.29998 16.6003 1.79998 16.7003C3.89998 17.5003 7.29996 17.4003 9.39996 17.1003C10.2 17.0003 11.9 16.7003 12.3 16.1003C12.4 15.8003 12.4 15.6003 12.2 15.4003Z" fill="#1B2F50"/>
</svg>
