<svg width="13" height="18" viewBox="0 0 13 18" fill="none" xmlns="http://www.w3.org/2000/svg">
<path fill-rule="evenodd" clip-rule="evenodd" d="M1.40004 7.49993C0.900043 6.09993 0.800043 4.99993 1.40004 3.49993C2.80004 0.699926 6.30003 -0.400074 9.00003 0.999926C10.9 1.89993 12.3 3.89993 12.1 5.99993C11.8 7.89993 10 10.7001 8.90004 12.2001C8.20004 13.3001 7.50005 14.4998 6.70005 15.3998C6.63338 15.4665 6.5667 15.5334 6.50003 15.6C6.30003 15.2667 6.10004 14.9334 5.90004 14.6C4.20004 12.4 2.50004 10.0999 1.40004 7.49993ZM4.00003 6.49993C4.40003 8.19993 6.40004 9.00012 7.80004 8.20012C9.50004 7.20012 9.50004 4.70012 7.90004 3.70012C5.90004 2.50012 3.50003 4.29993 4.00003 6.49993Z" fill="#F68C2E"/>
<path d="M12.3 15.2002C11.8 14.6002 9.8 14.2001 9.1 14.1001C8.9 14.1001 8.6 14.1001 8.5 14.1001C8.4 14.4001 7.90001 14.9001 7.90001 15.1001C8.10001 15.2001 9.00001 15.4002 8.40001 15.7002C7.70001 16.2002 5.5 16.0999 4.8 15.8999C4.8 15.7999 4.6 15.7998 4.6 15.7998L4.5 15.6001C4.4 15.3001 5.20001 15.2001 5.20001 15.1001C5.00001 14.8001 4.8 14.5002 4.6 14.2002C4.5 14.1002 4.6 14.1001 4.3 14.1001C3.4 14.2001 1.50001 14.5001 0.900005 15.1001C0.100005 15.8001 1.30001 16.3 1.90001 16.5C3.90001 17.2 7.3 17.1999 9.5 16.8999C10.2 16.7999 11.9 16.3998 12.3 15.7998C12.5 15.5998 12.4 15.4002 12.3 15.2002Z" fill="#F68C2E"/>
</svg>
