<svg width="17" height="16" viewBox="0 0 17 16" fill="none" xmlns="http://www.w3.org/2000/svg">
<path d="M15.8 11.7999C14.8 10.5999 13.5 9.29985 11.8 10.0999C11.3 10.3999 11.2 10.7999 10.5 10.6999C8.60003 10.6999 5.60003 7.59986 5.50003 5.69986C5.40003 4.99986 6.09996 4.69985 6.29996 4.09985C6.49996 3.43319 6.43334 2.79986 6.1 2.19986C5.9 1.79986 4.40003 0.299855 4.00003 0.0998551C2.80003 -0.300145 2.00005 0.699855 1.40005 1.49985C0.700053 2.19985 0.400004 2.69985 0.600004 3.79985C0.900004 6.69985 5 10.7999 7.1 12.6999C8.7 13.9999 12.4 16.7999 14.5 15.0999C14.8 14.8999 16 13.6999 16.1 13.3999C16.3 12.7999 16.2 12.1999 15.8 11.7999Z" fill="#1B2F50"/>
<path d="M12.6 4.3L14.2999 2.9C14.3999 2.9 14.4999 2.9 14.6999 2.9C14.8999 2.9 15.3 3.5 15.5 3.7C15.7 3.9 16 3.8 16.1 3.5C16.1 3.4 16.1 3.2 16.1 3.1C16.2 2.2 16.1999 1.2 16.1999 0.299999C16.0999 -7.7486e-07 15.8 0 15.5 0C14.7667 0.0666667 14.0333 0.1 13.2999 0.1C12.9999 0.2 12.2 3.57628e-07 12.5 0.6C12.6 0.8 13.2999 1.3 13.2999 1.5C13.2999 1.7 13.2999 1.8 13.1999 2C12.8999 2.5 12.2 3.1 11.9 3.6C11.6 4.1 12.1 4.6 12.6 4.3Z" fill="#1B2F50"/>
</svg>
