<svg width="17" height="17" viewBox="0 0 17 17" fill="none" xmlns="http://www.w3.org/2000/svg">
<path d="M15.8001 12.5999C14.8001 11.4999 13.5001 10.0997 11.9001 10.8997C11.3001 11.1997 11.3001 11.5999 10.5001 11.5999C8.60007 11.4999 5.60007 8.49987 5.50007 6.59987C5.50007 5.89987 6.10008 5.59967 6.30008 4.89967C6.50008 4.29967 6.43341 3.69987 6.10007 3.09987C5.90007 2.59987 4.40007 1.19977 4.00007 0.999771C2.90007 0.499771 2.10006 1.59958 1.40006 2.29958C0.70006 3.09958 0.500072 3.59997 0.600072 4.69997C1.00007 7.49997 5.00008 11.6998 7.20008 13.4998C8.80008 14.8998 12.4001 17.6998 14.5001 15.9998C14.8001 15.7998 16.0001 14.5 16.1001 14.2C16.4001 13.6 16.2001 13.0999 15.8001 12.5999Z" fill="#F68C2E"/>
<path d="M12.6 5.2L14.3 3.79961C14.4 3.69961 14.6 3.69961 14.7 3.79961C14.9 3.79961 15.3 4.3998 15.5 4.4998C15.8 4.6998 16 4.69971 16.1 4.39971C16.1 4.29971 16.1 4.09971 16.1 3.89971C16.2 2.99971 16.2 2.1 16.2 1.2C16.1 0.8 15.8 0.899707 15.5 0.899707C14.7667 0.899707 14.0667 0.933138 13.4 0.999805C13.1 0.999805 12.2 0.899805 12.5 1.4998C12.6 1.6998 13.3 2.19971 13.3 2.39971C13.4 2.59971 13.3 2.69971 13.2 2.89971C12.9 3.39971 12.2 3.89971 11.9 4.39971C11.6 4.99971 12.1 5.4 12.6 5.2Z" fill="#F68C2E"/>
</svg>
