<svg width="65" height="65" viewBox="0 0 65 65" fill="none" xmlns="http://www.w3.org/2000/svg">
<path fill-rule="evenodd" clip-rule="evenodd" d="M58.1992 40.4001C58.0992 41.6001 56.2992 44.4001 56.3992 45.3001C56.4992 46.0001 58.5992 49.0001 59.0992 50.1001C59.4992 51.0001 59.4992 51.3 58.8992 52.2C58.2992 53 52.7992 58.6001 51.9992 59.1001C51.7992 59.2001 51.5992 59.3001 51.3992 59.4001C50.3992 59.5001 46.8992 56.9001 45.6992 56.5001C44.4992 56.0001 41.8992 58.0001 40.4992 58.1001C39.7992 59.9001 39.4992 62.3001 38.7992 64.0001C38.5992 64.4001 38.4992 64.7001 38.0992 64.8001H26.9992C26.0992 64.5001 25.3992 58.8001 24.4992 58.1001C24.2992 57.9001 20.1992 56.3001 19.9992 56.3001C18.9992 56.4001 15.6992 59.0001 14.3992 59.3001C14.0992 59.4001 13.9992 59.4001 13.6992 59.3001C12.2992 58.9001 7.69918 53.0001 6.09918 51.8001C5.99918 51.6001 5.89923 51.4 5.89923 51.2C5.79923 49.9 8.69923 46.4001 8.89923 44.9001C8.09923 44.1001 7.59921 41.1001 6.99921 40.5001C6.09921 39.6001 0.899194 39.3001 0.299194 38.0001L0.199219 27.4001C0.299219 26.9001 0.599207 26.7001 0.999207 26.5001C2.09921 26.0001 6.69918 25.1001 7.09918 24.6001C7.09918 23.6001 8.89923 20.8001 8.89923 20.1001C8.89923 19.1001 6.29921 15.9001 5.99921 14.6001C5.89921 14.2001 5.79921 13.9001 5.99921 13.5001C8.39921 10.9001 10.8992 8.30011 13.4992 5.90011C13.8992 5.70011 14.1992 5.80011 14.5992 5.90011C15.8992 6.30011 19.2992 8.90014 20.2992 8.80014C20.5992 8.80014 24.5992 7.10011 24.7992 6.90011C25.2992 6.20011 25.8992 2.20009 26.4992 1.00009C26.8992 0.200089 27.1992 0.200065 28.0992 0.100065C31.0992 -0.199935 34.6992 0.300041 37.8992 0.200041C38.1992 0.300041 38.3992 0.400041 38.5992 0.700041C39.2992 1.90004 39.7992 6.50006 40.7992 7.10006C41.6992 7.70006 44.0992 8.10011 45.0992 8.90011C45.9992 8.90011 49.3992 6.30011 50.6992 5.90011C51.0992 5.80011 51.1992 5.80011 51.5992 5.90011C52.9992 6.30011 57.7992 12.3001 59.2992 13.5001C59.4992 13.8001 59.3992 14.0001 59.3992 14.3001C58.9992 15.8001 57.0992 18.1001 56.4992 19.6001C56.3992 19.8001 56.3992 20.1001 56.3992 20.3001C56.4992 20.6001 58.1992 24.6 58.3992 24.7C59.2992 25.3 64.3992 26.2001 64.7992 26.8001V38.2C64.3992 39 59.2992 40.0001 58.1992 40.4001ZM36.6992 2.80014H28.5992C28.2992 3.10014 27.4992 8.10011 26.7992 8.90011C25.9992 9.80011 21.4992 10.6 20.3992 11.7C19.0992 11.9 16.1992 9.40009 14.7992 9.00009C14.4992 8.90009 14.2992 8.80009 13.9992 9.00009L8.99921 14.1001C8.89921 15.6001 11.6992 18.6001 11.7992 19.9001C11.7992 20.9001 9.29922 24.9001 9.19922 26.4001C8.99922 26.7001 8.89921 26.8001 8.49921 27.0001C7.79921 27.3001 2.89919 28.4 2.79919 28.7L2.89923 36.5001C3.19923 37.0001 8.39921 37.8001 8.99921 38.4001C9.39921 38.8001 9.79918 40.8001 10.0992 41.5001C10.3992 42.2001 11.5992 44.2 11.6992 44.7C11.9992 46.1 9.39921 49.0001 8.99921 50.4001C8.99921 50.7001 8.89921 50.9001 8.99921 51.1001L14.2992 56.3001C14.9992 56.4001 18.7992 53.5001 19.9992 53.5001C20.8992 53.4001 21.9992 54.3 22.8992 54.7C23.6992 55 26.1992 55.7001 26.5992 56.0001C27.3992 56.6001 27.9992 60.9001 28.5992 62.0001C28.6992 62.3001 28.7992 62.4001 29.1992 62.5001C29.7992 62.6001 36.1992 62.6001 36.4992 62.4001C37.2992 61.1001 37.5992 57.1 38.3992 56.2C38.6992 55.9 42.1992 54.7001 42.9992 54.4001C43.9992 54.0001 44.4992 53.2001 45.6992 53.6001L50.5992 56.3001L51.0992 56.2L56.3992 51.0001C56.4992 50.2001 53.4992 46.3001 53.4992 45.1001C53.4992 44.4001 54.7992 42.1001 55.1992 41.3001C55.5992 40.2001 55.6992 38.7 56.6992 38.2C58.1992 37.5 60.7992 37.3001 62.0992 36.6001C62.3992 36.5001 62.4992 36.4001 62.4992 36.1001C62.8992 34.1001 62.1992 30.8001 62.4992 28.6001C62.2992 28.3001 56.8992 27.4 56.1992 26.7C55.8992 26.4 55.1992 24.0001 54.9992 23.3001C54.3992 22.0001 53.2992 20.8001 53.5992 19.4001C53.8992 18.4001 56.5992 14.8001 56.2992 14.1001C55.2992 13.5001 51.6992 9.10011 50.9992 8.90011C50.0992 8.70011 46.2992 11.8 45.0992 11.7C44.7992 11.7 42.1992 10.4001 41.4992 10.1001C40.7992 9.80007 39.0992 9.50007 38.5992 9.10007C37.9992 8.70007 36.8992 3.80014 36.6992 2.80014Z" fill="#F68C2E"/>
<path fill-rule="evenodd" clip-rule="evenodd" d="M36.6989 2.80029C36.8989 3.80029 37.9988 8.70022 38.5988 9.10022C39.0988 9.50022 40.7988 9.80022 41.4988 10.1002C42.1988 10.4002 44.7988 11.7002 45.0988 11.7002C46.2988 11.8002 50.0988 8.70027 50.9988 8.90027C51.6988 9.10027 55.2988 13.5002 56.2988 14.1002C56.5988 14.8002 53.8988 18.4003 53.5988 19.4003C53.2988 20.8003 54.3988 22.0003 54.9988 23.3003C55.1988 24.0003 55.8989 26.4002 56.1989 26.7002C56.8989 27.4002 62.2988 28.3002 62.4988 28.6002C62.1988 30.8002 62.8988 34.1002 62.4988 36.1002C62.4988 36.4002 62.3988 36.5002 62.0988 36.6002C60.7988 37.3002 58.1989 37.5002 56.6989 38.2002C55.6989 38.7002 55.5989 40.2003 55.1989 41.3003C54.7989 42.1003 53.4988 44.4002 53.4988 45.1002C53.4988 46.3002 56.4989 50.2002 56.3989 51.0002L51.0988 56.2002L50.5988 56.3003L45.6989 53.6002C44.4989 53.2002 43.9988 54.0003 42.9988 54.4003C42.1988 54.7003 38.6989 55.9002 38.3989 56.2002C37.5989 57.1002 37.2988 61.1003 36.4988 62.4003C36.1988 62.6003 29.7989 62.6002 29.1989 62.5002C28.7989 62.4002 28.6988 62.3002 28.5988 62.0002C27.9988 60.9002 27.3988 56.6002 26.5988 56.0002C26.1988 55.7002 23.6989 55.0002 22.8989 54.7002C21.9989 54.3002 20.8988 53.4002 19.9988 53.5002C18.7988 53.5002 14.9988 56.4003 14.2988 56.3003L8.99884 51.1002C8.89884 50.9002 8.99884 50.7003 8.99884 50.4003C9.39884 49.0003 11.9989 46.1002 11.6989 44.7002C11.5989 44.2002 10.3988 42.2002 10.0988 41.5002C9.79882 40.8002 9.39884 38.8003 8.99884 38.4003C8.39884 37.8003 3.19886 37.0002 2.89886 36.5002L2.79883 28.7002C2.89883 28.4002 7.79884 27.3002 8.49884 27.0002C8.89884 26.8002 8.99885 26.7003 9.19885 26.4003C9.29885 24.9003 11.7988 20.9003 11.7988 19.9003C11.6988 18.6003 8.89884 15.6002 8.99884 14.1002L13.9988 9.00024C14.2988 8.80024 14.4988 8.90024 14.7988 9.00024C16.1988 9.40024 19.0989 11.9002 20.3989 11.7002C21.4989 10.6002 25.9988 9.80027 26.7988 8.90027C27.4988 8.10027 28.2988 3.10029 28.5988 2.80029H36.6989ZM27.5988 33.8003V22.1002C27.5988 22.1002 26.9989 21.5002 26.8989 21.5002C25.7989 20.9002 25.1988 22.2003 24.4988 22.8003L14.7988 34.5002C14.3988 35.0002 14.6989 36.5002 15.3989 36.5002H25.0988V43.1002C25.0988 43.9002 27.5988 44.0002 27.5988 43.1002V36.5002C32.0988 37.2002 31.8988 33.2003 27.5988 33.8003ZM39.4988 21.4003C37.2988 21.7003 34.8989 23.8002 34.1989 26.0002C33.6989 27.7002 33.6989 35.8003 33.8989 37.9003C34.5989 44.8003 44.7989 46.1003 47.1989 39.4003C47.8989 37.3003 47.9989 28.5003 47.3989 26.3003C46.3989 22.9003 43.0988 20.9003 39.4988 21.4003ZM30.9988 41.3003C29.5988 41.7003 29.9988 44.1003 31.5988 43.9003C33.2988 43.6003 32.9988 40.7003 30.9988 41.3003Z" fill="white"/>
<path fill-rule="evenodd" clip-rule="evenodd" d="M39.4992 21.4001C42.9992 20.9001 46.3992 22.9001 47.3992 26.3001C47.8992 28.4001 47.8992 37.3001 47.1992 39.3001C44.7992 46.1001 34.5992 44.8001 33.8992 37.9001C33.5992 35.7001 33.5992 27.7001 34.1992 25.9001C34.8992 23.8001 37.1992 21.7001 39.4992 21.4001ZM39.6992 24.0001C37.1992 24.5001 36.3992 26.9001 36.2992 29.1001C36.0992 31.6001 36.1992 35.2001 36.4992 37.6001C37.0992 42.3001 43.9992 42.4001 44.8992 38.0001C45.2992 36.3001 45.1992 29.6001 44.9992 27.8001C44.6992 25.1001 42.2992 23.6001 39.6992 24.0001Z" fill="#F68C2E"/>
<path fill-rule="evenodd" clip-rule="evenodd" d="M27.4988 33.8003C31.8988 33.2003 31.9988 37.2003 27.4988 36.4003V43.1002C27.4988 44.0002 25.0988 43.9002 25.0988 43.1002V36.4003H15.3989C14.6989 36.4003 14.3988 35.0002 14.6988 34.5002L24.4988 22.8003C25.1988 22.1003 25.6989 20.9002 26.8989 21.5002C26.9989 21.5002 27.4988 22.1002 27.4988 22.1002V33.8003ZM25.0988 26.4003C24.6988 26.3003 24.5988 26.6003 24.2988 26.8003C22.6988 28.6003 20.3989 31.4003 18.8989 33.4003C18.6989 33.6003 18.3988 33.6002 18.4988 34.0002H24.7988L25.0988 33.7002V26.4003Z" fill="#F68C2E"/>
<path d="M30.9991 41.3003C32.9991 40.7003 33.2991 43.6003 31.4991 43.8003C29.9991 44.1003 29.5991 41.7003 30.9991 41.3003Z" fill="#F68C2E"/>
<path d="M39.6994 24C42.2994 23.6 44.6994 25.1001 44.9994 27.8001C45.1994 29.6001 45.2994 36.3 44.8994 38C43.9994 42.4 37.0994 42.3 36.4994 37.6C36.1994 35.2 36.0994 31.6 36.2994 29.1C36.3994 26.9 37.1994 24.5 39.6994 24Z" fill="white"/>
<path d="M25.0993 26.4002V33.7002L24.7993 34.0002H18.4994C18.3994 33.7002 18.6994 33.6002 18.8994 33.4002C20.3994 31.4002 22.6993 28.6003 24.2993 26.8003C24.5993 26.6003 24.6993 26.3002 25.0993 26.4002Z" fill="white"/>
</svg>
