<svg width="63" height="63" viewBox="0 0 63 63" fill="none" xmlns="http://www.w3.org/2000/svg">
<path d="M40.5003 25.2C41.1003 25.3 41.2003 25.8 41.3003 26.4C41.7003 30.3 41.0003 35.0001 41.3003 39.0001C41.0003 40.6001 38.6002 40.1002 38.6002 39.1002V27.6002H35.5003C35.2003 27.6002 35.2002 28.1001 35.1002 28.3001C34.7002 31.7001 35.5002 35.8 35.1002 39.2C34.7002 40.6 32.5003 40.0001 32.5003 39.5001V22.8001H28.8003V39.3001C28.8003 40.4001 26.2003 40.3002 26.2003 39.1002V33.9H22.7003V39.1002C22.7003 40.0002 20.4002 40.6 20.1002 39.2C19.9002 38.3 19.9003 33.2001 20.0003 32.3001C20.1003 32.0001 20.7003 31.3001 20.8003 31.3001H26.2003V21.1002C26.2003 20.8002 26.8003 20.2002 27.2003 20.1002C27.8003 20.0002 33.8003 20 34.3003 20.2C35.9003 20.6 34.6003 25.2 35.5003 25.2C36.8003 25.2 39.3003 24.9 40.5003 25.2Z" fill="#EF8C27"/>
<path fill-rule="evenodd" clip-rule="evenodd" d="M14.7996 22.6C14.6996 22.7 13.5996 25.2999 13.4996 25.6999C9.9996 37.0999 17.4996 48.2998 29.1996 49.8998C30.0996 49.9998 32.2996 49.4998 32.4996 50.8998C32.7996 52.7998 30.9996 52.5999 29.5996 52.4999C14.9996 51.6999 6.79957 36.5998 11.5996 23.3998C11.7996 22.7998 12.4996 21.7 12.5996 21.3C12.5996 20.9 11.8996 20.1 11.6996 19.6C10.0996 15.7 13.5996 11.6 17.6996 12.8C23.1996 14.3 22.3996 22.5 16.1996 22.8C15.7996 22.8 15.0996 22.4 14.7996 22.6ZM16.0996 15.1C12.9996 15.5 13.2996 20.2 16.3996 20.1C19.6996 20.1 19.4996 14.8 16.0996 15.1Z" fill="#EF8C27"/>
<path fill-rule="evenodd" clip-rule="evenodd" d="M47.7996 40C53.4996 28.9 46.8996 15.1 34.4996 13C33.3996 12.8 30.6996 12.9001 30.0996 12.1001C29.3996 10.9001 30.7996 10.0001 31.9996 10.1001C46.0996 10.4001 55.5996 24.5999 51.4996 37.8999C51.2996 38.6999 49.9996 41 49.9996 41.5C49.9996 41.9 51.1996 43.5001 51.2996 44.8001C51.5996 51.6001 40.3996 52.1001 41.2996 44.1001C41.5996 40.9001 44.8996 39.6 47.7996 40ZM45.9996 42.5C42.8996 42.8 42.9996 47.7 46.3996 47.5C49.7996 47.3 48.9996 42.2 45.9996 42.5Z" fill="#EF8C27"/>
<path fill-rule="evenodd" clip-rule="evenodd" d="M9.00016 47.5C17.0002 46.2 17.0002 58.7 9.30015 57.5C3.80015 56.7 3.90016 48.4 9.00016 47.5ZM9.30015 50.1001C7.10015 50.6001 7.20015 54.2999 9.30015 54.8999C13.5002 55.9999 13.8002 49.1001 9.30015 50.1001Z" fill="#EF8C27"/>
<path fill-rule="evenodd" clip-rule="evenodd" d="M50.9995 5.29998C55.4995 4.39998 58.9995 8.50002 56.7995 12.6C54.4995 17.1 47.1995 15.2999 47.3995 9.99993C47.3995 7.99993 49.0995 5.69998 50.9995 5.29998ZM51.8995 7.69988C48.9995 8.19988 49.4995 13.0999 52.6995 12.6999C55.8995 12.2999 55.4995 7.09988 51.8995 7.69988Z" fill="#EF8C27"/>
<path d="M0.600248 28.1999C0.000247777 27.4999 0.400272 23.8 2.50027 24.8C3.50027 25.3 3.20028 27.5 2.70028 28.1C2.40028 28.6 1.00025 28.5999 0.600248 28.1999Z" fill="#EF8C27"/>
<path d="M58.4999 42.1C60.9999 42 59.7999 46.4999 57.3999 45.6999C56.1999 45.2999 56.9999 42.1 58.4999 42.1Z" fill="#EF8C27"/>
<path d="M0.899918 33.1001C3.39992 32.3001 3.49991 36.3 2.19991 36.7C-0.100094 37.4 -0.200082 33.4001 0.899918 33.1001Z" fill="#EF8C27"/>
<path d="M46.0999 57.6999C44.5999 56.1999 48.2 53.5999 49.2 55.1999C50.2 56.9999 47.0999 58.6999 46.0999 57.6999Z" fill="#EF8C27"/>
<path d="M54.7997 52.0001C53.3997 53.3001 51.6997 52.6 52.2997 50.7C53.2997 47.8 57.2997 49.5001 54.7997 52.0001Z" fill="#EF8C27"/>
<path d="M40.1001 58.5C42.4001 58.1 42.6002 60.8 40.4002 61.2C37.5002 61.8 37.4001 58.8 40.1001 58.5Z" fill="#EF8C27"/>
<path d="M16.5002 6.89989C15.9002 7.59989 13.7002 8.50004 13.3002 7.30004C12.7002 5.20004 16.1002 3.79999 16.7002 5.49999C16.8002 5.89999 16.8002 6.59989 16.5002 6.89989Z" fill="#EF8C27"/>
<path d="M60.5 34.1999C63.1 33.3999 62.5001 38.9999 59.9001 37.6999C59.0001 37.2999 59.4 34.4999 60.5 34.1999Z" fill="#EF8C27"/>
<path d="M60.4996 25.8999C62.3996 25.2999 63.1996 29.6 60.9996 29.7C59.2996 29.8 59.0996 26.2999 60.4996 25.8999Z" fill="#EF8C27"/>
<path d="M32.2001 0.500058C32.6001 0.900058 32.6001 1.90011 32.3001 2.30011C31.6001 3.30011 28.4001 3.30006 28.8001 1.00006C29.0001 5.79953e-05 31.8001 5.79953e-05 32.2001 0.500058Z" fill="#EF8C27"/>
<path d="M2.99984 20.3001C2.09984 19.5001 3.29983 15.8002 5.29983 17.1002C6.69983 18.0002 4.59984 21.7001 2.99984 20.3001Z" fill="#EF8C27"/>
<path d="M25.1997 59.3001C25.7997 59.9001 25.6997 61.5 24.6997 61.7C23.3997 61.8 21.2996 61.2001 21.9996 59.6001C22.3996 58.5001 24.6997 58.8001 25.1997 59.3001Z" fill="#EF8C27"/>
<path d="M38.1003 0.899902C38.5003 0.899902 40.3004 1.50005 40.5004 1.80005C40.9004 2.30005 40.6004 3.50005 39.9004 3.80005C39.2004 4.20005 36.9004 3.50005 36.9004 2.30005C36.9004 1.80005 37.6003 0.999902 38.1003 0.899902Z" fill="#EF8C27"/>
<path d="M22.5998 1.40001C24.7998 1.10001 25.0998 3.7002 22.6998 4.1002C19.7998 4.6002 19.8998 1.70001 22.5998 1.40001Z" fill="#EF8C27"/>
<path d="M10.1002 10.3C11.4002 11.6 8.50025 14.7 7.30025 13C6.20025 11.5 9.00024 9.20002 10.1002 10.3Z" fill="#EF8C27"/>
<path d="M30.4 60.1999C30.9 59.6999 33.7 59.6998 33.8 60.8998C34.1 62.9998 30.3 63.1 30.1 61.6C30 61.2 30.1 60.4999 30.4 60.1999Z" fill="#EF8C27"/>
<path d="M58.5 18.3999C60.4 17.9999 61 21.4001 59.3 21.6001C57.5 21.9001 56.7 18.7999 58.5 18.3999Z" fill="#EF8C27"/>
<path d="M15.4 55.8001C17.5 55.2001 18.8 57.8 17.2 58.5C15.2 59.4 13.8 56.3001 15.4 55.8001Z" fill="#EF8C27"/>
<path d="M45.8003 4.00002C47.0003 3.70002 48.8003 5.79997 47.2003 6.69997C45.3003 7.89997 43.5003 4.40002 45.8003 4.00002Z" fill="#EF8C27"/>
<path d="M2.90019 41.2001C5.20019 40.5001 5.40017 43.6002 4.50017 44.1002C2.40017 45.1002 1.60019 41.6001 2.90019 41.2001Z" fill="#EF8C27"/>
<path d="M16.1003 15.1002C19.5003 14.8002 19.7004 20.1002 16.4004 20.1002C13.3004 20.2002 13.0003 15.5002 16.1003 15.1002Z" fill="white"/>
<path d="M45.9999 42.5C48.9999 42.2 49.7999 47.3 46.3999 47.5C42.9999 47.7 42.8999 42.8 45.9999 42.5Z" fill="white"/>
<path d="M9.30022 50.1001C13.8002 49.1001 13.5002 56 9.30022 54.9C7.20022 54.3 7.10022 50.6001 9.30022 50.1001Z" fill="white"/>
<path d="M51.8997 7.69999C55.4997 7.09999 55.8997 12.3 52.6997 12.7C49.4997 13.1 48.9997 8.19999 51.8997 7.69999Z" fill="white"/>
</svg>
