<svg width="56" height="64" viewBox="0 0 56 64" fill="none" xmlns="http://www.w3.org/2000/svg">
<path fill-rule="evenodd" clip-rule="evenodd" d="M20.4996 18.2999C20.2996 18.2999 19.1997 17.8999 18.8997 17.7999C18.2997 17.4999 17.2996 16.4999 16.7996 16.5999C16.0996 16.7999 11.8996 22.1999 10.9996 22.9999C10.7996 23.1332 10.5997 23.2333 10.3997 23.2999C9.09966 23.5999 3.69961 23.4999 2.09961 23.3999C0.299613 23.1999 -0.500387 21.8999 1.09961 20.7999L9.69965 20.5999L15.1996 14.4999C15.4996 12.9999 15.1996 11.2999 15.2996 9.79993L9.79963 3.59985C8.09963 2.89985 1.59961 4.0999 0.599613 2.8999C-0.000386745 2.2999 0.299613 1.1999 1.09961 0.899902H10.5996L16.7996 7.59985C18.0996 6.79985 18.8996 5.99993 20.4996 5.79993C28.3996 5.09993 37.2996 6.39993 45.1996 5.79993C49.1996 6.69993 51.1996 10.7999 49.6996 14.5999C54.7996 14.7999 56.8996 21.2999 53.4996 24.8999L41.9996 36.3999C41.6996 36.9999 42.2997 37.9999 42.3997 38.7999C42.5997 39.8999 42.5996 41.0999 42.7996 41.9999C43.9996 48.0999 46.0997 54.1999 47.3997 60.2999C47.8997 60.8999 53.1997 60.1999 54.3997 60.5999C55.8997 60.9999 55.0996 63.5998 53.2996 63.1998L1.39966 63.0999C0.0996622 62.8999 -0.000337899 61.0999 0.899662 60.5999C1.99966 60.0999 6.09961 60.7999 7.59961 60.4999C7.89961 60.4999 7.99961 60.3998 8.09961 60.1998C9.49961 54.0998 11.3996 48.0999 12.6996 41.9999C12.9996 40.6999 12.8996 39.2999 13.2996 37.7999C14.9996 31.1999 21.5997 26.5999 28.3997 26.7999C30.0997 26.8999 31.6996 27.5999 33.2996 27.5999L42.4996 18.2999H20.4996ZM18.8997 14.6998C19.3997 15.1998 20.2997 15.5998 20.8997 15.6998H44.4996C48.6996 14.8998 48.5996 8.89993 44.2996 8.29993C36.9996 8.79993 28.2996 7.39993 21.1996 8.29993C18.0996 8.59993 16.5997 12.5998 18.8997 14.6998ZM48.0996 17.0999C47.5996 17.1999 46.7997 17.6999 46.3997 17.9999L24.9996 39.3999C22.1996 42.8999 26.0997 47.4999 29.8997 44.7999L51.8997 22.7999C53.7997 19.9999 51.4996 16.3999 48.0996 17.0999ZM30.6996 29.6998C24.3996 28.2998 17.6997 31.9998 15.8997 38.1998C12.5997 48.9998 23.9997 58.1998 33.8997 52.6998C38.5997 49.9998 41.1996 44.1999 39.6996 38.8999C39.4996 38.8999 36.7997 41.3999 36.3997 41.7999C34.5997 43.5999 31.7996 47.2999 29.2996 47.8999C24.3996 49.0999 20.2996 44.7999 21.7996 39.9999C22.8996 36.5999 28.5996 33.3999 30.4996 30.4999C30.5996 30.1999 30.6996 29.9998 30.6996 29.6998ZM10.7996 60.4999H44.6996L41.4996 47.7999C36.8996 57.9999 23.2996 60.0999 16.0996 51.3999C15.1996 50.1999 14.6996 48.9999 13.7996 47.7999L10.7996 60.4999Z" fill="#F68C2E"/>
<path d="M30.6993 29.6999C30.6993 29.9999 30.6993 30.1999 30.4993 30.4999C28.5993 33.3999 22.8993 36.5999 21.7993 39.9999C20.2993 44.7999 24.3993 49.1 29.2993 47.9C31.7993 47.3 34.5993 43.6 36.3993 41.8C36.8993 41.4 39.4993 38.9 39.7993 38.9C41.1993 44.2 38.6993 49.9999 33.8993 52.6999C23.9993 58.1999 12.5993 48.9999 15.8993 38.1999C17.6993 31.9999 24.3993 28.2999 30.6993 29.6999Z" fill="white"/>
<path fill-rule="evenodd" clip-rule="evenodd" d="M48.0992 17.0999C51.4992 16.3999 53.7992 20 51.8992 22.8L29.8992 44.8C26.0992 47.5 22.1992 42.9 24.9992 39.4L46.3992 17.9999C46.7992 17.6999 47.6992 17.1999 48.0992 17.0999ZM48.5992 20.9999C47.9992 20.3999 46.9992 20.7999 46.4992 21.1999C45.8992 21.6999 44.9992 22.7999 45.1992 23.5999C45.9992 26.0999 49.9992 22.3999 48.5992 20.9999ZM28.0992 41.6999C29.7992 42.9999 33.2992 38.2999 30.3992 38.1999C29.2992 38.0999 26.7992 40.5999 28.0992 41.6999Z" fill="white"/>
<path d="M10.7998 60.4998L13.7998 47.7998C14.7998 48.9998 15.1998 50.1998 16.0998 51.3998C23.2998 60.0998 36.8998 57.9998 41.4998 47.7998L44.6998 60.4998H10.7998Z" fill="white"/>
<path fill-rule="evenodd" clip-rule="evenodd" d="M18.9 14.6999C16.6 12.5999 18.1 8.59995 21.2 8.29995C28.3 7.39995 37 8.79995 44.3 8.29995C48.6 8.89995 48.7 14.8999 44.6 15.6999H20.9C20.3 15.5999 19.4 15.1999 18.9 14.6999ZM22.4 12.9999C22.9 13.4999 26.1 13.5999 26.5 12.4999C27.2 9.9999 22.6 10.2999 22.2 11.4999C22.1 11.8999 22.1 12.6999 22.4 12.9999Z" fill="white"/>
<path d="M48.5993 20.9998C49.9993 22.3998 45.9993 26.0998 45.1993 23.5998C44.9993 22.7998 45.8993 21.6998 46.4993 21.1998C46.9993 20.7998 47.9993 20.3998 48.5993 20.9998Z" fill="#F68C2E"/>
<path d="M28.1 41.6997C26.8 40.5997 29.3001 38.0997 30.4001 38.1997C33.3001 38.2997 29.8 42.9997 28.1 41.6997Z" fill="#F68C2E"/>
<path d="M22.3995 12.9997C22.0995 12.6997 22.0995 11.8997 22.1995 11.4997C22.5995 10.2997 27.1994 9.99973 26.4994 12.4997C26.0994 13.5997 22.8995 13.4997 22.3995 12.9997Z" fill="#F68C2E"/>
</svg>
