<svg width="62" height="63" viewBox="0 0 62 63" fill="none" xmlns="http://www.w3.org/2000/svg">
<path fill-rule="evenodd" clip-rule="evenodd" d="M23.5 18.1999V7.29999C23.5 6.39999 24.5 4.49999 25.1 3.79999C28.1 -0.100007 33.7 -0.200104 36.8 3.6999C39.7 7.2999 37.9 13.1 38.4 17.4C38.5 17.6 38.5 18.1999 38.8 18.1999H42C42.1 18.1999 42.9 18.7 43.1 18.8C43.9 19.4 44.3667 20.2333 44.5 21.3C45.1 27 44 33.7999 44.5 39.6999C44.2 41.2999 42.9 42.6 41.2 42.8C34.7 42.4 27.8 43.3 21.5 42.8C19.3 42.6 18 41.8999 17.5 39.6999V20.9C17.5 20.1 19.4 18.1999 20 18.1999H23.5ZM26.1 7.29999V18.1999H35.8V7.29999C35.8 6.79999 34.7 5.09999 34.3 4.79999C31.6 2.19999 26.7 3.69999 26.1 7.29999ZM41.8 20.9999C41.6 20.7999 40.6 20.4999 40.2 20.4999C34.2 20.9999 27.5 19.9999 21.6 20.4999C20.2 20.6999 19.9 21 19.8 22.4C19.5 26.5 19.4 34.4999 19.8 38.5999C19.9 39.0999 19.9 39.5 20.2 39.9L41.5 39.9999C41.9 39.4999 42 38.9 42.1 38.4C42.4 34.3 42.4 26.5 42.1 22.4C42 22 42 21.2999 41.8 20.9999Z" fill="#EF8C27"/>
<path fill-rule="evenodd" clip-rule="evenodd" d="M23.4992 45.9001C23.7992 45.0001 25.7992 44.8 26.0992 46C26.2992 46.7 26.2992 52.7 26.0992 53.7C25.9992 54.7 25.6992 55 24.6992 55.1C21.7992 55.4 18.0992 54.8 15.0992 55.1C13.3992 60.3 5.39925 59.8 5.19925 54.1C4.89925 48 13.2993 46.7 14.8993 52.5H23.4992C23.8992 50.8 23.0992 47.4001 23.4992 45.9001ZM8.29922 55.5C10.6992 58 14.4993 53.8001 11.3993 51.8001C8.89926 50.1001 6.39922 53.4 8.29922 55.5Z" fill="#EF8C27"/>
<path fill-rule="evenodd" clip-rule="evenodd" d="M47.5998 37.8C46.7998 37.6 46.4998 35.6 47.8998 35.3C48.6998 35.1 52.3998 35.0999 53.1998 35.1999C53.7998 35.2999 54.1998 35.6 54.2998 36.1L54.3998 47.6C60.4998 49.8 58.4998 58.5 51.9998 57.4C47.7998 56.7 46.7998 50.8 50.1998 48.4C50.6998 48.1 51.7998 47.8 51.7998 47.8V37.8C50.6998 37.6 48.5998 38.1 47.5998 37.8ZM52.3998 50.1999C49.6998 50.7999 50.2998 55.9 53.9998 54.8C56.5998 54 55.7998 49.3999 52.3998 50.1999Z" fill="#EF8C27"/>
<path fill-rule="evenodd" clip-rule="evenodd" d="M11.4998 16.6999V25.5C12.2998 25.6 13.7998 25.3 14.4998 25.6C15.0998 25.9 15.2998 27.1999 14.7998 27.6999C13.9998 28.2999 9.3998 28.4 8.9998 27.5L8.79979 17C7.59979 16.2 6.7998 16.0999 5.9998 14.6999C2.9998 9.79993 8.69978 4.79998 13.0998 7.99998C16.3998 10.5 15.3998 15.6999 11.4998 16.6999ZM9.39983 9.59996C7.09983 10.1 6.89981 13.9 9.69981 14.4C13.4998 15.1 13.3998 8.69996 9.39983 9.59996Z" fill="#EF8C27"/>
<path fill-rule="evenodd" clip-rule="evenodd" d="M38.4996 52.6999C38.4996 52.7999 38.9997 52.8 39.1997 52.9C45.5997 56.2 40.2996 65.1999 34.4996 61.6999C30.6996 59.3999 31.6997 53.7999 35.8997 52.5999C36.0997 50.1999 35.5996 47.3 35.7996 45C35.9996 43.5 38.0997 43.4 38.3997 44.9C38.6997 46.1 38.1996 52.3999 38.4996 52.6999ZM38.7996 55.5999C36.4996 53.5999 33.2996 56.8999 35.2996 59.0999C37.4996 61.5999 41.2996 57.7999 38.7996 55.5999Z" fill="#EF8C27"/>
<path fill-rule="evenodd" clip-rule="evenodd" d="M53.1997 31.5C52.6997 31 51.9997 29.3 51.6997 29.2C50.3997 28.8 47.2997 30 46.8997 28.2C46.3997 25.6 51.1997 27 51.9997 26.6C52.0997 26.5 52.6997 24.9 53.4997 24.2C57.5997 20.6 63.6997 25.3 61.1997 30.2C59.6997 33.2 55.4997 33.8 53.1997 31.5ZM56.0997 25.6C53.4997 26.1 53.8997 30.8001 57.0997 30.4001C60.3997 30.1001 59.6997 24.7 56.0997 25.6Z" fill="#EF8C27"/>
<path fill-rule="evenodd" clip-rule="evenodd" d="M9.99965 36.5001C9.89965 36.6001 9.79962 37.3 9.59962 37.6C6.99962 42.4 -0.500365 40.3001 0.299635 34.5001C0.799635 30.6001 5.79962 29 8.59962 31.7C9.19962 32.2 9.99966 33.9001 10.1997 34.0001C11.1997 34.7001 14.2996 33.3001 14.9996 34.9001C16.0996 37.6001 10.4996 36.1001 9.99965 36.5001ZM4.69966 32.9001C1.79966 33.4001 2.39965 38.2001 5.49965 37.8001C8.59965 37.4001 8.19966 32.3001 4.69966 32.9001Z" fill="#EF8C27"/>
<path fill-rule="evenodd" clip-rule="evenodd" d="M41.7996 21.0001C41.9996 21.3001 42.0996 22.0001 42.0996 22.4001C42.4996 26.5001 42.4996 34.3001 42.0996 38.4001C42.0996 38.9001 41.9996 39.5 41.5996 40L20.2996 39.9001C19.8996 39.5001 19.8996 39.1 19.8996 38.6C19.4996 34.5 19.4996 26.5001 19.8996 22.4001C19.9996 21.0001 20.1996 20.7001 21.6996 20.5001C27.5996 20.0001 34.2996 21.0001 40.2996 20.5001C40.6996 20.5001 41.5996 20.8001 41.7996 21.0001ZM32.1996 31.4001C32.2996 31.3001 33.0996 31.1001 33.4996 30.8001C35.1996 29.3001 35.0996 26.2001 33.0996 24.9001C29.1996 22.4001 25.2996 27.5 28.2996 30.6C28.6996 31 29.6996 31.3 29.7996 31.7C30.1996 33 28.9996 37.3001 30.5996 37.8001C31.1996 38.0001 31.9996 37.6 32.0996 37C32.3996 36.1 31.9996 31.7001 32.1996 31.4001Z" fill="white"/>
<path d="M26.0996 7.3001C26.6996 3.7001 31.6997 2.2001 34.3997 4.8001C34.7997 5.1001 35.8997 6.8001 35.8997 7.3001V18.2H26.0996V7.3001Z" fill="white"/>
<path d="M8.29975 55.5002C6.39975 53.4002 8.89978 50.1002 11.3998 51.8002C14.4998 53.8002 10.6997 58.0002 8.29975 55.5002Z" fill="white"/>
<path d="M52.3993 50.2C55.7993 49.4 56.5993 54.0001 53.9993 54.8001C50.2993 55.9001 49.6993 50.8 52.3993 50.2Z" fill="white"/>
<path d="M9.39941 9.60013C13.3994 8.70013 13.4994 15.1002 9.6994 14.4002C6.8994 13.9002 7.09941 10.1001 9.39941 9.60013Z" fill="white"/>
<path d="M38.7998 55.6001C41.2998 57.8001 37.4998 61.6001 35.2998 59.1001C33.2998 56.9001 36.4998 53.6001 38.7998 55.6001Z" fill="white"/>
<path d="M56.0992 25.6001C59.6992 24.7001 60.3992 30.1001 57.0992 30.4001C53.8992 30.8001 53.4992 26.1001 56.0992 25.6001Z" fill="white"/>
<path d="M4.69977 32.9001C8.19977 32.3001 8.59976 37.4001 5.49976 37.8001C2.39976 38.2001 1.79977 33.4001 4.69977 32.9001Z" fill="white"/>
<path fill-rule="evenodd" clip-rule="evenodd" d="M32.1995 31.3999C31.9995 31.6999 32.3995 36.0999 32.0995 36.9999C31.9995 37.5999 31.1995 38 30.5995 37.8C28.9995 37.3 30.1995 32.9999 29.7995 31.6999C29.6995 31.2999 28.6995 30.9999 28.2995 30.5999C25.2995 27.4999 29.1995 22.3999 33.0995 24.8999C35.0995 26.1999 35.1995 29.3 33.4995 30.8C33.0995 31.1 32.2995 31.2999 32.1995 31.3999ZM31.8995 27.0999C31.1995 26.3999 29.7995 26.6999 29.7995 27.9999C29.7995 30.3999 33.4995 28.5999 31.8995 27.0999Z" fill="#EF8C27"/>
<path d="M31.8998 27.0999C33.4998 28.5999 29.7998 30.3999 29.7998 27.9999C29.7998 26.6999 31.1998 26.3999 31.8998 27.0999Z" fill="white"/>
</svg>
