<svg width="43" height="43" viewBox="0 0 43 43" fill="none" xmlns="http://www.w3.org/2000/svg">
<path fill-rule="evenodd" clip-rule="evenodd" d="M7.29995 0.400009C7.89995 0.300009 8.30005 0.400204 8.40005 1.1002C8.90005 3.1002 8.20002 6.50006 8.50002 8.70006C8.90002 11.6001 13.4999 11.7 13.7999 8.40001C13.9999 6.20001 13.4999 3.30006 13.7999 1.20006C14.0999 -0.499943 16.3 0.900009 17.1 1.40001C23.4 5.40001 23.8 14.5002 18 19.1002C17.5 19.5002 16.3 20.1002 16.2 20.6002V38.2001C15.3 44.0001 6.8 43.9001 6.1 38.0001V20.4C6 20.2 4.40002 19.2 4.00002 18.9C-1.69998 14.1 -0.899979 5.00016 5.50002 1.30016C5.90002 1.00016 6.79995 0.500009 7.29995 0.400009ZM6.69997 2.70006C6.09997 2.80006 5.5 3.30006 5.1 3.70006C0.999997 7.10006 0.899948 13.7002 4.79995 17.3002C5.39995 17.8002 7.69995 19.1 7.79995 19.4L7.69997 37.5001C8.19997 41.9001 14.1 41.8001 14.5 37.5001V19.5001C14.6 18.9001 15.2999 18.8001 15.7999 18.5001C19.0999 16.3001 20.8999 13.1002 20.2999 9.1002C19.7999 6.4002 18 3.8002 15.6 2.6002V9.00011C15.6 9.20011 14.9999 10.5002 14.7999 10.8002C12.9999 13.4002 8.69995 13.2 7.29995 10.4C7.09995 10.1 6.69997 9.10001 6.69997 8.90001V2.70006Z" fill="#1C3051"/>
<path fill-rule="evenodd" clip-rule="evenodd" d="M32.7999 19.0001C33.2999 19.5001 33.1999 21 33.7999 21.4C35.1999 22.6 36.2 20.5001 37.5 21.0001C37.7 21.0001 40 23.3002 40.1 23.6002C40.8 24.9002 39.2 25.4 39.4 26.7C39.4 26.8 39.6999 27.5002 39.7999 27.6002C40.2999 28.0002 41.9999 27.8002 42.2999 28.6002C42.3999 29.2002 42.3999 31.9001 42.2999 32.5001C42.1999 33.7001 40.2 33.4001 39.7 33.8001C39.6 34.0001 39.4 34.9 39.4 35.2C39.5 35.9 40.5 36.5001 40.2 37.5001C40.1 38.3001 38.1 39.6 37.6 40.4C36.5 40.9 35.5 39.4002 34.5 39.6002C33 39.9002 33.3999 42 32.7999 42.4C32.4999 42.6 29.1 42.6001 28.6 42.5001C27.6 42.3001 27.9 40.4 27.2 39.9C25.7 38.9 24.9 40.8 23.5 40.4C23.3 40.4 21 38.1001 20.9 37.8001C20.3 36.6001 21.7 35.9001 21.6 34.8001C21.4 33.1001 19.1999 33.7 18.7999 32.9C18.5999 32.5 18.6 29.2 18.7 28.7C18.9 27.7 20.7999 28.1001 21.2999 27.3001C22.2999 25.9001 20.3999 25.1 20.7999 23.7C20.8999 23.5 23.2 21.1001 23.4 21.0001C24.5 20.5001 25.4 21.9001 26.4 21.8001C28.1 21.6001 27.4999 19.4001 28.2999 19.0001C28.7999 18.8001 32.5999 18.8001 32.7999 19.0001ZM29.2999 40.7C29.7999 40.7 31.2 40.9 31.6 40.7C31.8 40.5 31.8999 39.2 32.2999 38.7C32.4999 38.5 34.2 37.8 34.5 37.7C35.6 37.5 36.5 38.7001 37 38.5001C37.1 38.4001 38.2999 37.2002 38.2999 37.1002C38.3999 36.7002 37.5 35.7 37.5 35.2C37.4 34.7 38.3 32.6001 38.7 32.3001C39.3 32.0001 40.5 32.1001 40.6 31.5001C40.6 31.2001 40.6 29.8002 40.5 29.6002C40.3 29.4002 39 29.3 38.6 28.9C38.2 28.6 37.4 26.5001 37.5 26.0001C37.6 25.5001 38.6 24.6002 38.2 24.1002C38.1 24.0002 37 22.9 36.9 22.9C36.6 22.8 35.5 23.7 34.9 23.7C34.4 23.7 32.4 22.9001 32.2 22.5001C31.8 21.9001 31.8999 20.7002 31.2999 20.6002C30.7999 20.5002 29.8999 20.7002 29.2999 20.6002C29.1999 21.2002 29.1 22.2002 28.7 22.6002C28.4 23.0002 26.3 23.8 25.9 23.7C25.4 23.6 24.4 22.7 24 22.9C23.9 23 22.7 24.2001 22.7 24.3001C22.6 24.6001 23.6 25.7001 23.6 26.3001C23.6 26.6001 22.9 28.3002 22.7 28.6002C22.2 29.4002 21.3 29.3002 20.4 29.6002L20.5 31.9C21 32 22.1 32.1001 22.5 32.5001C22.8 32.8001 23.6 34.9001 23.5 35.3001C23.4 35.8001 22.6 36.8 22.7 37.2C22.8 37.3 24 38.5001 24.1 38.5001C24.4 38.6001 25.6 37.6002 26.2 37.6002C26.4 37.6002 28.1 38.3001 28.4 38.5001C29.1 39.0001 29.1999 39.9 29.2999 40.7Z" fill="#1C3051"/>
<path fill-rule="evenodd" clip-rule="evenodd" d="M33.9 2.1001C33.9 2.2001 34.4 2.09995 34.5 2.19995C34.9 2.26662 35.2333 2.36667 35.5 2.5C36 2.7 37.3 3.6001 37.4 3.6001C37.7 3.5001 38.0999 2.1999 39.1999 2.8999C40.3999 3.5999 38.5999 4.7 38.6999 5C38.6999 5.2 39.3 6.1 39.4 6.5C39.5 6.8 39.5999 7.7999 39.6999 7.8999C39.7999 7.9999 41.6 7.4999 41.5 8.8999C41.4 10.0999 39.7999 9.59995 39.6999 9.69995C39.6999 9.69995 39.6999 10.1 39.6999 10.3C39.5999 10.7 39.3999 11.0999 39.2999 11.3999C39.1999 11.7999 38.6999 12.3001 38.6999 12.6001C38.6999 12.9001 40.2 13.9 39.4 14.7C38.5 15.5 37.7 14.1001 37.4 14.1001C37.3 14.1001 35.6999 15.1 35.1999 15.2C34.8999 15.3 34 15.3999 33.9 15.3999C33.8 15.5999 34.3 17.3 33 17.2C31.7 17.2 32.3 15.5999 32.1 15.3999C32.1 15.3999 31.1999 15.3 30.7999 15.2C30.2999 15.1 28.7999 14.1001 28.6999 14.1001C28.2999 14.1001 27.4999 15.5 26.6999 14.7C25.8999 13.8 27.4 12.9001 27.4 12.6001C27.4 12.4001 27 11.9001 26.9 11.6001C26.7 11.2001 26.5 10.7 26.4 10.3C26.4 10.1 26.4 9.69995 26.4 9.69995C26.3 9.49995 24.5 10.1 24.6 8.69995C24.6 7.59995 26.3 7.9999 26.4 7.8999C26.4 7.7999 26.5999 6.7999 26.6999 6.3999C26.7999 5.9999 27.4 5.2 27.4 5C27.4 4.6 26.7 4.2999 26.5 3.8999C26.3 3.0999 26.8999 2.50005 27.6999 2.80005C28.0999 2.80005 28.2999 3.5 28.6999 3.5C28.8999 3.5 30.2 2.6 30.6 2.5C31 2.3 32.1 2.2001 32.1 2.1001C32.3 2.0001 31.7 0.400049 33 0.300049C34.3 0.300049 33.8 2.0001 33.9 2.1001ZM29.5 5.1001C24.7 9.7001 31.7 17 36.5 12.5C41.3 8 34.4 0.500098 29.5 5.1001Z" fill="#1C3051"/>
<path d="M6.70012 2.69995V8.8999C6.70012 9.0999 7.10009 10.0999 7.30009 10.3999C8.70009 13.1999 13.0001 13.4 14.8001 10.8C15.0001 10.5 15.6001 9.2 15.6001 9V2.6001C18.0001 3.8001 19.8001 6.4001 20.3001 9.1001C20.9001 13.1001 19.1001 16.3 15.8001 18.5C15.3001 18.8 14.6002 18.9 14.5002 19.5V37.5C14.1002 41.8 8.20012 41.9 7.70012 37.5L7.80009 19.3999C7.70009 19.0999 5.40009 17.8 4.80009 17.3C0.900094 13.7 1.00014 7.09995 5.10014 3.69995C5.50014 3.29995 6.10012 2.79995 6.70012 2.69995Z" fill="#FEFEFE"/>
<path fill-rule="evenodd" clip-rule="evenodd" d="M29.2998 40.7C29.1998 39.9 29.0999 39.0001 28.3999 38.5001C28.0999 38.3001 26.3998 37.6002 26.1998 37.6002C25.5998 37.6002 24.3999 38.6001 24.0999 38.5001C23.9999 38.5001 22.7998 37.3 22.6998 37.2C22.5998 36.8 23.3999 35.8001 23.4999 35.3001C23.5999 34.9001 22.7999 32.8001 22.4999 32.5001C22.0999 32.1001 20.9999 32 20.4999 31.9L20.3999 29.6002C21.2999 29.3002 22.1998 29.4002 22.6998 28.6002C22.8998 28.3002 23.5999 26.6001 23.5999 26.3001C23.5999 25.7001 22.5998 24.6001 22.6998 24.3001C22.6998 24.2001 23.8999 23 23.9999 22.9C24.3999 22.7 25.3999 23.6 25.8999 23.7C26.2999 23.8 28.3998 23.0002 28.6998 22.6002C29.0998 22.2002 29.1998 21.2002 29.2998 20.6002C29.8998 20.7002 30.7998 20.5002 31.2998 20.6002C31.8998 20.7002 31.7998 21.9001 32.1998 22.5001C32.3998 22.9001 34.3999 23.7 34.8999 23.7C35.4999 23.7 36.5999 22.8 36.8999 22.9C36.9999 22.9 38.0998 24.0002 38.1998 24.1002C38.5998 24.6002 37.5999 25.5001 37.4999 26.0001C37.3999 26.5001 38.1999 28.6 38.5999 28.9C38.9999 29.3 40.2999 29.4002 40.4999 29.6002C40.5999 29.8002 40.5999 31.2001 40.5999 31.5001C40.4999 32.1001 39.2998 32.0001 38.6998 32.3001C38.2998 32.6001 37.3999 34.7 37.4999 35.2C37.4999 35.7 38.3998 36.7002 38.2998 37.1002C38.2998 37.2002 37.0999 38.4001 36.9999 38.5001C36.4999 38.7001 35.5999 37.5 34.4999 37.7C34.1999 37.8 32.4998 38.5 32.2998 38.7C31.8998 39.2 31.7999 40.5 31.5999 40.7C31.1999 40.9 29.7998 40.7 29.2998 40.7ZM29.5999 25.7C24.1999 26.4 24.0999 34.8 29.4999 35.7C37.3999 36.9 37.4999 24.6 29.5999 25.7Z" fill="#FEFEFE"/>
<path fill-rule="evenodd" clip-rule="evenodd" d="M29.5 5.10004C34.4 0.500037 41.3 7.99994 36.5 12.4999C31.7 16.9999 24.7 9.70004 29.5 5.10004ZM32.4 6.29999C29.8 6.89999 29.8999 11 32.6999 11.3C36.7999 11.7 36.3 5.49999 32.4 6.29999Z" fill="#FEFEFE"/>
<path fill-rule="evenodd" clip-rule="evenodd" d="M29.5998 25.6998C37.4998 24.5998 37.3999 36.8998 29.4999 35.6998C24.0999 34.7998 24.1998 26.3998 29.5998 25.6998ZM32.9999 28.3998C29.9999 25.0998 24.8998 29.8 28.0998 33.1C31.0998 36.2 35.9999 31.6998 32.9999 28.3998Z" fill="#1C3051"/>
<path fill-rule="evenodd" clip-rule="evenodd" d="M32.4 6.30011C36.3 5.50011 36.8 11.7001 32.7 11.3001C29.9 11.0001 29.8 6.90011 32.4 6.30011ZM33.7 8.20001C33.1 7.40001 31.5 8.39996 32.4 9.39996C33.1 10.3 34.4 9.10001 33.7 8.20001Z" fill="#1C3051"/>
<path d="M33 28.3999C36 31.6999 31.0999 36.2001 28.0999 33.1001C24.8999 29.8001 30 25.0999 33 28.3999Z" fill="#FEFEFE"/>
<path d="M33.7 8.1999C34.4 9.0999 33.1 10.2999 32.4 9.39985C31.5 8.39985 33.1 7.3999 33.7 8.1999Z" fill="#FEFEFE"/>
</svg>
