<svg width="223" height="86" viewBox="0 0 223 86" fill="none" xmlns="http://www.w3.org/2000/svg">
<g clip-path="url(#clip0_2148_14)">
<path d="M169.3 45.2H113.9C112.6 45.2 111.6 44.0998 111.6 42.8998L113.8 33C113.8 31.7 114.8 30.7 116.1 30.7H169.3V45.2Z" fill="white"/>
<path d="M162.1 18.8L149.8 70.9001H165.5L177.9 18.9L162.1 18.8Z" fill="white"/>
<path d="M121.3 63.5L135.2 0.800049H119.4L105.5 63.5H121.3Z" fill="white"/>
<path d="M69.7001 26.9001H36.5C32.3 26.9001 28.6001 30.0001 28.2001 34.1001C27.8001 38.8001 31.5 42.7001 36.1 42.7001H65.8C65.8667 42.7001 65.9001 42.7001 65.9001 42.7001L69.7001 27.0001C69.7001 26.9335 69.7001 26.9001 69.7001 26.9001Z" fill="white"/>
<path d="M62.9 54.8L39.1 54.7C36.9 54.7 34.7 54.5334 32.5 54.2L30.4 53.9C22.1 51.5 16 44.8 16 35.7C16 35.5667 16 35.4334 16 35.3C16.2 24.8 24.8 16.6 35.2 16.6H41.3H63.8H69.1C77.8 16.6 84.8 9.50005 84.8 0.800049H32.6C14.4 2.00005 0 17.1 0 35.7C0 54.1 14.2 69.2 32.1 70.5C32.1666 70.5667 32.2 70.6001 32.2 70.6001H59L62.9 54.8Z" fill="white"/>
<path d="M190.3 18.9C190.233 18.9 190.2 18.9 190.2 18.9L162.3 18.8H162.1C160.1 26 165.9 33.2001 173.7 33.2001L186.7 33.3L192.1 34C200.4 36.3 206.5 43.6 206.5 52.3C206.5 52.5667 206.467 52.8 206.4 53C206.1 62.9 197.5 70.6001 187.2 70.6001H181.1H172.4H89.5L99.8 30.5H84.1L73.5 71.9001C71.3 81.0001 77.3 85.8 84.8 85.8H137.6H172.4H189.8C189.8 85.8 189.833 85.7667 189.9 85.7C208.1 84.6 222.4 70.1 222.4 52.3C222.4 34.7 208.3 20.2 190.3 18.9Z" fill="#F68C2E"/>
</g>
<defs>
<clipPath id="clip0_2148_14">
<rect width="223" height="86" fill="white"/>
</clipPath>
</defs>
</svg>
